M48
;Layer_Color=9474304
;FILE_FORMAT=2:4
INCH,TZ
;TYPE=PLATED
T1F00S00C0.0120
T2F00S00C0.0130
T4F00S00C0.0354
T5F00S00C0.0394
T6F00S00C0.0701
T7F00S00C0.1260
;TYPE=NON_PLATED
T8F00S00C0.0390
%
T01
X500Y-12000
Y-10900
X1700Y-11000
X2700Y-10705
X3620
X3164Y-10020
X3164Y-7754
X2660Y-8190
X2170Y-7390
X2830Y-6120
X4050Y-6804
X3240Y-3490
X1710Y-3550
X310Y-3590
X1250Y-4630
X500Y-8000
X2400Y-11800
X4500Y-12000
X5500Y-11000
X6500Y-12000
X9000
X8500Y-11000
X10500
Y-12000
X11480Y-10350
X12490Y-10320
X12000Y-9500
X13000
X14000
X15000
X15490Y-9990
X16460Y-10020
X17460Y-10040
X18000Y-9500
X17520Y-9010
X16470Y-8980
X15530Y-8970
X15470Y-7330
X16380Y-7420
X16410Y-8000
X17430Y-7960
X19410Y-8010
X18920Y-6930
X18180Y-5670
X17040Y-5820
X15830Y-6290
X15406Y-5430
X14920Y-5470
X14220Y-5490
X14200Y-5120
X13986Y-3880
X13620Y-3600
X14696Y-3880
X15046Y-3540
X15696Y-4240
X16500Y-4250
X16010Y-4890
X13846Y-6270
X14000Y-7180
X12410Y-7330
X12170Y-6310
X11510Y-6120
X11150Y-5770
X11036Y-5310
X10736Y-5380
X10364Y-5498
X9770Y-5420
X9176Y-5260
X8683Y-5207
X8349
X7380Y-5580
X5920Y-5780
X5980Y-6400
X5770Y-4880
X5700Y-4350
X5960Y-3780
X7966Y-3980
X9220Y-3440
X9876Y-4400
X10506Y-3930
X11210Y-3560
X11866Y-3760
X12526Y-3900
X12450Y-5620
X13176Y-5660
X11610Y-5420
X11570Y-5040
X10910Y-7060
X9590Y-7090
X9130Y-7330
X8620Y-8820
X9510Y-9560
X11000Y-9500
X11510Y-8570
X12490Y-8590
X7320Y-9580
X6600Y-7800
X19470Y-10260
X20000Y-9500
X21000
X22000
X23000
X24000
X25000
X25590Y-8870
X26000Y-10000
X26240Y-10970
X27780
X28000Y-10000
X29500Y-9500
X30210Y-8410
X31080Y-7690
X31500Y-7000
X33500
X34190Y-8400
X35210
X34720Y-9080
X33500Y-9500
X33310Y-11020
X33000Y-12000
X35000
X31000
X30120Y-11010
X29000Y-12000
X27000
X27300Y-8540
X28590Y-7970
X28520Y-6450
X28490Y-5080
X27750Y-4900
X27780Y-4360
Y-4060
Y-3760
Y-3460
Y-3160
X28670Y-3330
Y-3630
X26540Y-3930
X26990Y-6450
X30200Y-5030
X32000Y-5000
X34000Y-5160
X34273Y-4213
X35013
X35000Y-4560
Y-6000
X31500Y-9500
X23900Y-4560
X23260Y-4430
X22610Y-4560
X22700Y-3130
X23260Y-3140
X21660Y-5580
X21730Y-6570
X20520Y-6070
X20290Y-6950
X20480Y-7900
X20010Y-5330
X20020Y-4280
X35570Y-4960
X37090Y-4000
X37030Y-6650
X37000Y-8000
X36000Y-9500
X37050Y-11030
X37000Y-12000
X36990Y-1870
X37000Y0
Y1000
X36040Y1180
Y2710
X36790Y2670
X37000Y3000
Y5000
X35900Y4966
Y4396
Y5536
X37000Y7000
X38500
Y5500
X38630Y9190
X38500Y10000
X37000
Y9000
X36000Y12000
X38500
X34500
Y10250
X34000Y9500
X33000
X32000
X31000
X30000
X29000
X28000
X27000
X26440Y10270
X25620Y10220
X25000Y9500
X24000
X23000
X22000
X21000
X20000
X21260Y5590
X22970Y6300
X23750Y5250
X24740Y5100
X25010Y5270
X25280Y5440
X26040Y4680
X24930Y4110
X24410Y2740
X23990
X23780Y2520
X24200
X24620
X23510Y2020
X23460Y980
X24760Y1010
X25160Y1020
X25550Y1040
X26662Y1002
X27190Y990
X26990Y0
X26860Y-1180
X26310Y-2380
X25950Y-2370
X25580Y-2380
X24560Y-2340
X24410Y-1160
X23898Y-1040
X23310Y-1080
X22950Y-30
X20980Y190
X20120Y-320
X20160Y1170
X21250Y1360
X21640Y2420
X20210Y2510
X19960Y3760
X23670Y3220
X27170Y2820
X29170Y2560
Y2260
X29230Y3120
X29270Y3620
X30350Y2740
X30210Y2130
X31060
X31450Y1290
X30700Y1220
X29290Y1320
Y1013
Y713
Y413
Y113
Y-187
Y-487
Y-787
Y-1087
Y-1510
Y-1810
Y-2110
Y-2410
X27780Y-2860
X30260Y-1370
X30180Y-920
X30960Y-1700
X31400Y-1610
X34270Y-1480
X35200
Y700
X35260Y1490
Y2350
X34060Y2250
X34380Y2880
X34720Y3400
X33200Y3510
X32690Y2980
X32580Y2190
X33670Y1650
X32480Y3910
X32210Y3650
X31660Y3850
X31030Y3970
X30230Y4800
X30150Y5910
X30130Y6590
X31410Y7280
X32150Y6520
Y5020
X32950Y5130
X34650Y5020
Y6520
X35250Y6673
X34340Y7100
X34690Y8060
X32420Y8200
X32500Y10230
X26140Y11090
X25920Y8100
X25840Y7060
X23680Y-3090
X21270Y-1860
X20060Y-1830
X19210Y-1130
X18260Y-1120
X18430Y130
X19610Y500
X19520Y1250
X19590Y2500
X18400Y2200
X18070Y1590
X17740Y1040
X17030Y1170
X17010Y470
X16816Y-200
X17176Y-336
X16196Y-690
Y110
X16006Y1130
X15920Y1850
X16340Y2700
X16280Y3070
X15800Y3050
X15400Y3100
X14916Y3110
X14396Y3100
X14360Y2290
X13540Y3010
X13200Y3030
X12970Y2580
X12690Y2770
X12800Y3510
X13440Y3900
X13910
X13076Y1970
X13106Y970
X11980Y820
X12180Y530
X11380Y610
X10676Y146
Y-193
X11020Y-260
X10830Y-1840
X10330Y-1970
X10326Y-1660
X10310Y-2440
X10536Y-2710
X10526Y-3010
X11700Y-2970
X12856Y-2970
X12900Y-1920
X14196Y-1990
X15166Y-1790
X16206Y-2130
X16556Y-1480
X17196Y-2100
X16346Y-2990
X14026Y-910
X15036Y460
X17027Y3800
Y4220
X17027Y4640
X17020Y5010
X17360Y4430
X17800Y3810
Y3380
X18090Y4980
X17590Y5840
X17870Y6330
X17150Y6670
X15970Y6940
X14680
X12910Y6960
X10890Y7020
X10700Y8160
X11760Y8130
X11400Y9500
X12400
X13400
X14400
X15400
X16400
X18000
X19000
X10890Y10100
X9890Y10080
X9400Y9500
X8400
X7400
X6900Y10500
Y12000
X5400
X4500Y10500
X4910Y8710
X5610Y8100
X5600Y7660
X4760Y7380
X6880Y7230
X7400Y6810
X7900Y6000
X8400Y5500
X8950Y4940
X9910Y5040
X9900Y6200
X8900Y6600
X7820Y8010
X6750Y8090
X6850Y5090
X6320Y4470
X5720Y4490
X5690Y5050
X6820Y3960
X7890Y4570
X8846Y3440
X8566Y2890
X10050Y2640
X9976Y3290
X11170Y3120
X10900Y2400
X10420Y2210
X8376Y610
X8866Y10
X8846Y-290
X8786Y-635
X8796Y-1000
X8206Y-1020
X8226Y-570
X7916Y-260
X6856Y-750
X5240Y-770
X4326Y-705
X4546Y-1100
X4410Y-2250
X5250Y-2260
X6586Y-2160
X7666Y-1620
X8456Y-1670
X8836Y-1610
X8716Y-2400
X9126Y-2380
X9186Y-2710
Y-3010
X7766Y-2630
X11630Y-1800
X4516Y1820
Y2850
X5260Y2960
X9900Y8820
X3100Y8500
X3000Y10000
X2500Y10500
Y12000
X500
Y10500
X670Y6830
X2250Y6670
X3380Y6810
X2320Y4850
X470Y4580
X840Y3530
X960Y2570
X2390Y2240
X3186Y2630
X2570Y1050
X3786Y1005
X3226Y-1000
X2150Y-630
X1100Y-690
X1130Y240
X1080Y-1940
X780Y-3080
X2940Y-3060
X3050Y-2590
T02
X31941Y-709
X32414
X32886
X33359
Y-236
Y236
Y709
X32886
Y236
Y-236
X32414
Y236
Y709
X31941
Y236
Y-236
T04
X11000Y-12000
Y-11000
X12000
Y-12000
X13000
X14000
Y-11000
X13000
X15000
X16000
X17000
Y-12000
X16000
X15000
X18000
Y-11000
X20000
X21000
X22000
Y-12000
X21000
X20000
X23000
X24000
Y-11000
X23000
X25000
Y-12000
Y11000
Y12000
X24000
Y11000
X23000
X22000
Y12000
X23000
X21000
X20000
Y11000
X21000
X27000
X28000
Y12000
X29000
Y11000
X30000
X31000
Y12000
X32000
X33000
X34000
Y11000
X33000
X32000
X30000Y12000
X27000
X19000
Y11000
X18000
Y12000
X16400
X15400
X14400
Y11000
X15400
X16400
X13400
X12400
Y12000
X13400
X11400
Y11000
X10400
X9400
Y12000
X10400
X8400
Y11000
X7400
Y12000
T05
X27000Y-9500
X1500Y11750
T06
X2880Y-5500
Y5500
T07
X5500Y-9500
X26000Y-7500
X38000Y-9500
X35500Y9500
X26000Y3500
X6000Y9500
T08
X19000Y-0
X18600Y3000
X19400
M30
