G75*
%MOIN*%
%OFA0B0*%
%FSLAX24Y24*%
%IPPOS*%
%LPD*%
%AMOC8*
5,1,8,0,0,1.08239X$1,22.5*
%
%ADD10C,0.0010*%
%ADD11C,0.0000*%
D10*
X003150Y000150D02*
X013150Y000150D01*
X016150Y007150D01*
X013150Y014150D01*
X003150Y014150D01*
X000200Y007100D01*
X003150Y000150D01*
D11*
X003450Y001100D02*
X003452Y001137D01*
X003458Y001174D01*
X003468Y001210D01*
X003481Y001245D01*
X003498Y001278D01*
X003519Y001309D01*
X003543Y001337D01*
X003570Y001363D01*
X003599Y001386D01*
X003630Y001406D01*
X003664Y001422D01*
X003699Y001435D01*
X003735Y001444D01*
X003772Y001449D01*
X003809Y001450D01*
X003846Y001447D01*
X003883Y001440D01*
X003919Y001429D01*
X003953Y001415D01*
X003986Y001397D01*
X004016Y001375D01*
X004044Y001351D01*
X004069Y001323D01*
X004092Y001293D01*
X004111Y001261D01*
X004126Y001227D01*
X004138Y001192D01*
X004146Y001156D01*
X004150Y001119D01*
X004150Y001081D01*
X004146Y001044D01*
X004138Y001008D01*
X004126Y000973D01*
X004111Y000939D01*
X004092Y000907D01*
X004069Y000877D01*
X004044Y000849D01*
X004016Y000825D01*
X003986Y000803D01*
X003953Y000785D01*
X003919Y000771D01*
X003883Y000760D01*
X003846Y000753D01*
X003809Y000750D01*
X003772Y000751D01*
X003735Y000756D01*
X003699Y000765D01*
X003664Y000778D01*
X003630Y000794D01*
X003599Y000814D01*
X003570Y000837D01*
X003543Y000863D01*
X003519Y000891D01*
X003498Y000922D01*
X003481Y000955D01*
X003468Y000990D01*
X003458Y001026D01*
X003452Y001063D01*
X003450Y001100D01*
X000800Y007150D02*
X000802Y007187D01*
X000808Y007224D01*
X000818Y007260D01*
X000831Y007295D01*
X000848Y007328D01*
X000869Y007359D01*
X000893Y007387D01*
X000920Y007413D01*
X000949Y007436D01*
X000980Y007456D01*
X001014Y007472D01*
X001049Y007485D01*
X001085Y007494D01*
X001122Y007499D01*
X001159Y007500D01*
X001196Y007497D01*
X001233Y007490D01*
X001269Y007479D01*
X001303Y007465D01*
X001336Y007447D01*
X001366Y007425D01*
X001394Y007401D01*
X001419Y007373D01*
X001442Y007343D01*
X001461Y007311D01*
X001476Y007277D01*
X001488Y007242D01*
X001496Y007206D01*
X001500Y007169D01*
X001500Y007131D01*
X001496Y007094D01*
X001488Y007058D01*
X001476Y007023D01*
X001461Y006989D01*
X001442Y006957D01*
X001419Y006927D01*
X001394Y006899D01*
X001366Y006875D01*
X001336Y006853D01*
X001303Y006835D01*
X001269Y006821D01*
X001233Y006810D01*
X001196Y006803D01*
X001159Y006800D01*
X001122Y006801D01*
X001085Y006806D01*
X001049Y006815D01*
X001014Y006828D01*
X000980Y006844D01*
X000949Y006864D01*
X000920Y006887D01*
X000893Y006913D01*
X000869Y006941D01*
X000848Y006972D01*
X000831Y007005D01*
X000818Y007040D01*
X000808Y007076D01*
X000802Y007113D01*
X000800Y007150D01*
X003450Y013200D02*
X003452Y013237D01*
X003458Y013274D01*
X003468Y013310D01*
X003481Y013345D01*
X003498Y013378D01*
X003519Y013409D01*
X003543Y013437D01*
X003570Y013463D01*
X003599Y013486D01*
X003630Y013506D01*
X003664Y013522D01*
X003699Y013535D01*
X003735Y013544D01*
X003772Y013549D01*
X003809Y013550D01*
X003846Y013547D01*
X003883Y013540D01*
X003919Y013529D01*
X003953Y013515D01*
X003986Y013497D01*
X004016Y013475D01*
X004044Y013451D01*
X004069Y013423D01*
X004092Y013393D01*
X004111Y013361D01*
X004126Y013327D01*
X004138Y013292D01*
X004146Y013256D01*
X004150Y013219D01*
X004150Y013181D01*
X004146Y013144D01*
X004138Y013108D01*
X004126Y013073D01*
X004111Y013039D01*
X004092Y013007D01*
X004069Y012977D01*
X004044Y012949D01*
X004016Y012925D01*
X003986Y012903D01*
X003953Y012885D01*
X003919Y012871D01*
X003883Y012860D01*
X003846Y012853D01*
X003809Y012850D01*
X003772Y012851D01*
X003735Y012856D01*
X003699Y012865D01*
X003664Y012878D01*
X003630Y012894D01*
X003599Y012914D01*
X003570Y012937D01*
X003543Y012963D01*
X003519Y012991D01*
X003498Y013022D01*
X003481Y013055D01*
X003468Y013090D01*
X003458Y013126D01*
X003452Y013163D01*
X003450Y013200D01*
X012150Y013200D02*
X012152Y013237D01*
X012158Y013274D01*
X012168Y013310D01*
X012181Y013345D01*
X012198Y013378D01*
X012219Y013409D01*
X012243Y013437D01*
X012270Y013463D01*
X012299Y013486D01*
X012330Y013506D01*
X012364Y013522D01*
X012399Y013535D01*
X012435Y013544D01*
X012472Y013549D01*
X012509Y013550D01*
X012546Y013547D01*
X012583Y013540D01*
X012619Y013529D01*
X012653Y013515D01*
X012686Y013497D01*
X012716Y013475D01*
X012744Y013451D01*
X012769Y013423D01*
X012792Y013393D01*
X012811Y013361D01*
X012826Y013327D01*
X012838Y013292D01*
X012846Y013256D01*
X012850Y013219D01*
X012850Y013181D01*
X012846Y013144D01*
X012838Y013108D01*
X012826Y013073D01*
X012811Y013039D01*
X012792Y013007D01*
X012769Y012977D01*
X012744Y012949D01*
X012716Y012925D01*
X012686Y012903D01*
X012653Y012885D01*
X012619Y012871D01*
X012583Y012860D01*
X012546Y012853D01*
X012509Y012850D01*
X012472Y012851D01*
X012435Y012856D01*
X012399Y012865D01*
X012364Y012878D01*
X012330Y012894D01*
X012299Y012914D01*
X012270Y012937D01*
X012243Y012963D01*
X012219Y012991D01*
X012198Y013022D01*
X012181Y013055D01*
X012168Y013090D01*
X012158Y013126D01*
X012152Y013163D01*
X012150Y013200D01*
X014800Y007150D02*
X014802Y007187D01*
X014808Y007224D01*
X014818Y007260D01*
X014831Y007295D01*
X014848Y007328D01*
X014869Y007359D01*
X014893Y007387D01*
X014920Y007413D01*
X014949Y007436D01*
X014980Y007456D01*
X015014Y007472D01*
X015049Y007485D01*
X015085Y007494D01*
X015122Y007499D01*
X015159Y007500D01*
X015196Y007497D01*
X015233Y007490D01*
X015269Y007479D01*
X015303Y007465D01*
X015336Y007447D01*
X015366Y007425D01*
X015394Y007401D01*
X015419Y007373D01*
X015442Y007343D01*
X015461Y007311D01*
X015476Y007277D01*
X015488Y007242D01*
X015496Y007206D01*
X015500Y007169D01*
X015500Y007131D01*
X015496Y007094D01*
X015488Y007058D01*
X015476Y007023D01*
X015461Y006989D01*
X015442Y006957D01*
X015419Y006927D01*
X015394Y006899D01*
X015366Y006875D01*
X015336Y006853D01*
X015303Y006835D01*
X015269Y006821D01*
X015233Y006810D01*
X015196Y006803D01*
X015159Y006800D01*
X015122Y006801D01*
X015085Y006806D01*
X015049Y006815D01*
X015014Y006828D01*
X014980Y006844D01*
X014949Y006864D01*
X014920Y006887D01*
X014893Y006913D01*
X014869Y006941D01*
X014848Y006972D01*
X014831Y007005D01*
X014818Y007040D01*
X014808Y007076D01*
X014802Y007113D01*
X014800Y007150D01*
X012150Y001100D02*
X012152Y001137D01*
X012158Y001174D01*
X012168Y001210D01*
X012181Y001245D01*
X012198Y001278D01*
X012219Y001309D01*
X012243Y001337D01*
X012270Y001363D01*
X012299Y001386D01*
X012330Y001406D01*
X012364Y001422D01*
X012399Y001435D01*
X012435Y001444D01*
X012472Y001449D01*
X012509Y001450D01*
X012546Y001447D01*
X012583Y001440D01*
X012619Y001429D01*
X012653Y001415D01*
X012686Y001397D01*
X012716Y001375D01*
X012744Y001351D01*
X012769Y001323D01*
X012792Y001293D01*
X012811Y001261D01*
X012826Y001227D01*
X012838Y001192D01*
X012846Y001156D01*
X012850Y001119D01*
X012850Y001081D01*
X012846Y001044D01*
X012838Y001008D01*
X012826Y000973D01*
X012811Y000939D01*
X012792Y000907D01*
X012769Y000877D01*
X012744Y000849D01*
X012716Y000825D01*
X012686Y000803D01*
X012653Y000785D01*
X012619Y000771D01*
X012583Y000760D01*
X012546Y000753D01*
X012509Y000750D01*
X012472Y000751D01*
X012435Y000756D01*
X012399Y000765D01*
X012364Y000778D01*
X012330Y000794D01*
X012299Y000814D01*
X012270Y000837D01*
X012243Y000863D01*
X012219Y000891D01*
X012198Y000922D01*
X012181Y000955D01*
X012168Y000990D01*
X012158Y001026D01*
X012152Y001063D01*
X012150Y001100D01*
M02*
