G75*
%MOIN*%
%OFA0B0*%
%FSLAX24Y24*%
%IPPOS*%
%LPD*%
%AMOC8*
5,1,8,0,0,1.08239X$1,22.5*
%
%ADD10R,0.1500X0.1500*%
%ADD11C,0.1921*%
%ADD12R,0.0416X0.0416*%
%ADD13C,0.0280*%
%ADD14C,0.0300*%
%ADD15C,0.0100*%
D10*
X004530Y003300D03*
X012270Y003300D03*
D11*
X010018Y001732D02*
X006882Y001732D01*
X006882Y004868D01*
X010018Y004868D01*
X010018Y001732D01*
X010018Y003652D02*
X006882Y003652D01*
D12*
X009550Y008300D03*
X009550Y008800D03*
X010050Y008800D03*
X010050Y008300D03*
X010550Y008300D03*
X010550Y008800D03*
X011050Y008800D03*
X011050Y008300D03*
X011550Y008300D03*
X011550Y008800D03*
D13*
X009850Y009950D03*
X009800Y010550D03*
X009400Y011550D03*
X010750Y011550D03*
X011100Y011550D03*
X011450Y011550D03*
X012050Y010300D03*
X008750Y007800D03*
X007750Y008050D03*
X007150Y008650D03*
X006550Y008050D03*
X006650Y007000D03*
X006400Y006550D03*
X005350Y007000D03*
X005450Y007950D03*
X004300Y008100D03*
X003700Y009150D03*
X005300Y009900D03*
X005950Y009900D03*
X006550Y009250D03*
X007750Y009250D03*
X006600Y010800D03*
X006500Y011550D03*
X008000Y011550D03*
X004800Y010900D03*
X007650Y007000D03*
X008600Y006500D03*
X010350Y003850D03*
X009850Y003300D03*
X010350Y002750D03*
X006400Y002750D03*
X006400Y003850D03*
D14*
X004530Y003300D02*
X004530Y005580D01*
X005950Y007000D01*
X005950Y009900D01*
X005950Y007000D02*
X006650Y007000D01*
X006950Y007000D01*
X006650Y007000D02*
X007650Y007000D01*
X009700Y007000D01*
X012270Y004430D01*
X012270Y003300D01*
X009050Y007000D02*
X007650Y007000D01*
D15*
X005772Y002022D02*
X002578Y002022D01*
X002537Y002120D02*
X005772Y002120D01*
X005772Y002219D02*
X002495Y002219D01*
X002453Y002317D02*
X005772Y002317D01*
X005772Y002416D02*
X005358Y002416D01*
X005342Y002400D02*
X005430Y002488D01*
X005430Y004112D01*
X005342Y004200D01*
X004830Y004200D01*
X004830Y005456D01*
X006074Y006700D01*
X009576Y006700D01*
X010347Y005929D01*
X010325Y005936D01*
X010204Y005964D01*
X010080Y005978D01*
X008500Y005978D01*
X008500Y003350D01*
X011128Y003350D01*
X011128Y004930D01*
X011114Y005054D01*
X011086Y005175D01*
X011079Y005197D01*
X011970Y004306D01*
X011970Y004200D01*
X011458Y004200D01*
X011370Y004112D01*
X011370Y002488D01*
X011458Y002400D01*
X013082Y002400D01*
X013170Y002488D01*
X013170Y004112D01*
X013082Y004200D01*
X012570Y004200D01*
X012570Y004490D01*
X012524Y004600D01*
X012440Y004684D01*
X010324Y006800D01*
X011083Y006800D01*
X012033Y007750D01*
X012150Y007867D01*
X012150Y008783D01*
X012050Y008883D01*
X011933Y009000D01*
X011908Y009000D01*
X011908Y009070D01*
X011820Y009158D01*
X011280Y009158D01*
X011280Y009157D01*
X011278Y009158D01*
X011069Y009158D01*
X011069Y008819D01*
X011031Y008819D01*
X011031Y009158D01*
X010822Y009158D01*
X010800Y009152D01*
X010778Y009158D01*
X010569Y009158D01*
X010569Y008819D01*
X010531Y008819D01*
X010531Y009158D01*
X010322Y009158D01*
X010320Y009157D01*
X010320Y009158D01*
X009780Y009158D01*
X009780Y009157D01*
X009778Y009158D01*
X009569Y009158D01*
X009569Y008819D01*
X009531Y008819D01*
X009531Y009158D01*
X009322Y009158D01*
X009284Y009148D01*
X009250Y009128D01*
X009222Y009100D01*
X009202Y009066D01*
X009192Y009028D01*
X009192Y008819D01*
X009531Y008819D01*
X009531Y008781D01*
X009192Y008781D01*
X009192Y008572D01*
X009193Y008570D01*
X009192Y008570D01*
X009192Y008030D01*
X009280Y007942D01*
X011659Y007942D01*
X010917Y007200D01*
X009924Y007200D01*
X009870Y007254D01*
X009760Y007300D01*
X006250Y007300D01*
X006250Y009960D01*
X006204Y010070D01*
X006120Y010154D01*
X006010Y010200D01*
X005890Y010200D01*
X005780Y010154D01*
X005696Y010070D01*
X005650Y009960D01*
X005650Y007124D01*
X004276Y005750D01*
X004230Y005640D01*
X004230Y004200D01*
X003718Y004200D01*
X003630Y004112D01*
X003630Y002488D01*
X003718Y002400D01*
X005342Y002400D01*
X005430Y002514D02*
X005772Y002514D01*
X005772Y002613D02*
X005430Y002613D01*
X005430Y002711D02*
X005772Y002711D01*
X005772Y002810D02*
X005430Y002810D01*
X005430Y002908D02*
X005772Y002908D01*
X005772Y003007D02*
X005430Y003007D01*
X005430Y003105D02*
X005772Y003105D01*
X005772Y003204D02*
X005430Y003204D01*
X005430Y003302D02*
X008400Y003302D01*
X008400Y003350D02*
X008400Y003250D01*
X008500Y003250D01*
X008500Y003350D01*
X008400Y003350D01*
X008400Y005978D01*
X006820Y005978D01*
X006696Y005964D01*
X006575Y005936D01*
X006457Y005895D01*
X006345Y005841D01*
X006239Y005775D01*
X006141Y005697D01*
X006053Y005609D01*
X005975Y005511D01*
X005909Y005405D01*
X005855Y005293D01*
X005814Y005175D01*
X005786Y005054D01*
X005772Y004930D01*
X005772Y003350D01*
X008400Y003350D01*
X008400Y003401D02*
X008500Y003401D01*
X008500Y003499D02*
X008400Y003499D01*
X008400Y003598D02*
X008500Y003598D01*
X008500Y003696D02*
X008400Y003696D01*
X008400Y003795D02*
X008500Y003795D01*
X008500Y003893D02*
X008400Y003893D01*
X008400Y003992D02*
X008500Y003992D01*
X008500Y004090D02*
X008400Y004090D01*
X008400Y004189D02*
X008500Y004189D01*
X008500Y004287D02*
X008400Y004287D01*
X008400Y004386D02*
X008500Y004386D01*
X008500Y004484D02*
X008400Y004484D01*
X008400Y004583D02*
X008500Y004583D01*
X008500Y004681D02*
X008400Y004681D01*
X008400Y004780D02*
X008500Y004780D01*
X008500Y004878D02*
X008400Y004878D01*
X008400Y004977D02*
X008500Y004977D01*
X008500Y005075D02*
X008400Y005075D01*
X008400Y005174D02*
X008500Y005174D01*
X008500Y005272D02*
X008400Y005272D01*
X008400Y005371D02*
X008500Y005371D01*
X008500Y005469D02*
X008400Y005469D01*
X008400Y005568D02*
X008500Y005568D01*
X008500Y005666D02*
X008400Y005666D01*
X008400Y005765D02*
X008500Y005765D01*
X008500Y005863D02*
X008400Y005863D01*
X008400Y005962D02*
X008500Y005962D01*
X009625Y006651D02*
X006025Y006651D01*
X005927Y006553D02*
X009723Y006553D01*
X009822Y006454D02*
X005828Y006454D01*
X005730Y006356D02*
X009920Y006356D01*
X010019Y006257D02*
X005631Y006257D01*
X005533Y006159D02*
X010117Y006159D01*
X010216Y006060D02*
X005434Y006060D01*
X005336Y005962D02*
X006686Y005962D01*
X006391Y005863D02*
X005237Y005863D01*
X005139Y005765D02*
X006226Y005765D01*
X006111Y005666D02*
X005040Y005666D01*
X004942Y005568D02*
X006021Y005568D01*
X005949Y005469D02*
X004843Y005469D01*
X004830Y005371D02*
X005892Y005371D01*
X005848Y005272D02*
X004830Y005272D01*
X004830Y005174D02*
X005813Y005174D01*
X005791Y005075D02*
X004830Y005075D01*
X004830Y004977D02*
X005777Y004977D01*
X005772Y004878D02*
X004830Y004878D01*
X004830Y004780D02*
X005772Y004780D01*
X005772Y004681D02*
X004830Y004681D01*
X004830Y004583D02*
X005772Y004583D01*
X005772Y004484D02*
X004830Y004484D01*
X004830Y004386D02*
X005772Y004386D01*
X005772Y004287D02*
X004830Y004287D01*
X005354Y004189D02*
X005772Y004189D01*
X005772Y004090D02*
X005430Y004090D01*
X005430Y003992D02*
X005772Y003992D01*
X005772Y003893D02*
X005430Y003893D01*
X005430Y003795D02*
X005772Y003795D01*
X005772Y003696D02*
X005430Y003696D01*
X005430Y003598D02*
X005772Y003598D01*
X005772Y003499D02*
X005430Y003499D01*
X005430Y003401D02*
X005772Y003401D01*
X005772Y003250D02*
X005772Y001670D01*
X005786Y001546D01*
X005814Y001425D01*
X005855Y001307D01*
X005909Y001195D01*
X005975Y001089D01*
X006053Y000991D01*
X006141Y000903D01*
X006239Y000825D01*
X006345Y000759D01*
X006457Y000705D01*
X006575Y000664D01*
X006696Y000636D01*
X006820Y000622D01*
X008400Y000622D01*
X008400Y003250D01*
X005772Y003250D01*
X005772Y001923D02*
X002620Y001923D01*
X002662Y001825D02*
X005772Y001825D01*
X005772Y001726D02*
X002704Y001726D01*
X002746Y001628D02*
X003636Y001628D01*
X003691Y001650D02*
X003488Y001566D01*
X003334Y001412D01*
X003250Y001209D01*
X003250Y000991D01*
X003334Y000788D01*
X003488Y000634D01*
X003691Y000550D01*
X003909Y000550D01*
X004112Y000634D01*
X004266Y000788D01*
X004350Y000991D01*
X004350Y001209D01*
X004266Y001412D01*
X004112Y001566D01*
X003909Y001650D01*
X003691Y001650D01*
X003451Y001529D02*
X002787Y001529D01*
X002829Y001431D02*
X003353Y001431D01*
X003301Y001332D02*
X002871Y001332D01*
X002913Y001234D02*
X003260Y001234D01*
X003250Y001135D02*
X002955Y001135D01*
X002996Y001037D02*
X003250Y001037D01*
X003272Y000938D02*
X003038Y000938D01*
X003080Y000840D02*
X003313Y000840D01*
X003381Y000741D02*
X003122Y000741D01*
X003164Y000643D02*
X003480Y000643D01*
X003205Y000544D02*
X013096Y000544D01*
X013138Y000643D02*
X012820Y000643D01*
X012812Y000634D02*
X012966Y000788D01*
X013050Y000991D01*
X013050Y001209D01*
X012966Y001412D01*
X012812Y001566D01*
X012609Y001650D01*
X012391Y001650D01*
X012188Y001566D01*
X012034Y001412D01*
X011950Y001209D01*
X011950Y000991D01*
X012034Y000788D01*
X012188Y000634D01*
X012391Y000550D01*
X012609Y000550D01*
X012812Y000634D01*
X012919Y000741D02*
X013180Y000741D01*
X013222Y000840D02*
X012987Y000840D01*
X013028Y000938D02*
X013265Y000938D01*
X013307Y001037D02*
X013050Y001037D01*
X013050Y001135D02*
X013349Y001135D01*
X013391Y001234D02*
X013040Y001234D01*
X012999Y001332D02*
X013434Y001332D01*
X013476Y001431D02*
X012947Y001431D01*
X012849Y001529D02*
X013518Y001529D01*
X013560Y001628D02*
X012664Y001628D01*
X012336Y001628D02*
X011123Y001628D01*
X011128Y001670D02*
X011128Y003250D01*
X008500Y003250D01*
X008500Y000622D01*
X010080Y000622D01*
X010204Y000636D01*
X010325Y000664D01*
X010443Y000705D01*
X010555Y000759D01*
X010661Y000825D01*
X010759Y000903D01*
X010847Y000991D01*
X010925Y001089D01*
X010991Y001195D01*
X011045Y001307D01*
X011086Y001425D01*
X011114Y001546D01*
X011128Y001670D01*
X011128Y001726D02*
X013602Y001726D01*
X013645Y001825D02*
X011128Y001825D01*
X011128Y001923D02*
X013687Y001923D01*
X013729Y002022D02*
X011128Y002022D01*
X011128Y002120D02*
X013771Y002120D01*
X013813Y002219D02*
X011128Y002219D01*
X011128Y002317D02*
X013856Y002317D01*
X013898Y002416D02*
X013098Y002416D01*
X013170Y002514D02*
X013940Y002514D01*
X013982Y002613D02*
X013170Y002613D01*
X013170Y002711D02*
X014025Y002711D01*
X014067Y002810D02*
X013170Y002810D01*
X013170Y002908D02*
X014109Y002908D01*
X014151Y003007D02*
X013170Y003007D01*
X013170Y003105D02*
X014193Y003105D01*
X014236Y003204D02*
X013170Y003204D01*
X013170Y003302D02*
X014278Y003302D01*
X014320Y003401D02*
X013170Y003401D01*
X013170Y003499D02*
X014362Y003499D01*
X014404Y003598D02*
X013170Y003598D01*
X013170Y003696D02*
X014447Y003696D01*
X014489Y003795D02*
X013170Y003795D01*
X013170Y003893D02*
X014531Y003893D01*
X014573Y003992D02*
X013170Y003992D01*
X013170Y004090D02*
X014616Y004090D01*
X014658Y004189D02*
X013094Y004189D01*
X012570Y004287D02*
X014700Y004287D01*
X014742Y004386D02*
X012570Y004386D01*
X012570Y004484D02*
X014784Y004484D01*
X014827Y004583D02*
X012532Y004583D01*
X012443Y004681D02*
X014869Y004681D01*
X014911Y004780D02*
X012345Y004780D01*
X012246Y004878D02*
X014953Y004878D01*
X014995Y004977D02*
X012148Y004977D01*
X012049Y005075D02*
X015038Y005075D01*
X015080Y005174D02*
X011951Y005174D01*
X011852Y005272D02*
X015122Y005272D01*
X015164Y005371D02*
X011754Y005371D01*
X011655Y005469D02*
X015207Y005469D01*
X015249Y005568D02*
X011557Y005568D01*
X011458Y005666D02*
X015291Y005666D01*
X015333Y005765D02*
X011360Y005765D01*
X011261Y005863D02*
X015375Y005863D01*
X015418Y005962D02*
X011163Y005962D01*
X011064Y006060D02*
X015460Y006060D01*
X015502Y006159D02*
X010966Y006159D01*
X010867Y006257D02*
X015544Y006257D01*
X015586Y006356D02*
X010769Y006356D01*
X010670Y006454D02*
X015629Y006454D01*
X015671Y006553D02*
X010572Y006553D01*
X010473Y006651D02*
X014917Y006651D01*
X014838Y006684D02*
X015041Y006600D01*
X015259Y006600D01*
X015462Y006684D01*
X015616Y006838D01*
X015700Y007041D01*
X015700Y007259D01*
X015616Y007462D01*
X015462Y007616D01*
X015259Y007700D01*
X015041Y007700D01*
X014838Y007616D01*
X014684Y007462D01*
X014600Y007259D01*
X014600Y007041D01*
X014684Y006838D01*
X014838Y006684D01*
X014773Y006750D02*
X010375Y006750D01*
X009882Y007242D02*
X010959Y007242D01*
X011058Y007341D02*
X006250Y007341D01*
X006250Y007439D02*
X011156Y007439D01*
X011255Y007538D02*
X006250Y007538D01*
X006250Y007636D02*
X011353Y007636D01*
X011452Y007735D02*
X006250Y007735D01*
X006250Y007833D02*
X011550Y007833D01*
X011649Y007932D02*
X006250Y007932D01*
X006250Y008030D02*
X009192Y008030D01*
X009192Y008129D02*
X006250Y008129D01*
X006250Y008227D02*
X009192Y008227D01*
X009192Y008326D02*
X006250Y008326D01*
X006250Y008424D02*
X009192Y008424D01*
X009192Y008523D02*
X006250Y008523D01*
X006250Y008621D02*
X009192Y008621D01*
X009192Y008720D02*
X006250Y008720D01*
X006250Y008818D02*
X009531Y008818D01*
X009531Y008917D02*
X009569Y008917D01*
X009569Y009015D02*
X009531Y009015D01*
X009531Y009114D02*
X009569Y009114D01*
X009236Y009114D02*
X006250Y009114D01*
X006250Y009212D02*
X015043Y009212D01*
X015001Y009311D02*
X006250Y009311D01*
X006250Y009409D02*
X014959Y009409D01*
X014917Y009508D02*
X006250Y009508D01*
X006250Y009606D02*
X014874Y009606D01*
X014832Y009705D02*
X006250Y009705D01*
X006250Y009803D02*
X014790Y009803D01*
X014748Y009902D02*
X006250Y009902D01*
X006233Y010000D02*
X014706Y010000D01*
X014663Y010099D02*
X006176Y010099D01*
X006017Y010197D02*
X014621Y010197D01*
X014579Y010296D02*
X001759Y010296D01*
X001801Y010394D02*
X014537Y010394D01*
X014494Y010493D02*
X001842Y010493D01*
X001883Y010591D02*
X014452Y010591D01*
X014410Y010690D02*
X001924Y010690D01*
X001965Y010788D02*
X014368Y010788D01*
X014326Y010887D02*
X002007Y010887D01*
X002048Y010985D02*
X014283Y010985D01*
X014241Y011084D02*
X002089Y011084D01*
X002130Y011182D02*
X014199Y011182D01*
X014157Y011281D02*
X002172Y011281D01*
X002213Y011379D02*
X014115Y011379D01*
X014072Y011478D02*
X002254Y011478D01*
X002295Y011576D02*
X014030Y011576D01*
X013988Y011675D02*
X002336Y011675D01*
X002347Y011700D02*
X013977Y011700D01*
X015927Y007150D01*
X013015Y000355D01*
X003286Y000355D01*
X000422Y007101D01*
X002347Y011700D01*
X001718Y010197D02*
X005883Y010197D01*
X005724Y010099D02*
X001677Y010099D01*
X001636Y010000D02*
X005667Y010000D01*
X005650Y009902D02*
X001594Y009902D01*
X001553Y009803D02*
X005650Y009803D01*
X005650Y009705D02*
X001512Y009705D01*
X001471Y009606D02*
X005650Y009606D01*
X005650Y009508D02*
X001430Y009508D01*
X001388Y009409D02*
X005650Y009409D01*
X005650Y009311D02*
X001347Y009311D01*
X001306Y009212D02*
X005650Y009212D01*
X005650Y009114D02*
X001265Y009114D01*
X001224Y009015D02*
X005650Y009015D01*
X005650Y008917D02*
X001182Y008917D01*
X001141Y008818D02*
X005650Y008818D01*
X005650Y008720D02*
X001100Y008720D01*
X001059Y008621D02*
X005650Y008621D01*
X005650Y008523D02*
X001017Y008523D01*
X000976Y008424D02*
X005650Y008424D01*
X005650Y008326D02*
X000935Y008326D01*
X000894Y008227D02*
X005650Y008227D01*
X005650Y008129D02*
X000853Y008129D01*
X000811Y008030D02*
X005650Y008030D01*
X005650Y007932D02*
X000770Y007932D01*
X000729Y007833D02*
X005650Y007833D01*
X005650Y007735D02*
X000688Y007735D01*
X000647Y007636D02*
X000886Y007636D01*
X000838Y007616D02*
X000684Y007462D01*
X000600Y007259D01*
X000600Y007041D01*
X000684Y006838D01*
X000838Y006684D01*
X001041Y006600D01*
X001259Y006600D01*
X001462Y006684D01*
X001616Y006838D01*
X001700Y007041D01*
X001700Y007259D01*
X001616Y007462D01*
X001462Y007616D01*
X001259Y007700D01*
X001041Y007700D01*
X000838Y007616D01*
X000760Y007538D02*
X000605Y007538D01*
X000564Y007439D02*
X000674Y007439D01*
X000634Y007341D02*
X000523Y007341D01*
X000482Y007242D02*
X000600Y007242D01*
X000600Y007144D02*
X000440Y007144D01*
X000446Y007045D02*
X000600Y007045D01*
X000639Y006947D02*
X000488Y006947D01*
X000530Y006848D02*
X000680Y006848D01*
X000773Y006750D02*
X000571Y006750D01*
X000613Y006651D02*
X000917Y006651D01*
X000655Y006553D02*
X005078Y006553D01*
X005177Y006651D02*
X001383Y006651D01*
X001527Y006750D02*
X005275Y006750D01*
X005374Y006848D02*
X001620Y006848D01*
X001661Y006947D02*
X005472Y006947D01*
X005571Y007045D02*
X001700Y007045D01*
X001700Y007144D02*
X005650Y007144D01*
X005650Y007242D02*
X001700Y007242D01*
X001666Y007341D02*
X005650Y007341D01*
X005650Y007439D02*
X001626Y007439D01*
X001540Y007538D02*
X005650Y007538D01*
X005650Y007636D02*
X001414Y007636D01*
X000697Y006454D02*
X004980Y006454D01*
X004881Y006356D02*
X000739Y006356D01*
X000781Y006257D02*
X004783Y006257D01*
X004684Y006159D02*
X000822Y006159D01*
X000864Y006060D02*
X004586Y006060D01*
X004487Y005962D02*
X000906Y005962D01*
X000948Y005863D02*
X004389Y005863D01*
X004290Y005765D02*
X000990Y005765D01*
X001031Y005666D02*
X004241Y005666D01*
X004230Y005568D02*
X001073Y005568D01*
X001115Y005469D02*
X004230Y005469D01*
X004230Y005371D02*
X001157Y005371D01*
X001199Y005272D02*
X004230Y005272D01*
X004230Y005174D02*
X001240Y005174D01*
X001282Y005075D02*
X004230Y005075D01*
X004230Y004977D02*
X001324Y004977D01*
X001366Y004878D02*
X004230Y004878D01*
X004230Y004780D02*
X001408Y004780D01*
X001449Y004681D02*
X004230Y004681D01*
X004230Y004583D02*
X001491Y004583D01*
X001533Y004484D02*
X004230Y004484D01*
X004230Y004386D02*
X001575Y004386D01*
X001617Y004287D02*
X004230Y004287D01*
X003706Y004189D02*
X001659Y004189D01*
X001700Y004090D02*
X003630Y004090D01*
X003630Y003992D02*
X001742Y003992D01*
X001784Y003893D02*
X003630Y003893D01*
X003630Y003795D02*
X001826Y003795D01*
X001868Y003696D02*
X003630Y003696D01*
X003630Y003598D02*
X001909Y003598D01*
X001951Y003499D02*
X003630Y003499D01*
X003630Y003401D02*
X001993Y003401D01*
X002035Y003302D02*
X003630Y003302D01*
X003630Y003204D02*
X002077Y003204D01*
X002118Y003105D02*
X003630Y003105D01*
X003630Y003007D02*
X002160Y003007D01*
X002202Y002908D02*
X003630Y002908D01*
X003630Y002810D02*
X002244Y002810D01*
X002286Y002711D02*
X003630Y002711D01*
X003630Y002613D02*
X002327Y002613D01*
X002369Y002514D02*
X003630Y002514D01*
X003702Y002416D02*
X002411Y002416D01*
X003964Y001628D02*
X005777Y001628D01*
X005790Y001529D02*
X004149Y001529D01*
X004247Y001431D02*
X005812Y001431D01*
X005846Y001332D02*
X004299Y001332D01*
X004340Y001234D02*
X005890Y001234D01*
X005947Y001135D02*
X004350Y001135D01*
X004350Y001037D02*
X006017Y001037D01*
X006107Y000938D02*
X004328Y000938D01*
X004287Y000840D02*
X006221Y000840D01*
X006382Y000741D02*
X004219Y000741D01*
X004120Y000643D02*
X006668Y000643D01*
X008400Y000643D02*
X008500Y000643D01*
X008500Y000741D02*
X008400Y000741D01*
X008400Y000840D02*
X008500Y000840D01*
X008500Y000938D02*
X008400Y000938D01*
X008400Y001037D02*
X008500Y001037D01*
X008500Y001135D02*
X008400Y001135D01*
X008400Y001234D02*
X008500Y001234D01*
X008500Y001332D02*
X008400Y001332D01*
X008400Y001431D02*
X008500Y001431D01*
X008500Y001529D02*
X008400Y001529D01*
X008400Y001628D02*
X008500Y001628D01*
X008500Y001726D02*
X008400Y001726D01*
X008400Y001825D02*
X008500Y001825D01*
X008500Y001923D02*
X008400Y001923D01*
X008400Y002022D02*
X008500Y002022D01*
X008500Y002120D02*
X008400Y002120D01*
X008400Y002219D02*
X008500Y002219D01*
X008500Y002317D02*
X008400Y002317D01*
X008400Y002416D02*
X008500Y002416D01*
X008500Y002514D02*
X008400Y002514D01*
X008400Y002613D02*
X008500Y002613D01*
X008500Y002711D02*
X008400Y002711D01*
X008400Y002810D02*
X008500Y002810D01*
X008500Y002908D02*
X008400Y002908D01*
X008400Y003007D02*
X008500Y003007D01*
X008500Y003105D02*
X008400Y003105D01*
X008400Y003204D02*
X008500Y003204D01*
X008500Y003302D02*
X011370Y003302D01*
X011370Y003204D02*
X011128Y003204D01*
X011128Y003105D02*
X011370Y003105D01*
X011370Y003007D02*
X011128Y003007D01*
X011128Y002908D02*
X011370Y002908D01*
X011370Y002810D02*
X011128Y002810D01*
X011128Y002711D02*
X011370Y002711D01*
X011370Y002613D02*
X011128Y002613D01*
X011128Y002514D02*
X011370Y002514D01*
X011442Y002416D02*
X011128Y002416D01*
X011110Y001529D02*
X012151Y001529D01*
X012053Y001431D02*
X011088Y001431D01*
X011054Y001332D02*
X012001Y001332D01*
X011960Y001234D02*
X011010Y001234D01*
X010953Y001135D02*
X011950Y001135D01*
X011950Y001037D02*
X010883Y001037D01*
X010793Y000938D02*
X011972Y000938D01*
X012013Y000840D02*
X010679Y000840D01*
X010518Y000741D02*
X012081Y000741D01*
X012180Y000643D02*
X010232Y000643D01*
X013054Y000446D02*
X003247Y000446D01*
X010214Y005962D02*
X010314Y005962D01*
X011087Y005174D02*
X011102Y005174D01*
X011109Y005075D02*
X011201Y005075D01*
X011123Y004977D02*
X011299Y004977D01*
X011398Y004878D02*
X011128Y004878D01*
X011128Y004780D02*
X011496Y004780D01*
X011595Y004681D02*
X011128Y004681D01*
X011128Y004583D02*
X011693Y004583D01*
X011792Y004484D02*
X011128Y004484D01*
X011128Y004386D02*
X011890Y004386D01*
X011970Y004287D02*
X011128Y004287D01*
X011128Y004189D02*
X011446Y004189D01*
X011370Y004090D02*
X011128Y004090D01*
X011128Y003992D02*
X011370Y003992D01*
X011370Y003893D02*
X011128Y003893D01*
X011128Y003795D02*
X011370Y003795D01*
X011370Y003696D02*
X011128Y003696D01*
X011128Y003598D02*
X011370Y003598D01*
X011370Y003499D02*
X011128Y003499D01*
X011128Y003401D02*
X011370Y003401D01*
X011131Y006848D02*
X014680Y006848D01*
X014639Y006947D02*
X011229Y006947D01*
X011328Y007045D02*
X014600Y007045D01*
X014600Y007144D02*
X011426Y007144D01*
X011525Y007242D02*
X014600Y007242D01*
X014634Y007341D02*
X011623Y007341D01*
X011722Y007439D02*
X014674Y007439D01*
X014760Y007538D02*
X011820Y007538D01*
X011919Y007636D02*
X014886Y007636D01*
X015414Y007636D02*
X015719Y007636D01*
X015761Y007538D02*
X015540Y007538D01*
X015626Y007439D02*
X015803Y007439D01*
X015845Y007341D02*
X015666Y007341D01*
X015700Y007242D02*
X015888Y007242D01*
X015924Y007144D02*
X015700Y007144D01*
X015700Y007045D02*
X015882Y007045D01*
X015840Y006947D02*
X015661Y006947D01*
X015620Y006848D02*
X015798Y006848D01*
X015755Y006750D02*
X015527Y006750D01*
X015383Y006651D02*
X015713Y006651D01*
X015676Y007735D02*
X012017Y007735D01*
X012116Y007833D02*
X015634Y007833D01*
X015592Y007932D02*
X012150Y007932D01*
X012150Y008030D02*
X015550Y008030D01*
X015508Y008129D02*
X012150Y008129D01*
X012150Y008227D02*
X015465Y008227D01*
X015423Y008326D02*
X012150Y008326D01*
X012150Y008424D02*
X015381Y008424D01*
X015339Y008523D02*
X012150Y008523D01*
X012150Y008621D02*
X015297Y008621D01*
X015254Y008720D02*
X012150Y008720D01*
X012115Y008818D02*
X015212Y008818D01*
X015170Y008917D02*
X012016Y008917D01*
X011908Y009015D02*
X015128Y009015D01*
X015085Y009114D02*
X011864Y009114D01*
X011850Y008800D02*
X011550Y008800D01*
X011850Y008800D02*
X011950Y008700D01*
X011950Y007950D01*
X011000Y007000D01*
X009700Y007000D01*
X010569Y008781D02*
X010569Y008819D01*
X011031Y008819D01*
X011031Y008781D01*
X010692Y008781D01*
X010569Y008781D01*
X010569Y008818D02*
X011031Y008818D01*
X011031Y008917D02*
X011069Y008917D01*
X011069Y009015D02*
X011031Y009015D01*
X011031Y009114D02*
X011069Y009114D01*
X010569Y009114D02*
X010531Y009114D01*
X010531Y009015D02*
X010569Y009015D01*
X010569Y008917D02*
X010531Y008917D01*
X009192Y008917D02*
X006250Y008917D01*
X006250Y009015D02*
X009192Y009015D01*
M02*
