%
M48
M72
T01C0.0140
T02C0.0276
T03C0.0700
%
T01
X6400Y2750
X6400Y3850
X6400Y6550
X6650Y7000
X7650Y7000
X8600Y6500
X8750Y7800
X7750Y8050
X7150Y8650
X6550Y8050
X5450Y7950
X5350Y7000
X4300Y8100
X3700Y9150
X5300Y9900
X5950Y9900
X6550Y9250
X7750Y9250
X6600Y10800
X6500Y11550
X8000Y11550
X9400Y11550
X9800Y10550
X9850Y9950
X10750Y11550
X11100Y11550
X11450Y11550
X12050Y10300
X4800Y10900
X10350Y3850
X9850Y3300
X10350Y2750
T02
X12270Y3300
X11550Y8300
X11550Y8800
X11050Y8800
X11050Y8300
X10550Y8300
X10550Y8800
X10050Y8800
X10050Y8300
X9550Y8300
X9550Y8800
X4530Y3300
T03
X3800Y1100
X1150Y7150
X3800Y13200
X12500Y13200
X15150Y7150
X12500Y1100
M30
