%FSLAX24Y24*%
%MOIN*%
G70*
G01*
G75*
G04 Layer_Physical_Order=4*
G04 Layer_Color=16711680*
%ADD10C,0.0060*%
%ADD11C,0.0150*%
%ADD12C,0.0138*%
%ADD13C,0.0138*%
%ADD14C,0.0080*%
%ADD15C,0.0080*%
%ADD16C,0.0150*%
%ADD17R,0.0354X0.0138*%
%ADD18R,0.0400X0.0300*%
%ADD19C,0.0394*%
%ADD20R,0.0472X0.0512*%
%ADD21R,0.0315X0.0295*%
%ADD22R,0.0228X0.0197*%
%ADD23R,0.0256X0.0335*%
%ADD24R,0.0551X0.0630*%
%ADD25R,0.0610X0.0748*%
%ADD26R,0.0532X0.0157*%
%ADD27R,0.0394X0.0335*%
%ADD28R,0.0236X0.0335*%
%ADD29R,0.0276X0.0118*%
%ADD30R,0.0472X0.0433*%
%ADD31O,0.0650X0.0118*%
%ADD32O,0.0118X0.0650*%
%ADD33O,0.0256X0.0079*%
%ADD34O,0.0079X0.0256*%
%ADD35R,0.1850X0.1850*%
G04:AMPARAMS|DCode=36|XSize=47.2mil|YSize=43.3mil|CornerRadius=0mil|HoleSize=0mil|Usage=FLASHONLY|Rotation=225.000|XOffset=0mil|YOffset=0mil|HoleType=Round|Shape=Rectangle|*
%AMROTATEDRECTD36*
4,1,4,0.0014,0.0320,0.0320,0.0014,-0.0014,-0.0320,-0.0320,-0.0014,0.0014,0.0320,0.0*
%
%ADD36ROTATEDRECTD36*%

%ADD37R,0.0295X0.0315*%
%ADD38R,0.0197X0.0256*%
%ADD39R,0.0315X0.0295*%
%ADD40R,0.1500X0.0500*%
%ADD41R,0.0402X0.0862*%
%ADD42R,0.1083X0.0551*%
%ADD43R,0.0394X0.0709*%
%ADD44C,0.0079*%
%ADD45R,0.0197X0.0236*%
%ADD46R,0.0472X0.0984*%
%ADD47R,0.0945X0.0299*%
%ADD48C,0.0310*%
%ADD49R,0.1252X0.0500*%
%ADD50R,0.0236X0.0217*%
%ADD51R,0.0217X0.0236*%
G04:AMPARAMS|DCode=52|XSize=19.7mil|YSize=23.6mil|CornerRadius=0mil|HoleSize=0mil|Usage=FLASHONLY|Rotation=45.000|XOffset=0mil|YOffset=0mil|HoleType=Round|Shape=Rectangle|*
%AMROTATEDRECTD52*
4,1,4,0.0014,-0.0153,-0.0153,0.0014,-0.0014,0.0153,0.0153,-0.0014,0.0014,-0.0153,0.0*
%
%ADD52ROTATEDRECTD52*%

%ADD53R,0.0236X0.0197*%
%ADD54R,0.0299X0.0945*%
%ADD55C,0.0100*%
%ADD56C,0.0300*%
%ADD57C,0.0250*%
%ADD58C,0.0200*%
%ADD59C,0.0090*%
%ADD60C,0.0500*%
%ADD61C,0.0450*%
%ADD62R,0.0500X0.0300*%
%ADD63C,0.0591*%
%ADD64O,0.0630X0.0354*%
%ADD65C,0.0390*%
%ADD66C,0.0701*%
%ADD67R,0.0591X0.0591*%
%ADD68C,0.1260*%
%ADD69C,0.0260*%
%ADD70C,0.0240*%
%ADD71R,0.2000X0.2000*%
%ADD72R,0.0874X0.0402*%
G36*
X398Y12347D02*
D01*
X400Y12347D01*
X7068D01*
X7095Y12312D01*
X7113Y12275D01*
X7055Y12199D01*
X7015Y12103D01*
X7008Y12050D01*
X7792D01*
X7785Y12103D01*
X7745Y12199D01*
X7687Y12275D01*
X7705Y12312D01*
X7732Y12347D01*
X8068D01*
X8095Y12312D01*
X8113Y12275D01*
X8055Y12199D01*
X8015Y12103D01*
X8008Y12050D01*
X8792D01*
X8785Y12103D01*
X8745Y12199D01*
X8687Y12275D01*
X8705Y12312D01*
X8732Y12347D01*
X9068D01*
X9095Y12312D01*
X9113Y12275D01*
X9055Y12199D01*
X9015Y12103D01*
X9008Y12050D01*
X9792D01*
X9785Y12103D01*
X9745Y12199D01*
X9687Y12275D01*
X9705Y12312D01*
X9732Y12347D01*
X10068D01*
X10095Y12312D01*
X10113Y12275D01*
X10055Y12199D01*
X10015Y12103D01*
X10008Y12050D01*
X10792D01*
X10785Y12103D01*
X10745Y12199D01*
X10687Y12275D01*
X10705Y12312D01*
X10732Y12347D01*
X11068D01*
X11095Y12312D01*
X11113Y12275D01*
X11055Y12199D01*
X11015Y12103D01*
X11008Y12050D01*
X11792D01*
X11785Y12103D01*
X11745Y12199D01*
X11687Y12275D01*
X11705Y12312D01*
X11732Y12347D01*
X12068D01*
X12095Y12312D01*
X12113Y12275D01*
X12055Y12199D01*
X12015Y12103D01*
X12008Y12050D01*
X12792D01*
X12785Y12103D01*
X12745Y12199D01*
X12687Y12275D01*
X12705Y12312D01*
X12732Y12347D01*
X13068D01*
X13095Y12312D01*
X13113Y12275D01*
X13055Y12199D01*
X13015Y12103D01*
X13008Y12050D01*
X13792D01*
X13785Y12103D01*
X13745Y12199D01*
X13687Y12275D01*
X13705Y12312D01*
X13732Y12347D01*
X14068D01*
X14095Y12312D01*
X14113Y12275D01*
X14055Y12199D01*
X14015Y12103D01*
X14008Y12050D01*
X14792D01*
X14785Y12103D01*
X14745Y12199D01*
X14687Y12275D01*
X14705Y12312D01*
X14732Y12347D01*
X15068D01*
X15095Y12312D01*
X15113Y12275D01*
X15055Y12199D01*
X15015Y12103D01*
X15008Y12050D01*
X15792D01*
X15785Y12103D01*
X15745Y12199D01*
X15687Y12275D01*
X15705Y12312D01*
X15732Y12347D01*
X16005D01*
Y12050D01*
X16795D01*
Y12347D01*
X17668D01*
X17695Y12312D01*
X17713Y12275D01*
X17655Y12199D01*
X17615Y12103D01*
X17608Y12050D01*
X18392D01*
X18385Y12103D01*
X18345Y12199D01*
X18287Y12275D01*
X18305Y12312D01*
X18332Y12347D01*
X18668D01*
X18695Y12312D01*
X18713Y12275D01*
X18655Y12199D01*
X18615Y12103D01*
X18608Y12050D01*
X19392D01*
X19385Y12103D01*
X19345Y12199D01*
X19287Y12275D01*
X19305Y12312D01*
X19332Y12347D01*
X19668D01*
X19695Y12312D01*
X19713Y12275D01*
X19655Y12199D01*
X19615Y12103D01*
X19608Y12050D01*
X20392D01*
X20385Y12103D01*
X20345Y12199D01*
X20287Y12275D01*
X20305Y12312D01*
X20332Y12347D01*
X20668D01*
X20695Y12312D01*
X20713Y12275D01*
X20655Y12199D01*
X20615Y12103D01*
X20608Y12050D01*
X21392D01*
X21385Y12103D01*
X21345Y12199D01*
X21287Y12275D01*
X21305Y12312D01*
X21332Y12347D01*
X21668D01*
X21695Y12312D01*
X21713Y12275D01*
X21655Y12199D01*
X21615Y12103D01*
X21608Y12050D01*
X22392D01*
X22385Y12103D01*
X22345Y12199D01*
X22287Y12275D01*
X22305Y12312D01*
X22332Y12347D01*
X22668D01*
X22695Y12312D01*
X22713Y12275D01*
X22655Y12199D01*
X22615Y12103D01*
X22608Y12050D01*
X23392D01*
X23385Y12103D01*
X23345Y12199D01*
X23287Y12275D01*
X23305Y12312D01*
X23332Y12347D01*
X23668D01*
X23695Y12312D01*
X23713Y12275D01*
X23655Y12199D01*
X23615Y12103D01*
X23608Y12050D01*
X24392D01*
X24385Y12103D01*
X24345Y12199D01*
X24287Y12275D01*
X24305Y12312D01*
X24332Y12347D01*
X24605D01*
Y12050D01*
X25395D01*
Y12347D01*
X26668D01*
X26695Y12312D01*
X26713Y12275D01*
X26655Y12199D01*
X26615Y12103D01*
X26608Y12050D01*
X27392D01*
X27385Y12103D01*
X27345Y12199D01*
X27287Y12275D01*
X27305Y12312D01*
X27332Y12347D01*
X27668D01*
X27695Y12312D01*
X27713Y12275D01*
X27655Y12199D01*
X27615Y12103D01*
X27608Y12050D01*
X28392D01*
X28385Y12103D01*
X28345Y12199D01*
X28287Y12275D01*
X28305Y12312D01*
X28332Y12347D01*
X28668D01*
X28695Y12312D01*
X28713Y12275D01*
X28655Y12199D01*
X28615Y12103D01*
X28608Y12050D01*
X29392D01*
X29385Y12103D01*
X29345Y12199D01*
X29287Y12275D01*
X29305Y12312D01*
X29332Y12347D01*
X29668D01*
X29695Y12312D01*
X29713Y12275D01*
X29655Y12199D01*
X29615Y12103D01*
X29608Y12050D01*
X30392D01*
X30385Y12103D01*
X30345Y12199D01*
X30287Y12275D01*
X30305Y12312D01*
X30332Y12347D01*
X30668D01*
X30695Y12312D01*
X30713Y12275D01*
X30655Y12199D01*
X30615Y12103D01*
X30608Y12050D01*
X31392D01*
X31385Y12103D01*
X31345Y12199D01*
X31287Y12275D01*
X31305Y12312D01*
X31332Y12347D01*
X31668D01*
X31695Y12312D01*
X31713Y12275D01*
X31655Y12199D01*
X31615Y12103D01*
X31608Y12050D01*
X32392D01*
X32385Y12103D01*
X32345Y12199D01*
X32287Y12275D01*
X32305Y12312D01*
X32332Y12347D01*
X32668D01*
X32695Y12312D01*
X32713Y12275D01*
X32655Y12199D01*
X32615Y12103D01*
X32608Y12050D01*
X33392D01*
X33385Y12103D01*
X33345Y12199D01*
X33287Y12275D01*
X33305Y12312D01*
X33332Y12347D01*
X33605D01*
Y12050D01*
X34395D01*
Y12347D01*
X38600D01*
X38607Y12348D01*
X38696Y12331D01*
X38777Y12277D01*
X38831Y12196D01*
X38848Y12107D01*
X38847Y12100D01*
X38847D01*
X38847Y12100D01*
Y5400D01*
X38831Y5380D01*
X37401D01*
X37400Y-8607D01*
X37366Y-8628D01*
X37238Y-8738D01*
X37128Y-8866D01*
X37039Y-9011D01*
X36975Y-9167D01*
X36935Y-9331D01*
X36922Y-9500D01*
X36935Y-9669D01*
X36975Y-9833D01*
X37039Y-9989D01*
X37128Y-10134D01*
X37238Y-10262D01*
X37366Y-10372D01*
X37400Y-10393D01*
X37400Y-12347D01*
X25332D01*
X25305Y-12312D01*
X25287Y-12275D01*
X25345Y-12199D01*
X25385Y-12103D01*
X25392Y-12050D01*
X24608D01*
X24615Y-12103D01*
X24655Y-12199D01*
X24713Y-12275D01*
X24695Y-12312D01*
X24668Y-12347D01*
X24332D01*
X24305Y-12312D01*
X24287Y-12275D01*
X24345Y-12199D01*
X24385Y-12103D01*
X24392Y-12050D01*
X23608D01*
X23615Y-12103D01*
X23655Y-12199D01*
X23713Y-12275D01*
X23695Y-12312D01*
X23668Y-12347D01*
X23332D01*
X23305Y-12312D01*
X23287Y-12275D01*
X23345Y-12199D01*
X23385Y-12103D01*
X23392Y-12050D01*
X22608D01*
X22615Y-12103D01*
X22655Y-12199D01*
X22713Y-12275D01*
X22695Y-12312D01*
X22668Y-12347D01*
X22332D01*
X22305Y-12312D01*
X22287Y-12275D01*
X22345Y-12199D01*
X22385Y-12103D01*
X22392Y-12050D01*
X21608D01*
X21615Y-12103D01*
X21655Y-12199D01*
X21713Y-12275D01*
X21695Y-12312D01*
X21668Y-12347D01*
X21332D01*
X21305Y-12312D01*
X21287Y-12275D01*
X21345Y-12199D01*
X21385Y-12103D01*
X21392Y-12050D01*
X20608D01*
X20615Y-12103D01*
X20655Y-12199D01*
X20713Y-12275D01*
X20695Y-12312D01*
X20668Y-12347D01*
X20395D01*
Y-12050D01*
X19605D01*
Y-12347D01*
X18332D01*
X18305Y-12312D01*
X18287Y-12275D01*
X18345Y-12199D01*
X18385Y-12103D01*
X18392Y-12050D01*
X17608D01*
X17615Y-12103D01*
X17655Y-12199D01*
X17713Y-12275D01*
X17695Y-12312D01*
X17668Y-12347D01*
X17332D01*
X17305Y-12312D01*
X17287Y-12275D01*
X17345Y-12199D01*
X17385Y-12103D01*
X17392Y-12050D01*
X16608D01*
X16615Y-12103D01*
X16655Y-12199D01*
X16713Y-12275D01*
X16695Y-12312D01*
X16668Y-12347D01*
X16332D01*
X16305Y-12312D01*
X16287Y-12275D01*
X16345Y-12199D01*
X16385Y-12103D01*
X16392Y-12050D01*
X15608D01*
X15615Y-12103D01*
X15655Y-12199D01*
X15713Y-12275D01*
X15695Y-12312D01*
X15668Y-12347D01*
X15332D01*
X15305Y-12312D01*
X15287Y-12275D01*
X15345Y-12199D01*
X15385Y-12103D01*
X15392Y-12050D01*
X14608D01*
X14615Y-12103D01*
X14655Y-12199D01*
X14713Y-12275D01*
X14695Y-12312D01*
X14668Y-12347D01*
X14332D01*
X14305Y-12312D01*
X14287Y-12275D01*
X14345Y-12199D01*
X14385Y-12103D01*
X14392Y-12050D01*
X13608D01*
X13615Y-12103D01*
X13655Y-12199D01*
X13713Y-12275D01*
X13695Y-12312D01*
X13668Y-12347D01*
X13332D01*
X13305Y-12312D01*
X13287Y-12275D01*
X13345Y-12199D01*
X13385Y-12103D01*
X13392Y-12050D01*
X12608D01*
X12615Y-12103D01*
X12655Y-12199D01*
X12713Y-12275D01*
X12695Y-12312D01*
X12668Y-12347D01*
X12332D01*
X12305Y-12312D01*
X12287Y-12275D01*
X12345Y-12199D01*
X12385Y-12103D01*
X12392Y-12050D01*
X11608D01*
X11615Y-12103D01*
X11655Y-12199D01*
X11713Y-12275D01*
X11695Y-12312D01*
X11668Y-12347D01*
X11395D01*
Y-12050D01*
X10605D01*
Y-12347D01*
X400D01*
X393Y-12348D01*
X304Y-12331D01*
X223Y-12277D01*
X169Y-12196D01*
X152Y-12107D01*
X153Y-12100D01*
X153Y-1521D01*
X229Y-1495D01*
X230Y-1497D01*
X288Y-1541D01*
X355Y-1569D01*
X427Y-1579D01*
X703D01*
X775Y-1569D01*
X843Y-1541D01*
X901Y-1497D01*
X945Y-1439D01*
X973Y-1372D01*
X983Y-1299D01*
X973Y-1227D01*
X945Y-1159D01*
X901Y-1102D01*
X843Y-1057D01*
X775Y-1029D01*
X703Y-1020D01*
X427D01*
X355Y-1029D01*
X288Y-1057D01*
X230Y-1102D01*
X229Y-1103D01*
X153Y-1077D01*
Y1077D01*
X229Y1103D01*
X230Y1102D01*
X288Y1057D01*
X355Y1029D01*
X427Y1020D01*
X703D01*
X775Y1029D01*
X843Y1057D01*
X901Y1102D01*
X945Y1159D01*
X973Y1227D01*
X983Y1299D01*
X973Y1372D01*
X945Y1439D01*
X901Y1497D01*
X843Y1541D01*
X775Y1569D01*
X703Y1579D01*
X427D01*
X355Y1569D01*
X288Y1541D01*
X230Y1497D01*
X229Y1495D01*
X153Y1521D01*
X153Y12110D01*
X152Y12114D01*
X169Y12199D01*
X222Y12278D01*
X301Y12331D01*
X391Y12349D01*
X398Y12347D01*
D02*
G37*
%LPC*%
G36*
X8683Y-4983D02*
X8598Y-5000D01*
X8525Y-5048D01*
X8507D01*
X8435Y-5000D01*
X8349Y-4983D01*
X8263Y-5000D01*
X8190Y-5048D01*
X8142Y-5121D01*
X8124Y-5207D01*
X8142Y-5293D01*
X8190Y-5365D01*
X8263Y-5414D01*
X8349Y-5431D01*
X8435Y-5414D01*
X8507Y-5365D01*
X8525D01*
X8598Y-5414D01*
X8683Y-5431D01*
X8769Y-5414D01*
X8842Y-5365D01*
X8891Y-5293D01*
X8908Y-5207D01*
X8891Y-5121D01*
X8842Y-5048D01*
X8769Y-5000D01*
X8683Y-4983D01*
D02*
G37*
G36*
X35013Y-3988D02*
X34927Y-4005D01*
X34854Y-4054D01*
X34837Y-4080D01*
X34449D01*
X34431Y-4054D01*
X34358Y-4005D01*
X34273Y-3988D01*
X34187Y-4005D01*
X34114Y-4054D01*
X34065Y-4127D01*
X34048Y-4213D01*
X34065Y-4298D01*
X34114Y-4371D01*
X34187Y-4420D01*
X34273Y-4437D01*
X34358Y-4420D01*
X34431Y-4371D01*
X34449Y-4345D01*
X34837D01*
X34854Y-4371D01*
X34927Y-4420D01*
X35013Y-4437D01*
X35098Y-4420D01*
X35171Y-4371D01*
X35220Y-4298D01*
X35237Y-4213D01*
X35220Y-4127D01*
X35171Y-4054D01*
X35098Y-4005D01*
X35013Y-3988D01*
D02*
G37*
G36*
X16010Y-4666D02*
X15924Y-4683D01*
X15851Y-4731D01*
X15803Y-4804D01*
X15786Y-4890D01*
X15803Y-4976D01*
X15851Y-5049D01*
X15924Y-5097D01*
X16010Y-5114D01*
X16096Y-5097D01*
X16169Y-5049D01*
X16217Y-4976D01*
X16234Y-4890D01*
X16217Y-4804D01*
X16169Y-4731D01*
X16096Y-4683D01*
X16010Y-4666D01*
D02*
G37*
G36*
X14200Y-4896D02*
X14114Y-4913D01*
X14041Y-4961D01*
X13993Y-5034D01*
X13976Y-5120D01*
X13993Y-5206D01*
X14041Y-5279D01*
X14114Y-5327D01*
X14200Y-5344D01*
X14286Y-5327D01*
X14359Y-5279D01*
X14407Y-5206D01*
X14424Y-5120D01*
X14407Y-5034D01*
X14359Y-4961D01*
X14286Y-4913D01*
X14200Y-4896D01*
D02*
G37*
G36*
X1710Y-3326D02*
X1624Y-3343D01*
X1551Y-3391D01*
X1503Y-3464D01*
X1486Y-3550D01*
X1503Y-3636D01*
X1551Y-3709D01*
X1624Y-3757D01*
X1710Y-3774D01*
X1796Y-3757D01*
X1869Y-3709D01*
X1917Y-3636D01*
X1934Y-3550D01*
X1917Y-3464D01*
X1869Y-3391D01*
X1796Y-3343D01*
X1710Y-3326D01*
D02*
G37*
G36*
X16556Y-1256D02*
X16470Y-1273D01*
X16397Y-1321D01*
X16349Y-1394D01*
X16332Y-1480D01*
X16349Y-1566D01*
X16397Y-1639D01*
X16470Y-1687D01*
X16556Y-1704D01*
X16642Y-1687D01*
X16715Y-1639D01*
X16763Y-1566D01*
X16780Y-1480D01*
X16763Y-1394D01*
X16715Y-1321D01*
X16642Y-1273D01*
X16556Y-1256D01*
D02*
G37*
G36*
X24975Y-199D02*
X23901D01*
Y-801D01*
X23901Y-801D01*
X23901D01*
X23898Y-816D01*
X23812Y-833D01*
X23739Y-881D01*
X23691Y-954D01*
X23673Y-1040D01*
X23680Y-1071D01*
X23166Y-1584D01*
X23138Y-1627D01*
X23127Y-1678D01*
Y-2964D01*
X23101Y-2981D01*
X23053Y-3054D01*
X23036Y-3140D01*
X23053Y-3226D01*
X23101Y-3299D01*
X23127Y-3316D01*
Y-4254D01*
X23101Y-4271D01*
X23053Y-4344D01*
X23036Y-4430D01*
X23053Y-4516D01*
X23101Y-4589D01*
X23174Y-4637D01*
X23260Y-4654D01*
X23346Y-4637D01*
X23419Y-4589D01*
X23467Y-4516D01*
X23484Y-4430D01*
X23467Y-4344D01*
X23419Y-4271D01*
X23393Y-4254D01*
Y-3316D01*
X23419Y-3299D01*
X23467Y-3226D01*
X23484Y-3140D01*
X23467Y-3054D01*
X23419Y-2981D01*
X23393Y-2964D01*
Y-1733D01*
X23867Y-1258D01*
X23898Y-1264D01*
X23984Y-1247D01*
X24056Y-1199D01*
X24105Y-1126D01*
X24122Y-1040D01*
X24116Y-1009D01*
X24324Y-801D01*
X24975D01*
Y-199D01*
D02*
G37*
G36*
X10536Y-2486D02*
X10450Y-2503D01*
X10377Y-2551D01*
X10374Y-2557D01*
X9348D01*
X9345Y-2551D01*
X9272Y-2503D01*
X9186Y-2486D01*
X9100Y-2503D01*
X9027Y-2551D01*
X8979Y-2624D01*
X8962Y-2710D01*
X8979Y-2796D01*
X9022Y-2860D01*
X8979Y-2924D01*
X8962Y-3010D01*
X8979Y-3096D01*
X9027Y-3169D01*
X9100Y-3217D01*
X9186Y-3234D01*
X9272Y-3217D01*
X9345Y-3169D01*
X9348Y-3163D01*
X10364D01*
X10367Y-3169D01*
X10440Y-3217D01*
X10526Y-3234D01*
X10612Y-3217D01*
X10685Y-3169D01*
X10733Y-3096D01*
X10750Y-3010D01*
X10733Y-2924D01*
X10695Y-2867D01*
X10743Y-2796D01*
X10760Y-2710D01*
X10743Y-2624D01*
X10695Y-2551D01*
X10622Y-2503D01*
X10536Y-2486D01*
D02*
G37*
G36*
X14696Y-3656D02*
X14610Y-3673D01*
X14537Y-3721D01*
X14520Y-3747D01*
X14162D01*
X14145Y-3721D01*
X14072Y-3673D01*
X13986Y-3656D01*
X13900Y-3673D01*
X13827Y-3721D01*
X13779Y-3794D01*
X13762Y-3880D01*
X13779Y-3966D01*
X13827Y-4039D01*
X13900Y-4087D01*
X13986Y-4104D01*
X14072Y-4087D01*
X14145Y-4039D01*
X14162Y-4013D01*
X14520D01*
X14537Y-4039D01*
X14610Y-4087D01*
X14696Y-4104D01*
X14782Y-4087D01*
X14855Y-4039D01*
X14903Y-3966D01*
X14920Y-3880D01*
X14903Y-3794D01*
X14855Y-3721D01*
X14782Y-3673D01*
X14696Y-3656D01*
D02*
G37*
G36*
X26310Y-2156D02*
X26224Y-2173D01*
X26151Y-2221D01*
X26103Y-2294D01*
X26086Y-2380D01*
X26103Y-2466D01*
X26151Y-2539D01*
X26224Y-2587D01*
X26310Y-2604D01*
X26396Y-2587D01*
X26469Y-2539D01*
X26517Y-2466D01*
X26534Y-2380D01*
X26517Y-2294D01*
X26469Y-2221D01*
X26396Y-2173D01*
X26310Y-2156D01*
D02*
G37*
G36*
X5599Y-3762D02*
X3399D01*
Y-5381D01*
X3319Y-5386D01*
X3319Y-5382D01*
X3273Y-5273D01*
X3201Y-5179D01*
X3107Y-5107D01*
X2998Y-5061D01*
X2880Y-5046D01*
X2762Y-5061D01*
X2653Y-5107D01*
X2559Y-5179D01*
X2486Y-5273D01*
X2441Y-5382D01*
X2426Y-5500D01*
X2441Y-5618D01*
X2486Y-5727D01*
X2559Y-5821D01*
X2653Y-5893D01*
X2762Y-5939D01*
X2880Y-5954D01*
X2998Y-5939D01*
X3107Y-5893D01*
X3201Y-5821D01*
X3273Y-5727D01*
X3319Y-5618D01*
X3319Y-5614D01*
X3399Y-5619D01*
Y-5962D01*
X3821D01*
Y-6804D01*
X3838Y-6892D01*
X3888Y-6966D01*
X3962Y-7016D01*
X4050Y-7034D01*
X4138Y-7016D01*
X4212Y-6966D01*
X4262Y-6892D01*
X4279Y-6804D01*
Y-5962D01*
X5218D01*
X5818Y-6562D01*
X5892Y-6612D01*
X5980Y-6629D01*
X6068Y-6612D01*
X6142Y-6562D01*
X6192Y-6488D01*
X6209Y-6400D01*
X6192Y-6312D01*
X6142Y-6238D01*
X5971Y-6066D01*
X5994Y-5990D01*
X6006Y-5987D01*
X6079Y-5939D01*
X6127Y-5866D01*
X6144Y-5780D01*
X6127Y-5694D01*
X6079Y-5621D01*
X6006Y-5573D01*
X5920Y-5556D01*
X5834Y-5573D01*
X5761Y-5621D01*
X5713Y-5694D01*
X5710Y-5706D01*
X5663Y-5720D01*
X5599Y-5673D01*
Y-4775D01*
X5862Y-4512D01*
X5912Y-4438D01*
X5929Y-4350D01*
X5912Y-4262D01*
X5862Y-4188D01*
X5788Y-4138D01*
X5700Y-4121D01*
X5661Y-4128D01*
X5599Y-4078D01*
Y-3762D01*
D02*
G37*
G36*
X15950Y-8392D02*
X15699D01*
Y-8873D01*
X15950D01*
Y-8392D01*
D02*
G37*
G36*
X16301D02*
X16050D01*
Y-8873D01*
X16301D01*
Y-8392D01*
D02*
G37*
G36*
X27050Y-9108D02*
Y-9450D01*
X27392D01*
X27385Y-9397D01*
X27345Y-9301D01*
X27282Y-9218D01*
X27199Y-9155D01*
X27103Y-9115D01*
X27050Y-9108D01*
D02*
G37*
G36*
X17301Y-8973D02*
X17050D01*
Y-9454D01*
X17301D01*
Y-8973D01*
D02*
G37*
G36*
X26950Y-9108D02*
X26897Y-9115D01*
X26801Y-9155D01*
X26718Y-9218D01*
X26655Y-9301D01*
X26615Y-9397D01*
X26608Y-9450D01*
X26950D01*
Y-9108D01*
D02*
G37*
G36*
X16950Y-8392D02*
X16699D01*
Y-8873D01*
X16950D01*
Y-8392D01*
D02*
G37*
G36*
X10364Y-5273D02*
X10278Y-5291D01*
X10205Y-5339D01*
X10157Y-5412D01*
X10140Y-5498D01*
X10157Y-5584D01*
X10205Y-5656D01*
X10278Y-5705D01*
X10364Y-5722D01*
X10450Y-5705D01*
X10522Y-5656D01*
X10571Y-5584D01*
X10588Y-5498D01*
X10571Y-5412D01*
X10522Y-5339D01*
X10450Y-5291D01*
X10364Y-5273D01*
D02*
G37*
G36*
X11036Y-5086D02*
X10950Y-5103D01*
X10877Y-5151D01*
X10829Y-5224D01*
X10812Y-5310D01*
X10829Y-5396D01*
X10877Y-5469D01*
X10950Y-5517D01*
X11036Y-5534D01*
X11122Y-5517D01*
X11195Y-5469D01*
X11243Y-5396D01*
X11260Y-5310D01*
X11243Y-5224D01*
X11195Y-5151D01*
X11122Y-5103D01*
X11036Y-5086D01*
D02*
G37*
G36*
X20520Y-5846D02*
X20434Y-5863D01*
X20361Y-5911D01*
X20313Y-5984D01*
X20296Y-6070D01*
X20313Y-6156D01*
X20361Y-6229D01*
X20434Y-6277D01*
X20520Y-6294D01*
X20606Y-6277D01*
X20679Y-6229D01*
X20727Y-6156D01*
X20744Y-6070D01*
X20727Y-5984D01*
X20679Y-5911D01*
X20606Y-5863D01*
X20520Y-5846D01*
D02*
G37*
G36*
X17301Y-8392D02*
X17050D01*
Y-8873D01*
X17301D01*
Y-8392D01*
D02*
G37*
G36*
X15406Y-5205D02*
X15321Y-5222D01*
X15248Y-5271D01*
X15199Y-5344D01*
X15182Y-5430D01*
X15199Y-5516D01*
X15248Y-5588D01*
X15321Y-5637D01*
X15337Y-5640D01*
Y-7154D01*
X15311Y-7171D01*
X15263Y-7244D01*
X15246Y-7330D01*
X15263Y-7416D01*
X15311Y-7489D01*
X15367Y-7525D01*
X15374Y-7605D01*
X15064Y-7915D01*
X4456D01*
X4114Y-7574D01*
X4032Y-7519D01*
X3934Y-7499D01*
X3164D01*
X3067Y-7519D01*
X2984Y-7574D01*
X2929Y-7657D01*
X2909Y-7754D01*
X2929Y-7852D01*
X2984Y-7934D01*
X3067Y-7990D01*
X3164Y-8009D01*
X3829D01*
X4170Y-8350D01*
X4252Y-8405D01*
X4350Y-8425D01*
X5082D01*
X5097Y-8503D01*
X5010Y-8539D01*
X4866Y-8628D01*
X4738Y-8738D01*
X4628Y-8866D01*
X4539Y-9011D01*
X4475Y-9167D01*
X4435Y-9331D01*
X4422Y-9500D01*
X4435Y-9669D01*
X4475Y-9833D01*
X4539Y-9989D01*
X4628Y-10134D01*
X4692Y-10209D01*
X4645Y-10273D01*
X4629Y-10267D01*
X4500Y-10250D01*
X4371Y-10267D01*
X4250Y-10317D01*
X4146Y-10396D01*
X4067Y-10500D01*
X4017Y-10621D01*
X4000Y-10750D01*
X4017Y-10879D01*
X4067Y-11000D01*
X4146Y-11104D01*
X4250Y-11183D01*
X4371Y-11233D01*
X4500Y-11250D01*
X4629Y-11233D01*
X4750Y-11183D01*
X4854Y-11104D01*
X4933Y-11000D01*
X4983Y-10879D01*
X5000Y-10750D01*
X4983Y-10621D01*
X4934Y-10503D01*
X4983Y-10462D01*
X4996Y-10452D01*
X5010Y-10461D01*
X5167Y-10525D01*
X5331Y-10565D01*
X5500Y-10578D01*
X5669Y-10565D01*
X5833Y-10525D01*
X5989Y-10461D01*
X6134Y-10372D01*
X6262Y-10262D01*
X6372Y-10134D01*
X6461Y-9989D01*
X6525Y-9833D01*
X6565Y-9669D01*
X6578Y-9500D01*
X6565Y-9331D01*
X6525Y-9167D01*
X6461Y-9011D01*
X6372Y-8866D01*
X6262Y-8738D01*
X6134Y-8628D01*
X5989Y-8539D01*
X5903Y-8503D01*
X5918Y-8425D01*
X10699D01*
Y-9454D01*
X10745D01*
Y-9546D01*
X10699D01*
Y-10608D01*
X10737D01*
X10763Y-10684D01*
X10718Y-10718D01*
X10655Y-10801D01*
X10615Y-10897D01*
X10601Y-11000D01*
X10615Y-11103D01*
X10655Y-11199D01*
X10718Y-11282D01*
X10801Y-11345D01*
X10897Y-11385D01*
X11000Y-11399D01*
X11103Y-11385D01*
X11199Y-11345D01*
X11282Y-11282D01*
X11345Y-11199D01*
X11385Y-11103D01*
X11399Y-11000D01*
X11385Y-10897D01*
X11345Y-10801D01*
X11282Y-10718D01*
X11237Y-10684D01*
X11263Y-10608D01*
X11301D01*
Y-9546D01*
X11255D01*
Y-9454D01*
X11301D01*
Y-8425D01*
X11699D01*
Y-9454D01*
X11745D01*
Y-9546D01*
X11699D01*
Y-10608D01*
X11737D01*
X11763Y-10684D01*
X11718Y-10718D01*
X11655Y-10801D01*
X11615Y-10897D01*
X11601Y-11000D01*
X11615Y-11103D01*
X11655Y-11199D01*
X11718Y-11282D01*
X11801Y-11345D01*
X11897Y-11385D01*
X12000Y-11399D01*
X12103Y-11385D01*
X12199Y-11345D01*
X12282Y-11282D01*
X12345Y-11199D01*
X12385Y-11103D01*
X12399Y-11000D01*
X12385Y-10897D01*
X12345Y-10801D01*
X12282Y-10718D01*
X12237Y-10684D01*
X12263Y-10608D01*
X12301D01*
Y-9546D01*
X12255D01*
Y-9454D01*
X12301D01*
Y-8425D01*
X12699D01*
Y-9454D01*
X12720D01*
X12741Y-9500D01*
X12720Y-9546D01*
X12699D01*
Y-10608D01*
X12737D01*
X12763Y-10684D01*
X12718Y-10718D01*
X12655Y-10801D01*
X12615Y-10897D01*
X12601Y-11000D01*
X12615Y-11103D01*
X12655Y-11199D01*
X12718Y-11282D01*
X12801Y-11345D01*
X12897Y-11385D01*
X13000Y-11399D01*
X13103Y-11385D01*
X13199Y-11345D01*
X13282Y-11282D01*
X13345Y-11199D01*
X13385Y-11103D01*
X13399Y-11000D01*
X13385Y-10897D01*
X13345Y-10801D01*
X13282Y-10718D01*
X13237Y-10684D01*
X13263Y-10608D01*
X13301D01*
Y-9546D01*
X13280D01*
X13259Y-9500D01*
X13280Y-9454D01*
X13301D01*
Y-8425D01*
X13699D01*
Y-9454D01*
X13745D01*
Y-9546D01*
X13699D01*
Y-10608D01*
X13737D01*
X13763Y-10684D01*
X13718Y-10718D01*
X13655Y-10801D01*
X13615Y-10897D01*
X13601Y-11000D01*
X13615Y-11103D01*
X13655Y-11199D01*
X13718Y-11282D01*
X13801Y-11345D01*
X13897Y-11385D01*
X14000Y-11399D01*
X14103Y-11385D01*
X14199Y-11345D01*
X14282Y-11282D01*
X14345Y-11199D01*
X14385Y-11103D01*
X14399Y-11000D01*
X14385Y-10897D01*
X14345Y-10801D01*
X14282Y-10718D01*
X14237Y-10684D01*
X14263Y-10608D01*
X14301D01*
Y-9546D01*
X14255D01*
Y-9454D01*
X14301D01*
Y-8689D01*
X14375Y-8658D01*
X14699Y-8983D01*
Y-9454D01*
X14745D01*
Y-9500D01*
Y-9546D01*
X14699D01*
Y-10608D01*
X14737D01*
X14763Y-10684D01*
X14718Y-10718D01*
X14655Y-10801D01*
X14615Y-10897D01*
X14601Y-11000D01*
X14615Y-11103D01*
X14655Y-11199D01*
X14718Y-11282D01*
X14801Y-11345D01*
X14897Y-11385D01*
X15000Y-11399D01*
X15103Y-11385D01*
X15199Y-11345D01*
X15282Y-11282D01*
X15345Y-11199D01*
X15385Y-11103D01*
X15399Y-11000D01*
X15385Y-10897D01*
X15345Y-10801D01*
X15282Y-10718D01*
X15237Y-10684D01*
X15263Y-10608D01*
X15301D01*
Y-9546D01*
X15255D01*
Y-9500D01*
Y-9454D01*
X15301D01*
Y-8392D01*
X15301Y-8392D01*
X15301D01*
X15299Y-8385D01*
X15350Y-8350D01*
X16026Y-7675D01*
X16380D01*
X16478Y-7655D01*
X16560Y-7600D01*
X16616Y-7518D01*
X16635Y-7420D01*
X16616Y-7322D01*
X16560Y-7240D01*
X16478Y-7185D01*
X16380Y-7165D01*
X15920D01*
X15822Y-7185D01*
X15742Y-7239D01*
X15663Y-7223D01*
X15629Y-7171D01*
X15603Y-7154D01*
Y-5532D01*
X15614Y-5516D01*
X15631Y-5430D01*
X15614Y-5344D01*
X15565Y-5271D01*
X15492Y-5222D01*
X15406Y-5205D01*
D02*
G37*
G36*
X26612Y-550D02*
X26125D01*
Y-801D01*
X26612D01*
Y-550D01*
D02*
G37*
G36*
X6850Y5314D02*
X6764Y5297D01*
X6691Y5249D01*
X6643Y5176D01*
X6626Y5090D01*
X6643Y5004D01*
X6691Y4931D01*
X6764Y4883D01*
X6850Y4866D01*
X6936Y4883D01*
X7009Y4931D01*
X7057Y5004D01*
X7074Y5090D01*
X7057Y5176D01*
X7009Y5249D01*
X6936Y5297D01*
X6850Y5314D01*
D02*
G37*
G36*
X8400Y5724D02*
X8314Y5707D01*
X8241Y5659D01*
X8193Y5586D01*
X8176Y5500D01*
X8193Y5414D01*
X8241Y5341D01*
X8314Y5293D01*
X8400Y5276D01*
X8486Y5293D01*
X8559Y5341D01*
X8607Y5414D01*
X8624Y5500D01*
X8607Y5586D01*
X8559Y5659D01*
X8486Y5707D01*
X8400Y5724D01*
D02*
G37*
G36*
X17027Y4864D02*
X16941Y4847D01*
X16868Y4799D01*
X16820Y4726D01*
X16803Y4640D01*
X16820Y4554D01*
X16868Y4481D01*
X16885Y4470D01*
Y4390D01*
X16868Y4379D01*
X16820Y4306D01*
X16803Y4220D01*
X16820Y4134D01*
X16868Y4061D01*
X16885Y4050D01*
Y3970D01*
X16868Y3959D01*
X16820Y3886D01*
X16803Y3800D01*
X16820Y3714D01*
X16868Y3641D01*
X16941Y3593D01*
X17027Y3576D01*
X17113Y3593D01*
X17185Y3641D01*
X17234Y3714D01*
X17251Y3800D01*
X17234Y3886D01*
X17185Y3959D01*
X17168Y3970D01*
Y4050D01*
X17185Y4061D01*
X17234Y4134D01*
X17242Y4172D01*
X17308Y4216D01*
X17360Y4206D01*
X17446Y4223D01*
X17519Y4271D01*
X17536Y4297D01*
X17685D01*
X17888Y4095D01*
X17850Y4024D01*
X17800Y4034D01*
X17714Y4017D01*
X17641Y3969D01*
X17593Y3896D01*
X17576Y3810D01*
X17593Y3724D01*
X17641Y3651D01*
X17666Y3635D01*
Y3555D01*
X17641Y3539D01*
X17593Y3466D01*
X17576Y3380D01*
X17593Y3294D01*
X17641Y3221D01*
X17714Y3173D01*
X17800Y3156D01*
X17876Y3171D01*
X17937Y3120D01*
Y1766D01*
X17911Y1749D01*
X17863Y1676D01*
X17846Y1590D01*
X17863Y1504D01*
X17911Y1431D01*
X17984Y1383D01*
X18070Y1366D01*
X18156Y1383D01*
X18229Y1431D01*
X18277Y1504D01*
X18294Y1590D01*
X18277Y1676D01*
X18229Y1749D01*
X18203Y1766D01*
Y4100D01*
X18192Y4151D01*
X18164Y4194D01*
X17834Y4524D01*
X17791Y4552D01*
X17740Y4563D01*
X17536D01*
X17519Y4589D01*
X17446Y4637D01*
X17360Y4654D01*
X17274Y4637D01*
X17242Y4685D01*
X17234Y4726D01*
X17185Y4799D01*
X17113Y4847D01*
X17027Y4864D01*
D02*
G37*
G36*
X26000Y4578D02*
X25831Y4565D01*
X25667Y4525D01*
X25510Y4461D01*
X25366Y4372D01*
X25238Y4262D01*
X25128Y4134D01*
X25039Y3990D01*
X24975Y3833D01*
X24935Y3669D01*
X24922Y3500D01*
X24935Y3331D01*
X24975Y3167D01*
X25039Y3011D01*
X25128Y2866D01*
X25238Y2738D01*
X25355Y2638D01*
X25327Y2563D01*
X24836D01*
X24827Y2606D01*
X24779Y2679D01*
X24706Y2727D01*
X24634Y2742D01*
X24617Y2826D01*
X24569Y2899D01*
X24496Y2947D01*
X24410Y2964D01*
X24324Y2947D01*
X24251Y2899D01*
X24240Y2882D01*
X24160D01*
X24149Y2899D01*
X24076Y2947D01*
X23990Y2964D01*
X23904Y2947D01*
X23831Y2899D01*
X23783Y2826D01*
X23766Y2742D01*
X23694Y2727D01*
X23621Y2679D01*
X23573Y2606D01*
X23556Y2520D01*
X23573Y2434D01*
X23621Y2361D01*
X23694Y2313D01*
X23768Y2298D01*
X24191Y1875D01*
X24161Y1801D01*
X23901D01*
Y1199D01*
X24537D01*
X24575Y1129D01*
X24553Y1096D01*
X24536Y1010D01*
X24553Y924D01*
X24588Y871D01*
X24550Y801D01*
X23901D01*
Y199D01*
X24975D01*
Y794D01*
X25045Y832D01*
X25074Y813D01*
X25160Y796D01*
X25246Y813D01*
X25319Y861D01*
X25332Y881D01*
X25391D01*
X25464Y833D01*
X25550Y816D01*
X25581Y822D01*
X25996Y406D01*
X26039Y378D01*
X26090Y367D01*
X26125D01*
Y199D01*
X27199D01*
Y801D01*
X26913D01*
X26875Y871D01*
X26898Y905D01*
X26917Y1002D01*
Y1199D01*
X27199D01*
Y1761D01*
X27199D01*
X27199Y1761D01*
X27199Y1801D01*
X27216Y1817D01*
X28775D01*
X29124Y1468D01*
X29083Y1406D01*
X29066Y1320D01*
X29083Y1234D01*
X29128Y1166D01*
X29083Y1098D01*
X29066Y1013D01*
X29083Y927D01*
X29126Y863D01*
X29083Y798D01*
X29066Y713D01*
X29083Y627D01*
X29090Y616D01*
X29052Y545D01*
X28974D01*
X28923Y535D01*
X28880Y506D01*
X26696Y-1678D01*
X26668Y-1721D01*
X26657Y-1771D01*
Y-5167D01*
X26367Y-5457D01*
X23333D01*
X23283Y-5468D01*
X23240Y-5496D01*
X20331Y-8405D01*
X20301Y-8392D01*
Y-8392D01*
X20301Y-8392D01*
X19699D01*
Y-9454D01*
X19720D01*
X19741Y-9500D01*
X19720Y-9546D01*
X19699D01*
Y-10608D01*
X19737D01*
X19763Y-10684D01*
X19718Y-10718D01*
X19655Y-10801D01*
X19615Y-10897D01*
X19601Y-11000D01*
X19615Y-11103D01*
X19655Y-11199D01*
X19718Y-11282D01*
X19801Y-11345D01*
X19897Y-11385D01*
X20000Y-11399D01*
X20103Y-11385D01*
X20199Y-11345D01*
X20282Y-11282D01*
X20345Y-11199D01*
X20385Y-11103D01*
X20399Y-11000D01*
X20385Y-10897D01*
X20345Y-10801D01*
X20282Y-10718D01*
X20237Y-10684D01*
X20263Y-10608D01*
X20301D01*
Y-9546D01*
X20280D01*
X20259Y-9500D01*
X20280Y-9454D01*
X20301D01*
Y-8810D01*
X20625Y-8485D01*
X20699Y-8516D01*
Y-9454D01*
X20720D01*
X20741Y-9500D01*
X20720Y-9546D01*
X20699D01*
Y-10608D01*
X20737D01*
X20763Y-10684D01*
X20718Y-10718D01*
X20655Y-10801D01*
X20615Y-10897D01*
X20601Y-11000D01*
X20615Y-11103D01*
X20655Y-11199D01*
X20718Y-11282D01*
X20801Y-11345D01*
X20897Y-11385D01*
X21000Y-11399D01*
X21103Y-11385D01*
X21199Y-11345D01*
X21282Y-11282D01*
X21345Y-11199D01*
X21385Y-11103D01*
X21399Y-11000D01*
X21385Y-10897D01*
X21345Y-10801D01*
X21282Y-10718D01*
X21237Y-10684D01*
X21263Y-10608D01*
X21301D01*
Y-9546D01*
X21280D01*
X21259Y-9500D01*
X21280Y-9454D01*
X21301D01*
Y-8810D01*
X21625Y-8485D01*
X21699Y-8516D01*
Y-9454D01*
X21720D01*
X21741Y-9500D01*
X21720Y-9546D01*
X21699D01*
Y-10608D01*
X21737D01*
X21763Y-10684D01*
X21718Y-10718D01*
X21655Y-10801D01*
X21615Y-10897D01*
X21601Y-11000D01*
X21615Y-11103D01*
X21655Y-11199D01*
X21718Y-11282D01*
X21801Y-11345D01*
X21897Y-11385D01*
X22000Y-11399D01*
X22103Y-11385D01*
X22199Y-11345D01*
X22282Y-11282D01*
X22345Y-11199D01*
X22385Y-11103D01*
X22399Y-11000D01*
X22385Y-10897D01*
X22345Y-10801D01*
X22282Y-10718D01*
X22237Y-10684D01*
X22263Y-10608D01*
X22301D01*
Y-9546D01*
X22280D01*
X22259Y-9500D01*
X22280Y-9454D01*
X22301D01*
Y-8810D01*
X22625Y-8485D01*
X22699Y-8516D01*
Y-9454D01*
X22720D01*
X22741Y-9500D01*
X22720Y-9546D01*
X22699D01*
Y-10608D01*
X22737D01*
X22763Y-10684D01*
X22718Y-10718D01*
X22655Y-10801D01*
X22615Y-10897D01*
X22601Y-11000D01*
X22615Y-11103D01*
X22655Y-11199D01*
X22718Y-11282D01*
X22801Y-11345D01*
X22897Y-11385D01*
X23000Y-11399D01*
X23103Y-11385D01*
X23199Y-11345D01*
X23282Y-11282D01*
X23345Y-11199D01*
X23385Y-11103D01*
X23399Y-11000D01*
X23385Y-10897D01*
X23345Y-10801D01*
X23282Y-10718D01*
X23237Y-10684D01*
X23263Y-10608D01*
X23301D01*
Y-9546D01*
X23280D01*
X23259Y-9500D01*
X23280Y-9454D01*
X23301D01*
Y-8810D01*
X23331Y-8779D01*
X23360Y-8736D01*
X23362Y-8726D01*
X23625Y-8463D01*
X23699Y-8493D01*
Y-9454D01*
X23720D01*
X23741Y-9500D01*
X23720Y-9546D01*
X23699D01*
Y-10608D01*
X23737D01*
X23763Y-10684D01*
X23718Y-10718D01*
X23655Y-10801D01*
X23615Y-10897D01*
X23601Y-11000D01*
X23615Y-11103D01*
X23655Y-11199D01*
X23718Y-11282D01*
X23801Y-11345D01*
X23897Y-11385D01*
X24000Y-11399D01*
X24103Y-11385D01*
X24199Y-11345D01*
X24282Y-11282D01*
X24345Y-11199D01*
X24385Y-11103D01*
X24399Y-11000D01*
X24385Y-10897D01*
X24345Y-10801D01*
X24282Y-10718D01*
X24237Y-10684D01*
X24263Y-10608D01*
X24301D01*
Y-9546D01*
X24280D01*
X24259Y-9500D01*
X24280Y-9454D01*
X24301D01*
Y-8810D01*
X24625Y-8485D01*
X24699Y-8516D01*
Y-9454D01*
X24720D01*
X24741Y-9500D01*
X24720Y-9546D01*
X24699D01*
Y-10608D01*
X24737D01*
X24763Y-10684D01*
X24718Y-10718D01*
X24655Y-10801D01*
X24615Y-10897D01*
X24601Y-11000D01*
X24615Y-11103D01*
X24655Y-11199D01*
X24718Y-11282D01*
X24801Y-11345D01*
X24897Y-11385D01*
X25000Y-11399D01*
X25103Y-11385D01*
X25199Y-11345D01*
X25282Y-11282D01*
X25345Y-11199D01*
X25385Y-11103D01*
X25399Y-11000D01*
X25385Y-10897D01*
X25345Y-10801D01*
X25282Y-10718D01*
X25237Y-10684D01*
X25263Y-10608D01*
X25301D01*
Y-9546D01*
X25280D01*
X25259Y-9500D01*
X25280Y-9454D01*
X25301D01*
Y-8449D01*
X25317Y-8429D01*
X25317D01*
X25358Y-8382D01*
X25358D01*
X25371Y-8375D01*
X25510Y-8461D01*
X25667Y-8525D01*
X25831Y-8565D01*
X26000Y-8578D01*
X26169Y-8565D01*
X26333Y-8525D01*
X26490Y-8461D01*
X26634Y-8372D01*
X26762Y-8262D01*
X26872Y-8134D01*
X26961Y-7989D01*
X27025Y-7833D01*
X27065Y-7669D01*
X27078Y-7500D01*
X27065Y-7331D01*
X27025Y-7167D01*
X26961Y-7011D01*
X26872Y-6866D01*
X26762Y-6738D01*
X26634Y-6628D01*
X26490Y-6539D01*
X26333Y-6475D01*
X26169Y-6435D01*
X26000Y-6422D01*
X25831Y-6435D01*
X25667Y-6475D01*
X25657Y-6479D01*
X25613Y-6412D01*
X25702Y-6323D01*
X26670D01*
X26721Y-6312D01*
X26764Y-6284D01*
X27484Y-5564D01*
X27512Y-5521D01*
X27523Y-5470D01*
Y-4508D01*
X27599Y-4485D01*
X27621Y-4519D01*
X27694Y-4567D01*
X27780Y-4584D01*
X27866Y-4567D01*
X27939Y-4519D01*
X27987Y-4446D01*
X28004Y-4360D01*
X27998Y-4329D01*
X28528Y-3800D01*
X28584Y-3837D01*
X28670Y-3854D01*
X28756Y-3837D01*
X28829Y-3789D01*
X28877Y-3716D01*
X28894Y-3630D01*
X28877Y-3544D01*
X28834Y-3480D01*
X28877Y-3416D01*
X28894Y-3330D01*
X28887Y-3294D01*
X28938Y-3233D01*
X29067D01*
X29117Y-3222D01*
X29160Y-3194D01*
X29739Y-2615D01*
X29767Y-2572D01*
X29778Y-2522D01*
Y-1865D01*
X29767Y-1814D01*
X29739Y-1771D01*
X29508Y-1541D01*
X29514Y-1510D01*
X29497Y-1424D01*
X29449Y-1351D01*
X29430Y-1339D01*
Y-1259D01*
X29449Y-1246D01*
X29497Y-1173D01*
X29514Y-1087D01*
X29497Y-1002D01*
X29454Y-937D01*
X29497Y-873D01*
X29514Y-787D01*
X29497Y-702D01*
X29454Y-637D01*
X29497Y-573D01*
X29514Y-487D01*
X29497Y-402D01*
X29454Y-337D01*
X29497Y-273D01*
X29514Y-187D01*
X29497Y-102D01*
X29454Y-37D01*
X29497Y27D01*
X29514Y113D01*
X29497Y198D01*
X29454Y263D01*
X29497Y327D01*
X29514Y413D01*
X29497Y498D01*
X29454Y563D01*
X29497Y627D01*
X29514Y713D01*
X29508Y746D01*
X29714Y952D01*
X29742Y995D01*
X29753Y1046D01*
Y1499D01*
X29742Y1550D01*
X29714Y1593D01*
X29299Y2007D01*
X29307Y2087D01*
X29329Y2101D01*
X29377Y2174D01*
X29394Y2260D01*
X29377Y2346D01*
X29334Y2410D01*
X29377Y2474D01*
X29394Y2560D01*
X29377Y2646D01*
X29329Y2719D01*
X29256Y2767D01*
X29170Y2784D01*
X29084Y2767D01*
X29011Y2719D01*
X28963Y2646D01*
X28946Y2563D01*
X26673D01*
X26645Y2638D01*
X26762Y2738D01*
X26872Y2866D01*
X26961Y3011D01*
X27025Y3167D01*
X27065Y3331D01*
X27078Y3500D01*
X27065Y3669D01*
X27025Y3833D01*
X26961Y3990D01*
X26872Y4134D01*
X26762Y4262D01*
X26634Y4372D01*
X26490Y4461D01*
X26333Y4525D01*
X26169Y4565D01*
X26000Y4578D01*
D02*
G37*
G36*
X18600Y3298D02*
X18523Y3287D01*
X18451Y3258D01*
X18390Y3210D01*
X18342Y3149D01*
X18313Y3077D01*
X18302Y3000D01*
X18313Y2923D01*
X18342Y2851D01*
X18390Y2790D01*
X18451Y2742D01*
X18523Y2713D01*
X18600Y2702D01*
X18677Y2713D01*
X18749Y2742D01*
X18810Y2790D01*
X18858Y2851D01*
X18887Y2923D01*
X18898Y3000D01*
X18887Y3077D01*
X18858Y3149D01*
X18810Y3210D01*
X18749Y3258D01*
X18677Y3287D01*
X18600Y3298D01*
D02*
G37*
G36*
X35250Y6898D02*
X35164Y6880D01*
X35091Y6832D01*
X35043Y6759D01*
X35026Y6673D01*
X35043Y6587D01*
X35091Y6515D01*
X35164Y6466D01*
X35250Y6449D01*
X35281Y6455D01*
X35767Y5968D01*
Y5712D01*
X35741Y5695D01*
X35693Y5622D01*
X35676Y5536D01*
X35693Y5450D01*
X35741Y5377D01*
X35814Y5329D01*
X35900Y5312D01*
X35986Y5329D01*
X36059Y5377D01*
X36107Y5450D01*
X36124Y5536D01*
X36107Y5622D01*
X36059Y5695D01*
X36033Y5712D01*
Y6023D01*
X36022Y6074D01*
X35994Y6117D01*
X35468Y6642D01*
X35474Y6673D01*
X35457Y6759D01*
X35409Y6832D01*
X35336Y6880D01*
X35250Y6898D01*
D02*
G37*
G36*
X34650Y6744D02*
X34564Y6727D01*
X34491Y6679D01*
X34443Y6606D01*
X34426Y6520D01*
X34443Y6434D01*
X34491Y6361D01*
X34564Y6313D01*
X34650Y6296D01*
X34736Y6313D01*
X34809Y6361D01*
X34857Y6434D01*
X34874Y6520D01*
X34857Y6606D01*
X34809Y6679D01*
X34736Y6727D01*
X34650Y6744D01*
D02*
G37*
G36*
X7400Y7034D02*
X7314Y7017D01*
X7241Y6969D01*
X7193Y6896D01*
X7176Y6810D01*
X7193Y6724D01*
X7241Y6651D01*
X7314Y6603D01*
X7400Y6586D01*
X7486Y6603D01*
X7559Y6651D01*
X7607Y6724D01*
X7624Y6810D01*
X7607Y6896D01*
X7559Y6969D01*
X7486Y7017D01*
X7400Y7034D01*
D02*
G37*
G36*
X32150Y6744D02*
X32064Y6727D01*
X31991Y6679D01*
X31943Y6606D01*
X31926Y6520D01*
X31943Y6434D01*
X31991Y6361D01*
X32064Y6313D01*
X32150Y6296D01*
X32236Y6313D01*
X32309Y6361D01*
X32357Y6434D01*
X32374Y6520D01*
X32357Y6606D01*
X32309Y6679D01*
X32236Y6727D01*
X32150Y6744D01*
D02*
G37*
G36*
X25280Y5664D02*
X25194Y5647D01*
X25121Y5599D01*
X25073Y5526D01*
X25064Y5483D01*
X25010Y5494D01*
X24924Y5477D01*
X24851Y5429D01*
X24803Y5356D01*
X24794Y5314D01*
X24740Y5324D01*
X24654Y5307D01*
X24581Y5259D01*
X24533Y5186D01*
X24516Y5100D01*
X24533Y5014D01*
X24581Y4941D01*
X24654Y4893D01*
X24740Y4876D01*
X24826Y4893D01*
X24878Y4927D01*
X25730D01*
X25780Y4938D01*
X25823Y4966D01*
X25985Y5127D01*
X30545D01*
X31992Y3681D01*
X31986Y3650D01*
X32003Y3564D01*
X32051Y3491D01*
X32124Y3443D01*
X32210Y3426D01*
X32296Y3443D01*
X32369Y3491D01*
X32417Y3564D01*
X32434Y3650D01*
X32417Y3736D01*
X32369Y3809D01*
X32296Y3857D01*
X32210Y3874D01*
X32179Y3868D01*
X30874Y5174D01*
X30905Y5247D01*
X31945D01*
X31981Y5194D01*
X31990Y5177D01*
X31943Y5106D01*
X31926Y5020D01*
X31943Y4934D01*
X31991Y4861D01*
X32064Y4813D01*
X32150Y4796D01*
X32236Y4813D01*
X32309Y4861D01*
X32357Y4934D01*
X32374Y5020D01*
X32357Y5106D01*
X32310Y5177D01*
X32319Y5194D01*
X32355Y5247D01*
X34445D01*
X34481Y5194D01*
X34490Y5177D01*
X34443Y5106D01*
X34426Y5020D01*
X34443Y4934D01*
X34491Y4861D01*
X34564Y4813D01*
X34650Y4796D01*
X34736Y4813D01*
X34809Y4861D01*
X34857Y4934D01*
X34874Y5020D01*
X34857Y5106D01*
X34810Y5177D01*
X34819Y5194D01*
X34822Y5199D01*
X34902Y5207D01*
X35682Y4427D01*
X35676Y4396D01*
X35693Y4310D01*
X35741Y4237D01*
X35814Y4189D01*
X35900Y4172D01*
X35986Y4189D01*
X36059Y4237D01*
X36107Y4310D01*
X36124Y4396D01*
X36107Y4482D01*
X36059Y4555D01*
X35986Y4603D01*
X35900Y4620D01*
X35869Y4614D01*
X35800Y4684D01*
X35838Y4754D01*
X35900Y4742D01*
X35986Y4759D01*
X36059Y4807D01*
X36107Y4880D01*
X36124Y4966D01*
X36107Y5052D01*
X36059Y5125D01*
X35986Y5173D01*
X35900Y5190D01*
X35814Y5173D01*
X35741Y5125D01*
X35724Y5099D01*
X35555D01*
X35059Y5594D01*
X35016Y5622D01*
X34966Y5633D01*
X25830D01*
X25780Y5622D01*
X25737Y5594D01*
X25660Y5517D01*
X25489D01*
X25487Y5526D01*
X25439Y5599D01*
X25366Y5647D01*
X25280Y5664D01*
D02*
G37*
G36*
X5599Y5962D02*
X3399D01*
Y5619D01*
X3319Y5614D01*
X3319Y5618D01*
X3273Y5727D01*
X3201Y5821D01*
X3107Y5893D01*
X2998Y5939D01*
X2880Y5954D01*
X2762Y5939D01*
X2653Y5893D01*
X2559Y5821D01*
X2486Y5727D01*
X2441Y5618D01*
X2426Y5500D01*
X2441Y5382D01*
X2486Y5273D01*
X2559Y5179D01*
X2653Y5107D01*
X2762Y5061D01*
X2880Y5046D01*
X2998Y5061D01*
X3107Y5107D01*
X3201Y5179D01*
X3273Y5273D01*
X3319Y5382D01*
X3319Y5386D01*
X3399Y5381D01*
Y3762D01*
X5599D01*
Y4261D01*
X5720D01*
X5808Y4278D01*
X5882Y4328D01*
X5932Y4402D01*
X5949Y4490D01*
X5932Y4578D01*
X5882Y4652D01*
X5808Y4702D01*
X5720Y4719D01*
X5643D01*
X5616Y4795D01*
X5661Y4831D01*
X5690Y4826D01*
X5776Y4843D01*
X5849Y4891D01*
X5897Y4964D01*
X5914Y5050D01*
X5897Y5136D01*
X5849Y5209D01*
X5776Y5257D01*
X5690Y5274D01*
X5661Y5269D01*
X5599Y5319D01*
Y5962D01*
D02*
G37*
G36*
X27199Y-199D02*
X26712D01*
Y-450D01*
X27199D01*
Y-199D01*
D02*
G37*
G36*
X16816Y24D02*
X16730Y7D01*
X16657Y-41D01*
X16609Y-114D01*
X16592Y-200D01*
X16609Y-286D01*
X16657Y-359D01*
X16730Y-407D01*
X16816Y-424D01*
X16902Y-407D01*
X16975Y-359D01*
X17023Y-286D01*
X17040Y-200D01*
X17023Y-114D01*
X16975Y-41D01*
X16902Y7D01*
X16816Y24D01*
D02*
G37*
G36*
X26612Y-199D02*
X26125D01*
Y-450D01*
X26612D01*
Y-199D01*
D02*
G37*
G36*
X27199Y-550D02*
X26712D01*
Y-801D01*
X27199D01*
Y-550D01*
D02*
G37*
G36*
X30700Y1444D02*
X30614Y1427D01*
X30541Y1379D01*
X30493Y1306D01*
X30476Y1220D01*
X30492Y1137D01*
Y-399D01*
X30193Y-698D01*
X30180Y-696D01*
X30094Y-713D01*
X30021Y-761D01*
X29973Y-834D01*
X29956Y-920D01*
X29973Y-1006D01*
X30021Y-1079D01*
X30094Y-1127D01*
X30180Y-1144D01*
X30266Y-1127D01*
X30339Y-1079D01*
X30387Y-1006D01*
X30404Y-920D01*
X30402Y-907D01*
X30745Y-565D01*
X30777Y-517D01*
X30788Y-460D01*
Y1014D01*
X30859Y1061D01*
X30907Y1134D01*
X30924Y1220D01*
X30907Y1306D01*
X30859Y1379D01*
X30786Y1427D01*
X30700Y1444D01*
D02*
G37*
G36*
X6820Y4184D02*
X6734Y4167D01*
X6661Y4119D01*
X6613Y4046D01*
X6596Y3960D01*
X6613Y3874D01*
X6661Y3801D01*
X6734Y3753D01*
X6820Y3736D01*
X6906Y3753D01*
X6979Y3801D01*
X6982Y3807D01*
X10727D01*
X11577Y2957D01*
Y630D01*
X11589Y571D01*
X11622Y522D01*
X11722Y422D01*
X11771Y389D01*
X11830Y377D01*
X12018D01*
X12021Y371D01*
X12094Y323D01*
X12180Y306D01*
X12266Y323D01*
X12339Y371D01*
X12387Y444D01*
X12404Y530D01*
X12387Y616D01*
X12339Y689D01*
X12266Y737D01*
X12246Y741D01*
X12202Y808D01*
X12204Y820D01*
X12187Y906D01*
X12139Y979D01*
X12133Y982D01*
Y3367D01*
X12505Y3738D01*
X12584Y3727D01*
X12611Y3677D01*
X12565Y3608D01*
X12545Y3510D01*
X12565Y3412D01*
X12620Y3330D01*
X12702Y3275D01*
X12800Y3255D01*
X12905D01*
X12956Y3193D01*
X12945Y3140D01*
Y3030D01*
X12965Y2932D01*
X12988Y2897D01*
X12970Y2804D01*
D01*
X12884Y2787D01*
X12811Y2739D01*
X12763Y2666D01*
X12746Y2580D01*
X12763Y2494D01*
X12811Y2421D01*
X12884Y2373D01*
X12970Y2356D01*
X13056Y2373D01*
X13129Y2421D01*
X13177Y2494D01*
X13194Y2580D01*
X13177Y2666D01*
X13148Y2710D01*
X13192Y2777D01*
X13200Y2775D01*
X13298Y2794D01*
X13380Y2850D01*
X13435Y2932D01*
X13455Y3030D01*
Y3034D01*
X13676Y3255D01*
X14658D01*
X14708Y3193D01*
X14692Y3110D01*
X14709Y3024D01*
X14757Y2951D01*
X14830Y2903D01*
X14916Y2886D01*
X15002Y2903D01*
X15075Y2951D01*
X15123Y3024D01*
X15140Y3110D01*
X15124Y3193D01*
X15175Y3255D01*
X15504D01*
X15545Y3214D01*
Y3050D01*
Y3016D01*
X12150Y-380D01*
X10873Y-348D01*
X10836Y-277D01*
X10846Y-263D01*
X10860Y-193D01*
X10846Y-122D01*
X10806Y-63D01*
Y17D01*
X10846Y76D01*
X10858Y141D01*
X10979Y288D01*
X11073Y463D01*
X11130Y653D01*
X11150Y850D01*
X11148D01*
X11135Y1022D01*
X11095Y1189D01*
X11029Y1348D01*
X10939Y1495D01*
X10827Y1626D01*
X10826Y1626D01*
X10516Y1935D01*
X10524Y2015D01*
X10579Y2051D01*
X10627Y2124D01*
X10644Y2210D01*
X10627Y2296D01*
X10579Y2369D01*
X10506Y2417D01*
X10420Y2434D01*
X10334Y2417D01*
X10261Y2369D01*
X10225Y2314D01*
X10145Y2306D01*
X9762Y2690D01*
D01*
X9762D01*
X9763Y2691D01*
X9763D01*
X9763Y2691D01*
X9763D01*
X9761Y2692D01*
Y2692D01*
X9627Y2806D01*
X9476Y2899D01*
X9312Y2967D01*
X9139Y3008D01*
X8962Y3022D01*
Y3021D01*
X8962Y3021D01*
X8693D01*
X8636Y3060D01*
X8566Y3074D01*
X8496Y3060D01*
X8436Y3020D01*
X8397Y2960D01*
X8383Y2890D01*
X8397Y2820D01*
X8436Y2760D01*
X8496Y2720D01*
X8566Y2706D01*
X8636Y2720D01*
X8693Y2759D01*
X8962D01*
X8962Y2759D01*
Y2759D01*
X8968Y2760D01*
X9132Y2744D01*
X9295Y2694D01*
X9445Y2614D01*
X9573Y2509D01*
X9576Y2504D01*
X10640Y1440D01*
X10640Y1440D01*
X10640Y1440D01*
X10640Y1440D01*
X10645Y1437D01*
X10745Y1314D01*
X10823Y1170D01*
X10870Y1013D01*
X10886Y855D01*
X10885Y850D01*
X10885Y846D01*
X10871Y704D01*
X10829Y564D01*
X10760Y435D01*
X10673Y329D01*
X10606Y316D01*
X10546Y276D01*
X10507Y217D01*
X10493Y146D01*
X10507Y76D01*
X10546Y17D01*
X10547Y16D01*
Y6D01*
X10526Y-62D01*
X9924D01*
X9918Y-63D01*
X9754Y-47D01*
X9591Y2D01*
X9440Y83D01*
X9313Y187D01*
X9310Y192D01*
X9032Y470D01*
X9034Y471D01*
X8893Y587D01*
X8732Y673D01*
X8558Y725D01*
X8512Y730D01*
X8506Y740D01*
X8446Y780D01*
X8376Y794D01*
X8306Y780D01*
X8246Y740D01*
X8207Y680D01*
X8193Y610D01*
X8207Y540D01*
X8246Y480D01*
X8306Y440D01*
X8376Y426D01*
X8446Y440D01*
X8488Y468D01*
X8506Y467D01*
X8631Y429D01*
X8746Y367D01*
X8827Y300D01*
X8809Y228D01*
X8805Y222D01*
X8780Y217D01*
X8707Y169D01*
X8659Y96D01*
X8642Y10D01*
X8659Y-76D01*
X8707Y-149D01*
X8780Y-197D01*
X8866Y-214D01*
X8952Y-197D01*
X9025Y-149D01*
X9073Y-76D01*
X9079Y-47D01*
X9155Y-21D01*
X9258Y-110D01*
X9410Y-203D01*
X9574Y-271D01*
X9698Y-300D01*
X9689Y-380D01*
X8786D01*
X8689Y-399D01*
X8606Y-454D01*
X8551Y-537D01*
X8531Y-635D01*
X8551Y-732D01*
X8606Y-815D01*
X8689Y-870D01*
X8786Y-890D01*
X12131D01*
X12143Y-919D01*
X12099Y-985D01*
X9206D01*
X9109Y-1005D01*
X9026Y-1060D01*
X8656Y-1430D01*
X8601Y-1512D01*
X8581Y-1610D01*
X8601Y-1708D01*
X8656Y-1790D01*
X8668Y-1798D01*
X8676Y-1878D01*
X6927Y-3627D01*
X6122D01*
X6119Y-3621D01*
X6046Y-3573D01*
X5960Y-3556D01*
X5874Y-3573D01*
X5801Y-3621D01*
X5753Y-3694D01*
X5736Y-3780D01*
X5753Y-3866D01*
X5801Y-3939D01*
X5874Y-3987D01*
X5960Y-4004D01*
X6046Y-3987D01*
X6119Y-3939D01*
X6122Y-3933D01*
X6990D01*
X7049Y-3921D01*
X7098Y-3888D01*
X8461Y-2525D01*
X8541Y-2533D01*
X8557Y-2559D01*
X8630Y-2607D01*
X8716Y-2624D01*
X8802Y-2607D01*
X8875Y-2559D01*
X8923Y-2486D01*
X8940Y-2400D01*
X8923Y-2314D01*
X8875Y-2241D01*
X8849Y-2224D01*
X8845Y-2182D01*
X8899Y-2123D01*
X10168D01*
X10171Y-2129D01*
X10244Y-2177D01*
X10330Y-2194D01*
X10416Y-2177D01*
X10489Y-2129D01*
X10537Y-2056D01*
X10554Y-1970D01*
X10537Y-1884D01*
X10489Y-1811D01*
X10416Y-1763D01*
X10330Y-1746D01*
X10244Y-1763D01*
X10171Y-1811D01*
X10168Y-1817D01*
X9094D01*
X9063Y-1743D01*
X9312Y-1495D01*
X12146D01*
X12177Y-1569D01*
X12016Y-1730D01*
X11961Y-1812D01*
X11941Y-1910D01*
Y-4464D01*
X11620Y-4785D01*
X11570D01*
X11472Y-4805D01*
X11390Y-4860D01*
X11335Y-4942D01*
X11315Y-5040D01*
X11335Y-5138D01*
X11390Y-5220D01*
X11472Y-5275D01*
X11570Y-5295D01*
X11726D01*
X11824Y-5275D01*
X11906Y-5220D01*
X12320Y-4807D01*
X12394Y-4838D01*
Y-5010D01*
X12404Y-5061D01*
X12432Y-5104D01*
X12958Y-5629D01*
X12952Y-5660D01*
X12969Y-5746D01*
X13017Y-5819D01*
X13090Y-5867D01*
X13176Y-5884D01*
X13262Y-5867D01*
X13335Y-5819D01*
X13383Y-5746D01*
X13400Y-5660D01*
X13383Y-5574D01*
X13335Y-5501D01*
X13262Y-5453D01*
X13176Y-5436D01*
X13145Y-5442D01*
X12659Y-4955D01*
Y-4076D01*
X12685Y-4059D01*
X12733Y-3986D01*
X12750Y-3900D01*
X12733Y-3814D01*
X12685Y-3741D01*
X12612Y-3693D01*
X12526Y-3676D01*
X12513Y-3678D01*
X12451Y-3628D01*
Y-2016D01*
X15920Y1453D01*
X16141Y1232D01*
Y937D01*
X15566Y362D01*
X15511Y279D01*
X15491Y182D01*
Y-2390D01*
X15511Y-2488D01*
X15566Y-2570D01*
X16166Y-3170D01*
X16249Y-3225D01*
X16346Y-3245D01*
X16444Y-3225D01*
X16526Y-3170D01*
X16582Y-3088D01*
X16601Y-2990D01*
X16582Y-2892D01*
X16526Y-2810D01*
X16001Y-2284D01*
Y-909D01*
X16072Y-871D01*
X16110Y-897D01*
X16196Y-914D01*
X16282Y-897D01*
X16355Y-849D01*
X16403Y-776D01*
X16420Y-690D01*
X16403Y-604D01*
X16355Y-531D01*
X16282Y-483D01*
X16196Y-466D01*
X16110Y-483D01*
X16072Y-509D01*
X16001Y-471D01*
Y76D01*
X16576Y651D01*
X16632Y734D01*
X16651Y832D01*
Y1338D01*
X16632Y1435D01*
X16576Y1518D01*
X16100Y1994D01*
X16018Y2049D01*
X16018Y2049D01*
X16006Y2057D01*
X15920Y2074D01*
X15892Y2069D01*
X15424D01*
X15393Y2143D01*
X15980Y2730D01*
X16035Y2812D01*
X16055Y2910D01*
Y3050D01*
Y3320D01*
X16035Y3418D01*
X15980Y3500D01*
X15790Y3690D01*
X15708Y3746D01*
X15610Y3765D01*
X13700D01*
X13650Y3827D01*
X13664Y3900D01*
X13647Y3986D01*
X13599Y4059D01*
X13526Y4107D01*
X13440Y4124D01*
X13354Y4107D01*
X13281Y4059D01*
X13278Y4053D01*
X12450D01*
X12391Y4041D01*
X12342Y4008D01*
X11872Y3538D01*
X11839Y3489D01*
X11827Y3430D01*
Y3244D01*
X11753Y3213D01*
X10898Y4068D01*
X10849Y4101D01*
X10790Y4113D01*
X6982D01*
X6979Y4119D01*
X6906Y4167D01*
X6820Y4184D01*
D02*
G37*
G36*
X19400Y3298D02*
X19323Y3287D01*
X19251Y3258D01*
X19190Y3210D01*
X19142Y3149D01*
X19113Y3077D01*
X19102Y3000D01*
X19113Y2923D01*
X19142Y2851D01*
X19190Y2790D01*
X19251Y2742D01*
X19323Y2713D01*
X19381Y2705D01*
X19407Y2646D01*
X19410Y2627D01*
X19383Y2586D01*
X19366Y2500D01*
X19383Y2414D01*
X19431Y2341D01*
X19504Y2293D01*
X19590Y2276D01*
X19676Y2293D01*
X19749Y2341D01*
X19797Y2414D01*
X19814Y2500D01*
X19797Y2586D01*
X19749Y2659D01*
X19676Y2707D01*
X19673Y2708D01*
X19610Y2790D01*
D01*
X19610Y2790D01*
X19658Y2851D01*
X19687Y2923D01*
X19698Y3000D01*
X19687Y3077D01*
X19658Y3149D01*
X19610Y3210D01*
X19549Y3258D01*
X19477Y3287D01*
X19400Y3298D01*
D02*
G37*
G36*
X960Y2794D02*
X874Y2777D01*
X801Y2729D01*
X753Y2656D01*
X736Y2570D01*
X753Y2484D01*
X801Y2411D01*
X874Y2363D01*
X960Y2346D01*
X1046Y2363D01*
X1119Y2411D01*
X1167Y2484D01*
X1184Y2570D01*
X1167Y2656D01*
X1119Y2729D01*
X1046Y2777D01*
X960Y2794D01*
D02*
G37*
G36*
X32750Y2718D02*
X30650D01*
X30593Y2707D01*
X30545Y2675D01*
X30223Y2352D01*
X30210Y2354D01*
X30124Y2337D01*
X30051Y2289D01*
X30003Y2216D01*
X29986Y2130D01*
X30003Y2044D01*
X30051Y1971D01*
X30124Y1923D01*
X30210Y1906D01*
X30296Y1923D01*
X30369Y1971D01*
X30417Y2044D01*
X30434Y2130D01*
X30432Y2143D01*
X30711Y2422D01*
X32689D01*
X33448Y1663D01*
X33446Y1650D01*
X33463Y1564D01*
X33511Y1491D01*
X33584Y1443D01*
X33670Y1426D01*
X33756Y1443D01*
X33829Y1491D01*
X33877Y1564D01*
X33894Y1650D01*
X33877Y1736D01*
X33829Y1809D01*
X33756Y1857D01*
X33670Y1874D01*
X33657Y1872D01*
X32855Y2675D01*
X32807Y2707D01*
X32750Y2718D01*
D02*
G37*
G36*
X19000Y298D02*
X18923Y287D01*
X18851Y258D01*
X18790Y210D01*
X18742Y149D01*
X18713Y77D01*
X18702Y-0D01*
X18713Y-77D01*
X18742Y-149D01*
X18790Y-210D01*
X18851Y-258D01*
X18923Y-287D01*
X19000Y-298D01*
X19077Y-287D01*
X19149Y-258D01*
X19210Y-210D01*
X19258Y-149D01*
X19287Y-77D01*
X19298Y-0D01*
X19287Y77D01*
X19258Y149D01*
X19210Y210D01*
X19149Y258D01*
X19077Y287D01*
X19000Y298D01*
D02*
G37*
G36*
X19610Y724D02*
X19524Y707D01*
X19451Y659D01*
X19403Y586D01*
X19386Y500D01*
X19403Y414D01*
X19451Y341D01*
X19524Y293D01*
X19610Y276D01*
X19696Y293D01*
X19769Y341D01*
X19817Y414D01*
X19834Y500D01*
X19817Y586D01*
X19769Y659D01*
X19696Y707D01*
X19610Y724D01*
D02*
G37*
G36*
X16950Y-8973D02*
X16699D01*
Y-9454D01*
X16950D01*
Y-8973D01*
D02*
G37*
G36*
X18050Y-11608D02*
Y-11950D01*
X18392D01*
X18385Y-11897D01*
X18345Y-11801D01*
X18282Y-11718D01*
X18199Y-11655D01*
X18103Y-11615D01*
X18050Y-11608D01*
D02*
G37*
G36*
X19950Y-11605D02*
X19605D01*
Y-11950D01*
X19950D01*
Y-11605D01*
D02*
G37*
G36*
X17950Y-11608D02*
X17897Y-11615D01*
X17801Y-11655D01*
X17718Y-11718D01*
X17655Y-11801D01*
X17615Y-11897D01*
X17608Y-11950D01*
X17950D01*
Y-11608D01*
D02*
G37*
G36*
X16950D02*
X16897Y-11615D01*
X16801Y-11655D01*
X16718Y-11718D01*
X16655Y-11801D01*
X16615Y-11897D01*
X16608Y-11950D01*
X16950D01*
Y-11608D01*
D02*
G37*
G36*
X17050D02*
Y-11950D01*
X17392D01*
X17385Y-11897D01*
X17345Y-11801D01*
X17282Y-11718D01*
X17199Y-11655D01*
X17103Y-11615D01*
X17050Y-11608D01*
D02*
G37*
G36*
X20395Y-11605D02*
X20050D01*
Y-11950D01*
X20395D01*
Y-11605D01*
D02*
G37*
G36*
X22050Y-11608D02*
Y-11950D01*
X22392D01*
X22385Y-11897D01*
X22345Y-11801D01*
X22282Y-11718D01*
X22199Y-11655D01*
X22103Y-11615D01*
X22050Y-11608D01*
D02*
G37*
G36*
X22950D02*
X22897Y-11615D01*
X22801Y-11655D01*
X22718Y-11718D01*
X22655Y-11801D01*
X22615Y-11897D01*
X22608Y-11950D01*
X22950D01*
Y-11608D01*
D02*
G37*
G36*
X21950D02*
X21897Y-11615D01*
X21801Y-11655D01*
X21718Y-11718D01*
X21655Y-11801D01*
X21615Y-11897D01*
X21608Y-11950D01*
X21950D01*
Y-11608D01*
D02*
G37*
G36*
X20950D02*
X20897Y-11615D01*
X20801Y-11655D01*
X20718Y-11718D01*
X20655Y-11801D01*
X20615Y-11897D01*
X20608Y-11950D01*
X20950D01*
Y-11608D01*
D02*
G37*
G36*
X21050D02*
Y-11950D01*
X21392D01*
X21385Y-11897D01*
X21345Y-11801D01*
X21282Y-11718D01*
X21199Y-11655D01*
X21103Y-11615D01*
X21050Y-11608D01*
D02*
G37*
G36*
X16050D02*
Y-11950D01*
X16392D01*
X16385Y-11897D01*
X16345Y-11801D01*
X16282Y-11718D01*
X16199Y-11655D01*
X16103Y-11615D01*
X16050Y-11608D01*
D02*
G37*
G36*
X12050D02*
Y-11950D01*
X12392D01*
X12385Y-11897D01*
X12345Y-11801D01*
X12282Y-11718D01*
X12199Y-11655D01*
X12103Y-11615D01*
X12050Y-11608D01*
D02*
G37*
G36*
X12950D02*
X12897Y-11615D01*
X12801Y-11655D01*
X12718Y-11718D01*
X12655Y-11801D01*
X12615Y-11897D01*
X12608Y-11950D01*
X12950D01*
Y-11608D01*
D02*
G37*
G36*
X11950D02*
X11897Y-11615D01*
X11801Y-11655D01*
X11718Y-11718D01*
X11655Y-11801D01*
X11615Y-11897D01*
X11608Y-11950D01*
X11950D01*
Y-11608D01*
D02*
G37*
G36*
X10950Y-11605D02*
X10605D01*
Y-11950D01*
X10950D01*
Y-11605D01*
D02*
G37*
G36*
X11395D02*
X11050D01*
Y-11950D01*
X11395D01*
Y-11605D01*
D02*
G37*
G36*
X13050Y-11608D02*
Y-11950D01*
X13392D01*
X13385Y-11897D01*
X13345Y-11801D01*
X13282Y-11718D01*
X13199Y-11655D01*
X13103Y-11615D01*
X13050Y-11608D01*
D02*
G37*
G36*
X15050D02*
Y-11950D01*
X15392D01*
X15385Y-11897D01*
X15345Y-11801D01*
X15282Y-11718D01*
X15199Y-11655D01*
X15103Y-11615D01*
X15050Y-11608D01*
D02*
G37*
G36*
X15950D02*
X15897Y-11615D01*
X15801Y-11655D01*
X15718Y-11718D01*
X15655Y-11801D01*
X15615Y-11897D01*
X15608Y-11950D01*
X15950D01*
Y-11608D01*
D02*
G37*
G36*
X14950D02*
X14897Y-11615D01*
X14801Y-11655D01*
X14718Y-11718D01*
X14655Y-11801D01*
X14615Y-11897D01*
X14608Y-11950D01*
X14950D01*
Y-11608D01*
D02*
G37*
G36*
X13950D02*
X13897Y-11615D01*
X13801Y-11655D01*
X13718Y-11718D01*
X13655Y-11801D01*
X13615Y-11897D01*
X13608Y-11950D01*
X13950D01*
Y-11608D01*
D02*
G37*
G36*
X14050D02*
Y-11950D01*
X14392D01*
X14385Y-11897D01*
X14345Y-11801D01*
X14282Y-11718D01*
X14199Y-11655D01*
X14103Y-11615D01*
X14050Y-11608D01*
D02*
G37*
G36*
X15950Y-9546D02*
X15699D01*
Y-10027D01*
X15950D01*
Y-9546D01*
D02*
G37*
G36*
X16301D02*
X16050D01*
Y-10027D01*
X16301D01*
Y-9546D01*
D02*
G37*
G36*
X3164Y-9795D02*
X3078Y-9813D01*
X3006Y-9861D01*
X2957Y-9934D01*
X2940Y-10020D01*
X2957Y-10106D01*
X3006Y-10178D01*
X3078Y-10227D01*
X3164Y-10244D01*
X3250Y-10227D01*
X3323Y-10178D01*
X3371Y-10106D01*
X3389Y-10020D01*
X3371Y-9934D01*
X3323Y-9861D01*
X3250Y-9813D01*
X3164Y-9795D01*
D02*
G37*
G36*
X2700Y-10481D02*
X2614Y-10498D01*
X2541Y-10547D01*
X2493Y-10620D01*
X2476Y-10705D01*
X2493Y-10791D01*
X2541Y-10864D01*
X2614Y-10913D01*
X2700Y-10930D01*
X2786Y-10913D01*
X2859Y-10864D01*
X2907Y-10791D01*
X2924Y-10705D01*
X2907Y-10620D01*
X2859Y-10547D01*
X2786Y-10498D01*
X2700Y-10481D01*
D02*
G37*
G36*
X3620D02*
X3534Y-10498D01*
X3461Y-10547D01*
X3413Y-10620D01*
X3396Y-10705D01*
X3413Y-10791D01*
X3461Y-10864D01*
X3534Y-10913D01*
X3620Y-10930D01*
X3706Y-10913D01*
X3779Y-10864D01*
X3827Y-10791D01*
X3844Y-10705D01*
X3827Y-10620D01*
X3779Y-10547D01*
X3706Y-10498D01*
X3620Y-10481D01*
D02*
G37*
G36*
X16950Y-9546D02*
X16699D01*
Y-10027D01*
X16950D01*
Y-9546D01*
D02*
G37*
G36*
X15950Y-8973D02*
X15699D01*
Y-9454D01*
X15950D01*
Y-8973D01*
D02*
G37*
G36*
X16301D02*
X16050D01*
Y-9454D01*
X16301D01*
Y-8973D01*
D02*
G37*
G36*
X27392Y-9550D02*
X27050D01*
Y-9892D01*
X27103Y-9885D01*
X27199Y-9845D01*
X27282Y-9782D01*
X27345Y-9699D01*
X27385Y-9603D01*
X27392Y-9550D01*
D02*
G37*
G36*
X17301Y-9546D02*
X17050D01*
Y-10027D01*
X17301D01*
Y-9546D01*
D02*
G37*
G36*
X26950Y-9550D02*
X26608D01*
X26615Y-9603D01*
X26655Y-9699D01*
X26718Y-9782D01*
X26801Y-9845D01*
X26897Y-9885D01*
X26950Y-9892D01*
Y-9550D01*
D02*
G37*
G36*
X17301Y-10127D02*
X16699D01*
Y-10608D01*
X16737D01*
X16763Y-10684D01*
X16718Y-10718D01*
X16655Y-10801D01*
X16615Y-10897D01*
X16608Y-10950D01*
X17392D01*
X17385Y-10897D01*
X17345Y-10801D01*
X17282Y-10718D01*
X17237Y-10684D01*
X17263Y-10608D01*
X17301D01*
Y-10127D01*
D02*
G37*
G36*
X24950Y-11608D02*
X24897Y-11615D01*
X24801Y-11655D01*
X24718Y-11718D01*
X24655Y-11801D01*
X24615Y-11897D01*
X24608Y-11950D01*
X24950D01*
Y-11608D01*
D02*
G37*
G36*
X25050D02*
Y-11950D01*
X25392D01*
X25385Y-11897D01*
X25345Y-11801D01*
X25282Y-11718D01*
X25199Y-11655D01*
X25103Y-11615D01*
X25050Y-11608D01*
D02*
G37*
G36*
X24050D02*
Y-11950D01*
X24392D01*
X24385Y-11897D01*
X24345Y-11801D01*
X24282Y-11718D01*
X24199Y-11655D01*
X24103Y-11615D01*
X24050Y-11608D01*
D02*
G37*
G36*
X23050D02*
Y-11950D01*
X23392D01*
X23385Y-11897D01*
X23345Y-11801D01*
X23282Y-11718D01*
X23199Y-11655D01*
X23103Y-11615D01*
X23050Y-11608D01*
D02*
G37*
G36*
X23950D02*
X23897Y-11615D01*
X23801Y-11655D01*
X23718Y-11718D01*
X23655Y-11801D01*
X23615Y-11897D01*
X23608Y-11950D01*
X23950D01*
Y-11608D01*
D02*
G37*
G36*
X18301Y-8392D02*
X17699D01*
Y-9454D01*
X17720D01*
X17741Y-9500D01*
X17720Y-9546D01*
X17699D01*
Y-10608D01*
X17737D01*
X17763Y-10684D01*
X17718Y-10718D01*
X17655Y-10801D01*
X17615Y-10897D01*
X17601Y-11000D01*
X17615Y-11103D01*
X17655Y-11199D01*
X17718Y-11282D01*
X17801Y-11345D01*
X17897Y-11385D01*
X18000Y-11399D01*
X18103Y-11385D01*
X18199Y-11345D01*
X18282Y-11282D01*
X18345Y-11199D01*
X18385Y-11103D01*
X18399Y-11000D01*
X18385Y-10897D01*
X18345Y-10801D01*
X18282Y-10718D01*
X18237Y-10684D01*
X18263Y-10608D01*
X18301D01*
Y-9546D01*
X18280D01*
X18259Y-9500D01*
X18280Y-9454D01*
X18301D01*
Y-8392D01*
D02*
G37*
G36*
X17392Y-11050D02*
X17050D01*
Y-11392D01*
X17103Y-11385D01*
X17199Y-11345D01*
X17282Y-11282D01*
X17345Y-11199D01*
X17385Y-11103D01*
X17392Y-11050D01*
D02*
G37*
G36*
X16301Y-10127D02*
X15699D01*
Y-10608D01*
X15737D01*
X15763Y-10684D01*
X15718Y-10718D01*
X15655Y-10801D01*
X15615Y-10897D01*
X15608Y-10950D01*
X16392D01*
X16385Y-10897D01*
X16345Y-10801D01*
X16282Y-10718D01*
X16237Y-10684D01*
X16263Y-10608D01*
X16301D01*
Y-10127D01*
D02*
G37*
G36*
X16950Y-11050D02*
X16608D01*
X16615Y-11103D01*
X16655Y-11199D01*
X16718Y-11282D01*
X16801Y-11345D01*
X16897Y-11385D01*
X16950Y-11392D01*
Y-11050D01*
D02*
G37*
G36*
X15950D02*
X15608D01*
X15615Y-11103D01*
X15655Y-11199D01*
X15718Y-11282D01*
X15801Y-11345D01*
X15897Y-11385D01*
X15950Y-11392D01*
Y-11050D01*
D02*
G37*
G36*
X16392D02*
X16050D01*
Y-11392D01*
X16103Y-11385D01*
X16199Y-11345D01*
X16282Y-11282D01*
X16345Y-11199D01*
X16385Y-11103D01*
X16392Y-11050D01*
D02*
G37*
G36*
X15792Y11950D02*
X15450D01*
Y11608D01*
X15503Y11615D01*
X15599Y11655D01*
X15682Y11718D01*
X15745Y11801D01*
X15785Y11897D01*
X15792Y11950D01*
D02*
G37*
G36*
X17950D02*
X17608D01*
X17615Y11897D01*
X17655Y11801D01*
X17718Y11718D01*
X17801Y11655D01*
X17897Y11615D01*
X17950Y11608D01*
Y11950D01*
D02*
G37*
G36*
X15350D02*
X15008D01*
X15015Y11897D01*
X15055Y11801D01*
X15118Y11718D01*
X15201Y11655D01*
X15297Y11615D01*
X15350Y11608D01*
Y11950D01*
D02*
G37*
G36*
X14350D02*
X14008D01*
X14015Y11897D01*
X14055Y11801D01*
X14118Y11718D01*
X14201Y11655D01*
X14297Y11615D01*
X14350Y11608D01*
Y11950D01*
D02*
G37*
G36*
X14792D02*
X14450D01*
Y11608D01*
X14503Y11615D01*
X14599Y11655D01*
X14682Y11718D01*
X14745Y11801D01*
X14785Y11897D01*
X14792Y11950D01*
D02*
G37*
G36*
X18392D02*
X18050D01*
Y11608D01*
X18103Y11615D01*
X18199Y11655D01*
X18282Y11718D01*
X18345Y11801D01*
X18385Y11897D01*
X18392Y11950D01*
D02*
G37*
G36*
X20392D02*
X20050D01*
Y11608D01*
X20103Y11615D01*
X20199Y11655D01*
X20282Y11718D01*
X20345Y11801D01*
X20385Y11897D01*
X20392Y11950D01*
D02*
G37*
G36*
X20950D02*
X20608D01*
X20615Y11897D01*
X20655Y11801D01*
X20718Y11718D01*
X20801Y11655D01*
X20897Y11615D01*
X20950Y11608D01*
Y11950D01*
D02*
G37*
G36*
X19950D02*
X19608D01*
X19615Y11897D01*
X19655Y11801D01*
X19718Y11718D01*
X19801Y11655D01*
X19897Y11615D01*
X19950Y11608D01*
Y11950D01*
D02*
G37*
G36*
X18950D02*
X18608D01*
X18615Y11897D01*
X18655Y11801D01*
X18718Y11718D01*
X18801Y11655D01*
X18897Y11615D01*
X18950Y11608D01*
Y11950D01*
D02*
G37*
G36*
X19392D02*
X19050D01*
Y11608D01*
X19103Y11615D01*
X19199Y11655D01*
X19282Y11718D01*
X19345Y11801D01*
X19385Y11897D01*
X19392Y11950D01*
D02*
G37*
G36*
X13792D02*
X13450D01*
Y11608D01*
X13503Y11615D01*
X13599Y11655D01*
X13682Y11718D01*
X13745Y11801D01*
X13785Y11897D01*
X13792Y11950D01*
D02*
G37*
G36*
X9792D02*
X9450D01*
Y11608D01*
X9503Y11615D01*
X9599Y11655D01*
X9682Y11718D01*
X9745Y11801D01*
X9785Y11897D01*
X9792Y11950D01*
D02*
G37*
G36*
X10350D02*
X10008D01*
X10015Y11897D01*
X10055Y11801D01*
X10118Y11718D01*
X10201Y11655D01*
X10297Y11615D01*
X10350Y11608D01*
Y11950D01*
D02*
G37*
G36*
X9350D02*
X9008D01*
X9015Y11897D01*
X9055Y11801D01*
X9118Y11718D01*
X9201Y11655D01*
X9297Y11615D01*
X9350Y11608D01*
Y11950D01*
D02*
G37*
G36*
X8350D02*
X8008D01*
X8015Y11897D01*
X8055Y11801D01*
X8118Y11718D01*
X8201Y11655D01*
X8297Y11615D01*
X8350Y11608D01*
Y11950D01*
D02*
G37*
G36*
X8792D02*
X8450D01*
Y11608D01*
X8503Y11615D01*
X8599Y11655D01*
X8682Y11718D01*
X8745Y11801D01*
X8785Y11897D01*
X8792Y11950D01*
D02*
G37*
G36*
X10792D02*
X10450D01*
Y11608D01*
X10503Y11615D01*
X10599Y11655D01*
X10682Y11718D01*
X10745Y11801D01*
X10785Y11897D01*
X10792Y11950D01*
D02*
G37*
G36*
X12792D02*
X12450D01*
Y11608D01*
X12503Y11615D01*
X12599Y11655D01*
X12682Y11718D01*
X12745Y11801D01*
X12785Y11897D01*
X12792Y11950D01*
D02*
G37*
G36*
X13350D02*
X13008D01*
X13015Y11897D01*
X13055Y11801D01*
X13118Y11718D01*
X13201Y11655D01*
X13297Y11615D01*
X13350Y11608D01*
Y11950D01*
D02*
G37*
G36*
X12350D02*
X12008D01*
X12015Y11897D01*
X12055Y11801D01*
X12118Y11718D01*
X12201Y11655D01*
X12297Y11615D01*
X12350Y11608D01*
Y11950D01*
D02*
G37*
G36*
X11350D02*
X11008D01*
X11015Y11897D01*
X11055Y11801D01*
X11118Y11718D01*
X11201Y11655D01*
X11297Y11615D01*
X11350Y11608D01*
Y11950D01*
D02*
G37*
G36*
X11792D02*
X11450D01*
Y11608D01*
X11503Y11615D01*
X11599Y11655D01*
X11682Y11718D01*
X11745Y11801D01*
X11785Y11897D01*
X11792Y11950D01*
D02*
G37*
G36*
X30950D02*
X30608D01*
X30615Y11897D01*
X30655Y11801D01*
X30718Y11718D01*
X30801Y11655D01*
X30897Y11615D01*
X30950Y11608D01*
Y11950D01*
D02*
G37*
G36*
X31392D02*
X31050D01*
Y11608D01*
X31103Y11615D01*
X31199Y11655D01*
X31282Y11718D01*
X31345Y11801D01*
X31385Y11897D01*
X31392Y11950D01*
D02*
G37*
G36*
X30392D02*
X30050D01*
Y11608D01*
X30103Y11615D01*
X30199Y11655D01*
X30282Y11718D01*
X30345Y11801D01*
X30385Y11897D01*
X30392Y11950D01*
D02*
G37*
G36*
X29392D02*
X29050D01*
Y11608D01*
X29103Y11615D01*
X29199Y11655D01*
X29282Y11718D01*
X29345Y11801D01*
X29385Y11897D01*
X29392Y11950D01*
D02*
G37*
G36*
X29950D02*
X29608D01*
X29615Y11897D01*
X29655Y11801D01*
X29718Y11718D01*
X29801Y11655D01*
X29897Y11615D01*
X29950Y11608D01*
Y11950D01*
D02*
G37*
G36*
X31950D02*
X31608D01*
X31615Y11897D01*
X31655Y11801D01*
X31718Y11718D01*
X31801Y11655D01*
X31897Y11615D01*
X31950Y11608D01*
Y11950D01*
D02*
G37*
G36*
X1450Y12142D02*
X1397Y12135D01*
X1301Y12095D01*
X1218Y12032D01*
X1155Y11949D01*
X1115Y11853D01*
X1108Y11800D01*
X1450D01*
Y12142D01*
D02*
G37*
G36*
X1550D02*
Y11800D01*
X1892D01*
X1885Y11853D01*
X1845Y11949D01*
X1782Y12032D01*
X1699Y12095D01*
X1603Y12135D01*
X1550Y12142D01*
D02*
G37*
G36*
X33392Y11950D02*
X33050D01*
Y11608D01*
X33103Y11615D01*
X33199Y11655D01*
X33282Y11718D01*
X33345Y11801D01*
X33385Y11897D01*
X33392Y11950D01*
D02*
G37*
G36*
X32392D02*
X32050D01*
Y11608D01*
X32103Y11615D01*
X32199Y11655D01*
X32282Y11718D01*
X32345Y11801D01*
X32385Y11897D01*
X32392Y11950D01*
D02*
G37*
G36*
X32950D02*
X32608D01*
X32615Y11897D01*
X32655Y11801D01*
X32718Y11718D01*
X32801Y11655D01*
X32897Y11615D01*
X32950Y11608D01*
Y11950D01*
D02*
G37*
G36*
X28950D02*
X28608D01*
X28615Y11897D01*
X28655Y11801D01*
X28718Y11718D01*
X28801Y11655D01*
X28897Y11615D01*
X28950Y11608D01*
Y11950D01*
D02*
G37*
G36*
X22950D02*
X22608D01*
X22615Y11897D01*
X22655Y11801D01*
X22718Y11718D01*
X22801Y11655D01*
X22897Y11615D01*
X22950Y11608D01*
Y11950D01*
D02*
G37*
G36*
X23392D02*
X23050D01*
Y11608D01*
X23103Y11615D01*
X23199Y11655D01*
X23282Y11718D01*
X23345Y11801D01*
X23385Y11897D01*
X23392Y11950D01*
D02*
G37*
G36*
X22392D02*
X22050D01*
Y11608D01*
X22103Y11615D01*
X22199Y11655D01*
X22282Y11718D01*
X22345Y11801D01*
X22385Y11897D01*
X22392Y11950D01*
D02*
G37*
G36*
X21392D02*
X21050D01*
Y11608D01*
X21103Y11615D01*
X21199Y11655D01*
X21282Y11718D01*
X21345Y11801D01*
X21385Y11897D01*
X21392Y11950D01*
D02*
G37*
G36*
X21950D02*
X21608D01*
X21615Y11897D01*
X21655Y11801D01*
X21718Y11718D01*
X21801Y11655D01*
X21897Y11615D01*
X21950Y11608D01*
Y11950D01*
D02*
G37*
G36*
X23950D02*
X23608D01*
X23615Y11897D01*
X23655Y11801D01*
X23718Y11718D01*
X23801Y11655D01*
X23897Y11615D01*
X23950Y11608D01*
Y11950D01*
D02*
G37*
G36*
X27950D02*
X27608D01*
X27615Y11897D01*
X27655Y11801D01*
X27718Y11718D01*
X27801Y11655D01*
X27897Y11615D01*
X27950Y11608D01*
Y11950D01*
D02*
G37*
G36*
X28392D02*
X28050D01*
Y11608D01*
X28103Y11615D01*
X28199Y11655D01*
X28282Y11718D01*
X28345Y11801D01*
X28385Y11897D01*
X28392Y11950D01*
D02*
G37*
G36*
X27392D02*
X27050D01*
Y11608D01*
X27103Y11615D01*
X27199Y11655D01*
X27282Y11718D01*
X27345Y11801D01*
X27385Y11897D01*
X27392Y11950D01*
D02*
G37*
G36*
X24392D02*
X24050D01*
Y11608D01*
X24103Y11615D01*
X24199Y11655D01*
X24282Y11718D01*
X24345Y11801D01*
X24385Y11897D01*
X24392Y11950D01*
D02*
G37*
G36*
X26950D02*
X26608D01*
X26615Y11897D01*
X26655Y11801D01*
X26718Y11718D01*
X26801Y11655D01*
X26897Y11615D01*
X26950Y11608D01*
Y11950D01*
D02*
G37*
G36*
X7792D02*
X7450D01*
Y11608D01*
X7503Y11615D01*
X7599Y11655D01*
X7682Y11718D01*
X7745Y11801D01*
X7785Y11897D01*
X7792Y11950D01*
D02*
G37*
G36*
X22000Y11399D02*
X21897Y11385D01*
X21801Y11345D01*
X21718Y11282D01*
X21655Y11199D01*
X21615Y11103D01*
X21601Y11000D01*
X21615Y10897D01*
X21655Y10801D01*
X21718Y10718D01*
X21763Y10684D01*
X21737Y10608D01*
X21699D01*
Y9546D01*
X21720D01*
X21741Y9500D01*
X21720Y9454D01*
X21699D01*
Y8392D01*
X22301D01*
Y9454D01*
X22280D01*
X22259Y9500D01*
X22280Y9546D01*
X22301D01*
Y10608D01*
X22263D01*
X22237Y10684D01*
X22282Y10718D01*
X22345Y10801D01*
X22385Y10897D01*
X22399Y11000D01*
X22385Y11103D01*
X22345Y11199D01*
X22282Y11282D01*
X22199Y11345D01*
X22103Y11385D01*
X22000Y11399D01*
D02*
G37*
G36*
X23000D02*
X22897Y11385D01*
X22801Y11345D01*
X22718Y11282D01*
X22655Y11199D01*
X22615Y11103D01*
X22601Y11000D01*
X22615Y10897D01*
X22655Y10801D01*
X22718Y10718D01*
X22763Y10684D01*
X22737Y10608D01*
X22699D01*
Y9546D01*
X22720D01*
X22741Y9500D01*
X22720Y9454D01*
X22699D01*
Y8392D01*
X23301D01*
Y9454D01*
X23280D01*
X23259Y9500D01*
X23280Y9546D01*
X23301D01*
Y10608D01*
X23263D01*
X23237Y10684D01*
X23282Y10718D01*
X23345Y10801D01*
X23385Y10897D01*
X23399Y11000D01*
X23385Y11103D01*
X23345Y11199D01*
X23282Y11282D01*
X23199Y11345D01*
X23103Y11385D01*
X23000Y11399D01*
D02*
G37*
G36*
X21000D02*
X20897Y11385D01*
X20801Y11345D01*
X20718Y11282D01*
X20655Y11199D01*
X20615Y11103D01*
X20601Y11000D01*
X20615Y10897D01*
X20655Y10801D01*
X20718Y10718D01*
X20763Y10684D01*
X20737Y10608D01*
X20699D01*
Y9546D01*
X20720D01*
X20741Y9500D01*
X20720Y9454D01*
X20699D01*
Y8392D01*
X21301D01*
Y9454D01*
X21280D01*
X21259Y9500D01*
X21280Y9546D01*
X21301D01*
Y10608D01*
X21263D01*
X21237Y10684D01*
X21282Y10718D01*
X21345Y10801D01*
X21385Y10897D01*
X21399Y11000D01*
X21385Y11103D01*
X21345Y11199D01*
X21282Y11282D01*
X21199Y11345D01*
X21103Y11385D01*
X21000Y11399D01*
D02*
G37*
G36*
X19000D02*
X18897Y11385D01*
X18801Y11345D01*
X18718Y11282D01*
X18655Y11199D01*
X18615Y11103D01*
X18601Y11000D01*
X18615Y10897D01*
X18655Y10801D01*
X18718Y10718D01*
X18763Y10684D01*
X18737Y10608D01*
X18699D01*
Y9546D01*
X18720D01*
X18741Y9500D01*
X18720Y9454D01*
X18699D01*
Y8392D01*
X19301D01*
Y9454D01*
X19280D01*
X19259Y9500D01*
X19280Y9546D01*
X19301D01*
Y10608D01*
X19263D01*
X19237Y10684D01*
X19282Y10718D01*
X19345Y10801D01*
X19385Y10897D01*
X19399Y11000D01*
X19385Y11103D01*
X19345Y11199D01*
X19282Y11282D01*
X19199Y11345D01*
X19103Y11385D01*
X19000Y11399D01*
D02*
G37*
G36*
X20000D02*
X19897Y11385D01*
X19801Y11345D01*
X19718Y11282D01*
X19655Y11199D01*
X19615Y11103D01*
X19601Y11000D01*
X19615Y10897D01*
X19655Y10801D01*
X19718Y10718D01*
X19763Y10684D01*
X19737Y10608D01*
X19699D01*
Y9546D01*
X19720D01*
X19741Y9500D01*
X19720Y9454D01*
X19699D01*
Y8392D01*
X20301D01*
Y9454D01*
X20280D01*
X20259Y9500D01*
X20280Y9546D01*
X20301D01*
Y10608D01*
X20263D01*
X20237Y10684D01*
X20282Y10718D01*
X20345Y10801D01*
X20385Y10897D01*
X20399Y11000D01*
X20385Y11103D01*
X20345Y11199D01*
X20282Y11282D01*
X20199Y11345D01*
X20103Y11385D01*
X20000Y11399D01*
D02*
G37*
G36*
X24000D02*
X23897Y11385D01*
X23801Y11345D01*
X23718Y11282D01*
X23655Y11199D01*
X23615Y11103D01*
X23601Y11000D01*
X23615Y10897D01*
X23655Y10801D01*
X23718Y10718D01*
X23763Y10684D01*
X23737Y10608D01*
X23699D01*
Y9546D01*
X23720D01*
X23741Y9500D01*
X23720Y9454D01*
X23699D01*
Y8392D01*
X24301D01*
Y9454D01*
X24280D01*
X24259Y9500D01*
X24280Y9546D01*
X24301D01*
Y10608D01*
X24263D01*
X24237Y10684D01*
X24282Y10718D01*
X24345Y10801D01*
X24385Y10897D01*
X24399Y11000D01*
X24385Y11103D01*
X24345Y11199D01*
X24282Y11282D01*
X24199Y11345D01*
X24103Y11385D01*
X24000Y11399D01*
D02*
G37*
G36*
X29000D02*
X28897Y11385D01*
X28801Y11345D01*
X28718Y11282D01*
X28655Y11199D01*
X28615Y11103D01*
X28601Y11000D01*
X28615Y10897D01*
X28655Y10801D01*
X28718Y10718D01*
X28763Y10684D01*
X28737Y10608D01*
X28699D01*
Y9546D01*
X28720D01*
X28741Y9500D01*
X28720Y9454D01*
X28699D01*
Y8392D01*
X29301D01*
Y9454D01*
X29280D01*
X29259Y9500D01*
X29280Y9546D01*
X29301D01*
Y10608D01*
X29263D01*
X29237Y10684D01*
X29282Y10718D01*
X29345Y10801D01*
X29385Y10897D01*
X29399Y11000D01*
X29385Y11103D01*
X29345Y11199D01*
X29282Y11282D01*
X29199Y11345D01*
X29103Y11385D01*
X29000Y11399D01*
D02*
G37*
G36*
X30000D02*
X29897Y11385D01*
X29801Y11345D01*
X29718Y11282D01*
X29655Y11199D01*
X29615Y11103D01*
X29601Y11000D01*
X29615Y10897D01*
X29655Y10801D01*
X29718Y10718D01*
X29763Y10684D01*
X29737Y10608D01*
X29699D01*
Y9546D01*
X29720D01*
X29741Y9500D01*
X29720Y9454D01*
X29699D01*
Y8392D01*
X30301D01*
Y9454D01*
X30280D01*
X30259Y9500D01*
X30280Y9546D01*
X30301D01*
Y10608D01*
X30263D01*
X30237Y10684D01*
X30282Y10718D01*
X30345Y10801D01*
X30385Y10897D01*
X30399Y11000D01*
X30385Y11103D01*
X30345Y11199D01*
X30282Y11282D01*
X30199Y11345D01*
X30103Y11385D01*
X30000Y11399D01*
D02*
G37*
G36*
X28000D02*
X27897Y11385D01*
X27801Y11345D01*
X27718Y11282D01*
X27655Y11199D01*
X27615Y11103D01*
X27601Y11000D01*
X27615Y10897D01*
X27655Y10801D01*
X27718Y10718D01*
X27763Y10684D01*
X27737Y10608D01*
X27699D01*
Y9546D01*
X27720D01*
X27741Y9500D01*
X27720Y9454D01*
X27699D01*
Y8392D01*
X28301D01*
Y9454D01*
X28280D01*
X28259Y9500D01*
X28280Y9546D01*
X28301D01*
Y10608D01*
X28263D01*
X28237Y10684D01*
X28282Y10718D01*
X28345Y10801D01*
X28385Y10897D01*
X28399Y11000D01*
X28385Y11103D01*
X28345Y11199D01*
X28282Y11282D01*
X28199Y11345D01*
X28103Y11385D01*
X28000Y11399D01*
D02*
G37*
G36*
X25000D02*
X24897Y11385D01*
X24801Y11345D01*
X24718Y11282D01*
X24655Y11199D01*
X24615Y11103D01*
X24601Y11000D01*
X24615Y10897D01*
X24655Y10801D01*
X24718Y10718D01*
X24763Y10684D01*
X24737Y10608D01*
X24699D01*
Y9546D01*
X24720D01*
X24741Y9500D01*
X24720Y9454D01*
X24699D01*
Y8392D01*
X25301D01*
Y9454D01*
X25280D01*
X25259Y9500D01*
X25280Y9546D01*
X25301D01*
Y10608D01*
X25263D01*
X25237Y10684D01*
X25282Y10718D01*
X25345Y10801D01*
X25385Y10897D01*
X25399Y11000D01*
X25385Y11103D01*
X25345Y11199D01*
X25282Y11282D01*
X25199Y11345D01*
X25103Y11385D01*
X25000Y11399D01*
D02*
G37*
G36*
X27000D02*
X26897Y11385D01*
X26801Y11345D01*
X26718Y11282D01*
X26655Y11199D01*
X26615Y11103D01*
X26601Y11000D01*
X26615Y10897D01*
X26655Y10801D01*
X26718Y10718D01*
X26763Y10684D01*
X26737Y10608D01*
X26699D01*
Y9546D01*
X26720D01*
X26741Y9500D01*
X26720Y9454D01*
X26699D01*
Y8392D01*
X27301D01*
Y9454D01*
X27280D01*
X27259Y9500D01*
X27280Y9546D01*
X27301D01*
Y10608D01*
X27263D01*
X27237Y10684D01*
X27282Y10718D01*
X27345Y10801D01*
X27385Y10897D01*
X27399Y11000D01*
X27385Y11103D01*
X27345Y11199D01*
X27282Y11282D01*
X27199Y11345D01*
X27103Y11385D01*
X27000Y11399D01*
D02*
G37*
G36*
X18000D02*
X17897Y11385D01*
X17801Y11345D01*
X17718Y11282D01*
X17655Y11199D01*
X17615Y11103D01*
X17601Y11000D01*
X17615Y10897D01*
X17655Y10801D01*
X17718Y10718D01*
X17763Y10684D01*
X17737Y10608D01*
X17699D01*
Y9546D01*
X17720D01*
X17741Y9500D01*
X17720Y9454D01*
X17699D01*
Y8392D01*
X18301D01*
Y9454D01*
X18280D01*
X18259Y9500D01*
X18280Y9546D01*
X18301D01*
Y10608D01*
X18263D01*
X18237Y10684D01*
X18282Y10718D01*
X18345Y10801D01*
X18385Y10897D01*
X18399Y11000D01*
X18385Y11103D01*
X18345Y11199D01*
X18282Y11282D01*
X18199Y11345D01*
X18103Y11385D01*
X18000Y11399D01*
D02*
G37*
G36*
X10350Y8873D02*
X10099D01*
Y8392D01*
X10350D01*
Y8873D01*
D02*
G37*
G36*
X10701D02*
X10450D01*
Y8392D01*
X10701D01*
Y8873D01*
D02*
G37*
G36*
X9400Y11399D02*
X9297Y11385D01*
X9201Y11345D01*
X9118Y11282D01*
X9055Y11199D01*
X9015Y11103D01*
X9001Y11000D01*
X9015Y10897D01*
X9055Y10801D01*
X9118Y10718D01*
X9163Y10684D01*
X9137Y10608D01*
X9099D01*
Y9546D01*
X9120D01*
X9141Y9500D01*
X9120Y9454D01*
X9099D01*
Y8392D01*
X9701D01*
Y9454D01*
X9680D01*
X9659Y9500D01*
X9680Y9546D01*
X9701D01*
Y10608D01*
X9663D01*
X9637Y10684D01*
X9682Y10718D01*
X9745Y10801D01*
X9785Y10897D01*
X9799Y11000D01*
X9785Y11103D01*
X9745Y11199D01*
X9682Y11282D01*
X9599Y11345D01*
X9503Y11385D01*
X9400Y11399D01*
D02*
G37*
G36*
X5610Y8324D02*
X5524Y8307D01*
X5451Y8259D01*
X5403Y8186D01*
X5386Y8100D01*
X5403Y8014D01*
X5451Y7941D01*
X5524Y7893D01*
X5610Y7876D01*
X5696Y7893D01*
X5769Y7941D01*
X5817Y8014D01*
X5834Y8100D01*
X5817Y8186D01*
X5769Y8259D01*
X5696Y8307D01*
X5610Y8324D01*
D02*
G37*
G36*
X8400Y11399D02*
X8297Y11385D01*
X8201Y11345D01*
X8118Y11282D01*
X8055Y11199D01*
X8015Y11103D01*
X8001Y11000D01*
X8015Y10897D01*
X8055Y10801D01*
X8118Y10718D01*
X8163Y10684D01*
X8137Y10608D01*
X8099D01*
Y9546D01*
X8120D01*
X8141Y9500D01*
X8120Y9454D01*
X8099D01*
Y8392D01*
X8701D01*
Y9454D01*
X8680D01*
X8659Y9500D01*
X8680Y9546D01*
X8701D01*
Y10608D01*
X8663D01*
X8637Y10684D01*
X8682Y10718D01*
X8745Y10801D01*
X8785Y10897D01*
X8799Y11000D01*
X8785Y11103D01*
X8745Y11199D01*
X8682Y11282D01*
X8599Y11345D01*
X8503Y11385D01*
X8400Y11399D01*
D02*
G37*
G36*
X11400D02*
X11297Y11385D01*
X11201Y11345D01*
X11118Y11282D01*
X11055Y11199D01*
X11015Y11103D01*
X11001Y11000D01*
X11015Y10897D01*
X11055Y10801D01*
X11118Y10718D01*
X11163Y10684D01*
X11137Y10608D01*
X11099D01*
Y9546D01*
X11120D01*
X11141Y9500D01*
X11120Y9454D01*
X11099D01*
Y8392D01*
X11701D01*
Y9454D01*
X11680D01*
X11659Y9500D01*
X11680Y9546D01*
X11701D01*
Y10608D01*
X11663D01*
X11637Y10684D01*
X11682Y10718D01*
X11745Y10801D01*
X11785Y10897D01*
X11799Y11000D01*
X11785Y11103D01*
X11745Y11199D01*
X11682Y11282D01*
X11599Y11345D01*
X11503Y11385D01*
X11400Y11399D01*
D02*
G37*
G36*
X15400D02*
X15297Y11385D01*
X15201Y11345D01*
X15118Y11282D01*
X15055Y11199D01*
X15015Y11103D01*
X15001Y11000D01*
X15015Y10897D01*
X15055Y10801D01*
X15118Y10718D01*
X15163Y10684D01*
X15137Y10608D01*
X15099D01*
Y9546D01*
X15120D01*
X15141Y9500D01*
X15120Y9454D01*
X15099D01*
Y8392D01*
X15701D01*
Y9454D01*
X15680D01*
X15659Y9500D01*
X15680Y9546D01*
X15701D01*
Y10608D01*
X15663D01*
X15637Y10684D01*
X15682Y10718D01*
X15745Y10801D01*
X15785Y10897D01*
X15799Y11000D01*
X15785Y11103D01*
X15745Y11199D01*
X15682Y11282D01*
X15599Y11345D01*
X15503Y11385D01*
X15400Y11399D01*
D02*
G37*
G36*
X16400D02*
X16297Y11385D01*
X16201Y11345D01*
X16118Y11282D01*
X16055Y11199D01*
X16015Y11103D01*
X16001Y11000D01*
X16015Y10897D01*
X16055Y10801D01*
X16118Y10718D01*
X16163Y10684D01*
X16137Y10608D01*
X16099D01*
Y9546D01*
X16120D01*
X16141Y9500D01*
X16120Y9454D01*
X16099D01*
Y8392D01*
X16701D01*
Y9454D01*
X16680D01*
X16659Y9500D01*
X16680Y9546D01*
X16701D01*
Y10608D01*
X16663D01*
X16637Y10684D01*
X16682Y10718D01*
X16745Y10801D01*
X16785Y10897D01*
X16799Y11000D01*
X16785Y11103D01*
X16745Y11199D01*
X16682Y11282D01*
X16599Y11345D01*
X16503Y11385D01*
X16400Y11399D01*
D02*
G37*
G36*
X14400D02*
X14297Y11385D01*
X14201Y11345D01*
X14118Y11282D01*
X14055Y11199D01*
X14015Y11103D01*
X14001Y11000D01*
X14015Y10897D01*
X14055Y10801D01*
X14118Y10718D01*
X14163Y10684D01*
X14137Y10608D01*
X14099D01*
Y9546D01*
X14120D01*
X14141Y9500D01*
X14120Y9454D01*
X14099D01*
Y8392D01*
X14701D01*
Y9454D01*
X14680D01*
X14659Y9500D01*
X14680Y9546D01*
X14701D01*
Y10608D01*
X14663D01*
X14637Y10684D01*
X14682Y10718D01*
X14745Y10801D01*
X14785Y10897D01*
X14799Y11000D01*
X14785Y11103D01*
X14745Y11199D01*
X14682Y11282D01*
X14599Y11345D01*
X14503Y11385D01*
X14400Y11399D01*
D02*
G37*
G36*
X12400D02*
X12297Y11385D01*
X12201Y11345D01*
X12118Y11282D01*
X12055Y11199D01*
X12015Y11103D01*
X12001Y11000D01*
X12015Y10897D01*
X12055Y10801D01*
X12118Y10718D01*
X12163Y10684D01*
X12137Y10608D01*
X12099D01*
Y9546D01*
X12120D01*
X12141Y9500D01*
X12120Y9454D01*
X12099D01*
Y8392D01*
X12701D01*
Y9454D01*
X12680D01*
X12659Y9500D01*
X12680Y9546D01*
X12701D01*
Y10608D01*
X12663D01*
X12637Y10684D01*
X12682Y10718D01*
X12745Y10801D01*
X12785Y10897D01*
X12799Y11000D01*
X12785Y11103D01*
X12745Y11199D01*
X12682Y11282D01*
X12599Y11345D01*
X12503Y11385D01*
X12400Y11399D01*
D02*
G37*
G36*
X13400D02*
X13297Y11385D01*
X13201Y11345D01*
X13118Y11282D01*
X13055Y11199D01*
X13015Y11103D01*
X13001Y11000D01*
X13015Y10897D01*
X13055Y10801D01*
X13118Y10718D01*
X13163Y10684D01*
X13137Y10608D01*
X13099D01*
Y9546D01*
X13120D01*
X13141Y9500D01*
X13120Y9454D01*
X13099D01*
Y8392D01*
X13701D01*
Y9454D01*
X13680D01*
X13659Y9500D01*
X13680Y9546D01*
X13701D01*
Y10608D01*
X13663D01*
X13637Y10684D01*
X13682Y10718D01*
X13745Y10801D01*
X13785Y10897D01*
X13799Y11000D01*
X13785Y11103D01*
X13745Y11199D01*
X13682Y11282D01*
X13599Y11345D01*
X13503Y11385D01*
X13400Y11399D01*
D02*
G37*
G36*
X1892Y11700D02*
X1550D01*
Y11358D01*
X1603Y11365D01*
X1699Y11405D01*
X1782Y11468D01*
X1845Y11551D01*
X1885Y11647D01*
X1892Y11700D01*
D02*
G37*
G36*
X16350Y11950D02*
X16005D01*
Y11605D01*
X16350D01*
Y11950D01*
D02*
G37*
G36*
X1450Y11700D02*
X1108D01*
X1115Y11647D01*
X1155Y11551D01*
X1218Y11468D01*
X1301Y11405D01*
X1397Y11365D01*
X1450Y11358D01*
Y11700D01*
D02*
G37*
G36*
X10350Y11392D02*
X10297Y11385D01*
X10201Y11345D01*
X10118Y11282D01*
X10055Y11199D01*
X10015Y11103D01*
X10008Y11050D01*
X10350D01*
Y11392D01*
D02*
G37*
G36*
X10450D02*
Y11050D01*
X10792D01*
X10785Y11103D01*
X10745Y11199D01*
X10682Y11282D01*
X10599Y11345D01*
X10503Y11385D01*
X10450Y11392D01*
D02*
G37*
G36*
X16795Y11950D02*
X16450D01*
Y11605D01*
X16795D01*
Y11950D01*
D02*
G37*
G36*
X34395D02*
X34050D01*
Y11605D01*
X34395D01*
Y11950D01*
D02*
G37*
G36*
X7350D02*
X7008D01*
X7015Y11897D01*
X7055Y11801D01*
X7118Y11718D01*
X7201Y11655D01*
X7297Y11615D01*
X7350Y11608D01*
Y11950D01*
D02*
G37*
G36*
X33950D02*
X33605D01*
Y11605D01*
X33950D01*
Y11950D01*
D02*
G37*
G36*
X24950D02*
X24605D01*
Y11605D01*
X24950D01*
Y11950D01*
D02*
G37*
G36*
X25395D02*
X25050D01*
Y11605D01*
X25395D01*
Y11950D01*
D02*
G37*
G36*
X10792Y10950D02*
X10008D01*
X10015Y10897D01*
X10055Y10801D01*
X10118Y10718D01*
X10163Y10684D01*
X10137Y10608D01*
X10099D01*
Y10127D01*
X10701D01*
Y10608D01*
X10663D01*
X10637Y10684D01*
X10682Y10718D01*
X10745Y10801D01*
X10785Y10897D01*
X10792Y10950D01*
D02*
G37*
G36*
X34000Y11399D02*
X33897Y11385D01*
X33801Y11345D01*
X33718Y11282D01*
X33655Y11199D01*
X33615Y11103D01*
X33601Y11000D01*
X33615Y10897D01*
X33655Y10801D01*
X33718Y10718D01*
X33763Y10684D01*
X33737Y10608D01*
X33699D01*
Y9546D01*
X33720D01*
X33741Y9500D01*
X33720Y9454D01*
X33699D01*
Y8392D01*
X34301D01*
Y9454D01*
X34280D01*
X34259Y9500D01*
X34280Y9546D01*
X34301D01*
Y10608D01*
X34263D01*
X34237Y10684D01*
X34282Y10718D01*
X34345Y10801D01*
X34385Y10897D01*
X34399Y11000D01*
X34385Y11103D01*
X34345Y11199D01*
X34282Y11282D01*
X34199Y11345D01*
X34103Y11385D01*
X34000Y11399D01*
D02*
G37*
G36*
X35500Y10578D02*
X35331Y10565D01*
X35167Y10525D01*
X35010Y10461D01*
X34866Y10372D01*
X34738Y10262D01*
X34628Y10134D01*
X34539Y9989D01*
X34475Y9833D01*
X34435Y9669D01*
X34422Y9500D01*
X34435Y9331D01*
X34475Y9167D01*
X34539Y9011D01*
X34628Y8866D01*
X34738Y8738D01*
X34866Y8628D01*
X35010Y8539D01*
X35167Y8475D01*
X35331Y8435D01*
X35500Y8422D01*
X35669Y8435D01*
X35833Y8475D01*
X35989Y8539D01*
X36134Y8628D01*
X36262Y8738D01*
X36372Y8866D01*
X36461Y9011D01*
X36525Y9167D01*
X36565Y9331D01*
X36578Y9500D01*
X36565Y9669D01*
X36525Y9833D01*
X36461Y9989D01*
X36372Y10134D01*
X36262Y10262D01*
X36134Y10372D01*
X35989Y10461D01*
X35833Y10525D01*
X35669Y10565D01*
X35500Y10578D01*
D02*
G37*
G36*
X33000Y11399D02*
X32897Y11385D01*
X32801Y11345D01*
X32718Y11282D01*
X32655Y11199D01*
X32615Y11103D01*
X32601Y11000D01*
X32615Y10897D01*
X32655Y10801D01*
X32718Y10718D01*
X32763Y10684D01*
X32737Y10608D01*
X32699D01*
Y9546D01*
X32720D01*
X32741Y9500D01*
X32720Y9454D01*
X32699D01*
Y8392D01*
X33301D01*
Y9454D01*
X33280D01*
X33259Y9500D01*
X33280Y9546D01*
X33301D01*
Y10608D01*
X33263D01*
X33237Y10684D01*
X33282Y10718D01*
X33345Y10801D01*
X33385Y10897D01*
X33399Y11000D01*
X33385Y11103D01*
X33345Y11199D01*
X33282Y11282D01*
X33199Y11345D01*
X33103Y11385D01*
X33000Y11399D01*
D02*
G37*
G36*
X31000D02*
X30897Y11385D01*
X30801Y11345D01*
X30718Y11282D01*
X30655Y11199D01*
X30615Y11103D01*
X30601Y11000D01*
X30615Y10897D01*
X30655Y10801D01*
X30718Y10718D01*
X30763Y10684D01*
X30737Y10608D01*
X30699D01*
Y9546D01*
X30720D01*
X30741Y9500D01*
X30720Y9454D01*
X30699D01*
Y8392D01*
X31301D01*
Y9454D01*
X31280D01*
X31259Y9500D01*
X31280Y9546D01*
X31301D01*
Y10608D01*
X31263D01*
X31237Y10684D01*
X31282Y10718D01*
X31345Y10801D01*
X31385Y10897D01*
X31399Y11000D01*
X31385Y11103D01*
X31345Y11199D01*
X31282Y11282D01*
X31199Y11345D01*
X31103Y11385D01*
X31000Y11399D01*
D02*
G37*
G36*
X32000D02*
X31897Y11385D01*
X31801Y11345D01*
X31718Y11282D01*
X31655Y11199D01*
X31615Y11103D01*
X31601Y11000D01*
X31615Y10897D01*
X31655Y10801D01*
X31718Y10718D01*
X31763Y10684D01*
X31737Y10608D01*
X31699D01*
Y9546D01*
X31720D01*
X31741Y9500D01*
X31720Y9454D01*
X31699D01*
Y8392D01*
X32301D01*
Y9454D01*
X32280D01*
X32259Y9500D01*
X32280Y9546D01*
X32301D01*
Y10608D01*
X32263D01*
X32237Y10684D01*
X32282Y10718D01*
X32345Y10801D01*
X32385Y10897D01*
X32399Y11000D01*
X32385Y11103D01*
X32345Y11199D01*
X32282Y11282D01*
X32199Y11345D01*
X32103Y11385D01*
X32000Y11399D01*
D02*
G37*
G36*
X10350Y9454D02*
X10099D01*
Y8973D01*
X10350D01*
Y9454D01*
D02*
G37*
G36*
X10701Y10027D02*
X10450D01*
Y9546D01*
X10701D01*
Y10027D01*
D02*
G37*
G36*
X7400Y11399D02*
X7297Y11385D01*
X7201Y11345D01*
X7118Y11282D01*
X7055Y11199D01*
X7015Y11103D01*
X7001Y11000D01*
X7015Y10897D01*
X7055Y10801D01*
X7118Y10718D01*
X7163Y10684D01*
X7137Y10608D01*
X7099D01*
Y9860D01*
X7021Y9844D01*
X6961Y9989D01*
X6872Y10134D01*
X6762Y10262D01*
X6634Y10372D01*
X6489Y10461D01*
X6333Y10525D01*
X6169Y10565D01*
X6000Y10578D01*
X5831Y10565D01*
X5667Y10525D01*
X5511Y10461D01*
X5366Y10372D01*
X5238Y10262D01*
X5128Y10134D01*
X5039Y9989D01*
X4975Y9833D01*
X4935Y9669D01*
X4922Y9500D01*
X4935Y9331D01*
X4975Y9167D01*
X5039Y9011D01*
X5128Y8866D01*
X5238Y8738D01*
X5366Y8628D01*
X5511Y8539D01*
X5667Y8475D01*
X5831Y8435D01*
X6000Y8422D01*
X6169Y8435D01*
X6333Y8475D01*
X6489Y8539D01*
X6634Y8628D01*
X6762Y8738D01*
X6872Y8866D01*
X6961Y9011D01*
X7021Y9156D01*
X7099Y9140D01*
Y8392D01*
X7701D01*
Y9454D01*
X7680D01*
X7659Y9500D01*
X7680Y9546D01*
X7701D01*
Y10608D01*
X7663D01*
X7637Y10684D01*
X7682Y10718D01*
X7745Y10801D01*
X7785Y10897D01*
X7799Y11000D01*
X7785Y11103D01*
X7745Y11199D01*
X7682Y11282D01*
X7599Y11345D01*
X7503Y11385D01*
X7400Y11399D01*
D02*
G37*
G36*
X10350Y10027D02*
X10099D01*
Y9546D01*
X10350D01*
Y10027D01*
D02*
G37*
G36*
X10701Y9454D02*
X10450D01*
Y8973D01*
X10701D01*
Y9454D01*
D02*
G37*
G36*
X38000Y10000D02*
X37871Y9983D01*
X37750Y9933D01*
X37646Y9854D01*
X37567Y9750D01*
X37517Y9629D01*
X37500Y9500D01*
X37517Y9371D01*
X37567Y9250D01*
X37646Y9146D01*
X37750Y9067D01*
X37871Y9017D01*
X38000Y9000D01*
X38129Y9017D01*
X38250Y9067D01*
X38354Y9146D01*
X38433Y9250D01*
X38483Y9371D01*
X38500Y9500D01*
X38483Y9629D01*
X38433Y9750D01*
X38354Y9854D01*
X38250Y9933D01*
X38129Y9983D01*
X38000Y10000D01*
D02*
G37*
%LPD*%
D10*
X15406Y-5430D02*
X15470Y-5493D01*
Y-7330D02*
Y-5493D01*
X12526Y-5010D02*
X13176Y-5660D01*
X12526Y-5010D02*
Y-3900D01*
X13986Y-3880D02*
X14696D01*
X23260Y-4430D02*
Y-3140D01*
X34273Y-4213D02*
X35013D01*
X18070Y1590D02*
Y4100D01*
X35250Y6673D02*
X35900Y6023D01*
Y5536D02*
Y6023D01*
X34916Y5380D02*
X35900Y4396D01*
X35500Y4966D02*
X35900D01*
X34966Y5500D02*
X35500Y4966D01*
X30600Y5260D02*
X32210Y3650D01*
X25930Y5260D02*
X30600D01*
X26620Y-6070D02*
X27270Y-5420D01*
X26571Y-5950D02*
X27150Y-5371D01*
X26521Y-5830D02*
X27030Y-5321D01*
X26471Y-5710D02*
X26910Y-5271D01*
X26421Y-5590D02*
X26790Y-5221D01*
X23333Y-5590D02*
X26421D01*
X24213Y-5710D02*
X26471D01*
X25093Y-5830D02*
X26521D01*
X25548Y-5950D02*
X26571D01*
X25598Y-6070D02*
X26620D01*
X25647Y-6190D02*
X26670D01*
X25000Y-8923D02*
Y-8131D01*
X23000Y-8923D02*
X23238Y-8686D01*
X22000Y-8923D02*
X25093Y-5830D01*
X21000Y-8923D02*
X24213Y-5710D01*
X20000Y-8923D02*
X23333Y-5590D01*
X23238Y-8686D02*
Y-8663D01*
X24000Y-8923D02*
X24704Y-8219D01*
Y-6963D01*
X25598Y-6070D01*
X24584Y-7316D02*
Y-6914D01*
X23238Y-8663D02*
X24584Y-7316D01*
Y-6914D02*
X25548Y-5950D01*
X28844Y113D02*
X29290D01*
X28323Y-1087D02*
X29290D01*
X26670Y-6190D02*
X27390Y-5470D01*
X28974Y413D02*
X29290D01*
X26910Y-1821D02*
X28844Y113D01*
X28713Y-187D02*
X29290D01*
X28583Y-487D02*
X29290D01*
X28453Y-787D02*
X29290D01*
X27390Y-2020D02*
X28323Y-1087D01*
X27780Y-2860D02*
X28840D01*
X29290Y-2410D01*
Y-2110D02*
X29400D01*
X27510Y-2070D02*
X27770Y-1810D01*
X29290D01*
X29525Y-2472D02*
Y-2235D01*
X29400Y-2110D02*
X29525Y-2235D01*
X29645Y-2522D02*
Y-1865D01*
X29290Y-1510D02*
X29645Y-1865D01*
X24824Y-7013D02*
X25647Y-6190D01*
X24824Y-7955D02*
X25000Y-8131D01*
X24824Y-7955D02*
Y-7013D01*
X26790Y-5221D02*
Y-1771D01*
X28974Y413D01*
X26910Y-5271D02*
Y-1821D01*
X27030Y-5321D02*
Y-1871D01*
X28713Y-187D01*
X27150Y-5371D02*
Y-1921D01*
X28583Y-487D01*
X27270Y-5420D02*
Y-1970D01*
X28453Y-787D01*
X27390Y-5470D02*
Y-2020D01*
X27510Y-2890D02*
Y-2070D01*
Y-2890D02*
X27780Y-3160D01*
Y-3460D02*
X27830D01*
X28310Y-2980D01*
X29017D01*
X29525Y-2472D01*
X27780Y-3760D02*
X28440Y-3100D01*
X29067D01*
X29645Y-2522D01*
X27780Y-4060D02*
X28510Y-3330D01*
X28670D01*
X27780Y-4360D02*
X28510Y-3630D01*
X28670D01*
X23260Y-3140D02*
Y-1678D01*
X25880Y5380D02*
X34916D01*
X25730Y5230D02*
X25880Y5380D01*
X25070Y5230D02*
X25730D01*
X25020Y5280D02*
X25070Y5230D01*
X25715Y5385D02*
X25830Y5500D01*
X25335Y5385D02*
X25715D01*
X25280Y5440D02*
X25335Y5385D01*
X25830Y5500D02*
X34966D01*
X25010Y5270D02*
X25020Y5280D01*
X25730Y5060D02*
X25930Y5260D01*
X24780Y5060D02*
X25730D01*
X24740Y5100D02*
X24780Y5060D01*
X24730Y5110D02*
X24740Y5100D01*
X29120Y2310D02*
X29170Y2260D01*
X29040Y2430D02*
X29170Y2560D01*
X24620Y2520D02*
X24710Y2430D01*
X29040D01*
X24533Y2310D02*
X29120D01*
X24410Y2433D02*
X24533Y2310D01*
X24410Y2433D02*
Y2740D01*
X24483Y2190D02*
X28929D01*
X24200Y2473D02*
Y2520D01*
Y2473D02*
X24483Y2190D01*
X23990Y2433D02*
X24353Y2070D01*
X23990Y2433D02*
Y2740D01*
X23780Y2473D02*
Y2520D01*
Y2473D02*
X24303Y1950D01*
X28830D01*
X29290Y1490D01*
X24353Y2070D02*
X28880D01*
X29500Y1450D01*
X28929Y2190D02*
X29620Y1499D01*
X29290Y1320D02*
Y1490D01*
X29500Y1223D02*
Y1450D01*
X29290Y1013D02*
X29500Y1223D01*
X29290Y713D02*
Y716D01*
X29620Y1046D02*
Y1499D01*
X29290Y716D02*
X29620Y1046D01*
X17360Y4430D02*
X17740D01*
X18070Y4100D01*
X17800Y3380D02*
Y3810D01*
X25550Y1040D02*
X26090Y500D01*
X26662D01*
X24438Y1500D02*
X24680D01*
X24760Y822D02*
Y1010D01*
X24438Y500D02*
X24760Y822D01*
X24680Y1500D02*
X25160Y1020D01*
X23260Y-1678D02*
X23898Y-1040D01*
X24438Y-500D01*
D11*
X18000Y-9500D02*
Y-8923D01*
Y-10077D02*
Y-9500D01*
X13000D02*
Y-8923D01*
Y-10077D02*
Y-9500D01*
X25000Y9500D02*
Y10077D01*
Y8923D02*
Y9500D01*
X24000D02*
Y10077D01*
Y8923D02*
Y9500D01*
X23000D02*
Y10077D01*
Y8923D02*
Y9500D01*
X20000D02*
Y10077D01*
Y8923D02*
Y9500D01*
X19000D02*
Y10077D01*
Y8923D02*
Y9500D01*
X14400D02*
Y10077D01*
Y8923D02*
Y9500D01*
X13400D02*
Y10077D01*
Y8923D02*
Y9500D01*
X18000D02*
Y10077D01*
Y8923D02*
Y9500D01*
X15400Y8923D02*
Y9500D01*
Y10077D01*
X16400Y8923D02*
Y9500D01*
Y10077D01*
X21000Y8923D02*
Y9500D01*
Y10077D01*
X22000Y9500D02*
Y10077D01*
Y8923D02*
Y9500D01*
X31000Y8923D02*
Y9500D01*
Y10077D01*
X30000Y9500D02*
Y10077D01*
Y8923D02*
Y9500D01*
X28000Y8923D02*
Y9500D01*
Y10077D01*
X29000Y8923D02*
Y9500D01*
Y10077D01*
X32000Y8923D02*
Y9500D01*
Y10077D01*
X33000Y8923D02*
Y9500D01*
Y10077D01*
X34000Y8923D02*
Y9500D01*
Y10077D01*
X27000Y9500D02*
Y10077D01*
Y8923D02*
Y9500D01*
X25000Y-10077D02*
Y-9500D01*
Y-8923D01*
X24000Y-9500D02*
Y-8923D01*
Y-10077D02*
Y-9500D01*
X23000Y-10077D02*
Y-9500D01*
Y-8923D01*
X22000Y-9500D02*
Y-8923D01*
Y-10077D02*
Y-9500D01*
X21000Y-10077D02*
Y-9500D01*
Y-8923D01*
X20000Y-10077D02*
Y-9500D01*
Y-8923D01*
X11400Y8923D02*
Y9500D01*
Y10077D01*
X12400Y8923D02*
Y9500D01*
Y10077D01*
X7400Y8923D02*
Y9500D01*
Y10077D01*
X8400Y8923D02*
Y9500D01*
Y10077D01*
X9400Y8923D02*
Y9500D01*
Y10077D01*
D13*
X9669Y2597D02*
G03*
X8962Y2890I-707J-707D01*
G01*
X10759Y229D02*
G03*
X11016Y850I-621J621D01*
G01*
D02*
G03*
X10733Y1533I-966J0D01*
G01*
X8939Y377D02*
G03*
X8376Y610I-563J-563D01*
G01*
X9217Y99D02*
G03*
X9924Y-194I707J707D01*
G01*
X10759Y229D02*
G03*
X11016Y850I-621J621D01*
G01*
D02*
G03*
X10733Y1533I-966J0D01*
G01*
X9669Y2597D02*
G03*
X8962Y2890I-707J-707D01*
G01*
X8566Y2890D02*
X8962D01*
X10676Y146D02*
X10759Y229D01*
X9669Y2597D02*
X10733Y1533D01*
X9924Y-194D02*
X10676D01*
X8939Y377D02*
X9217Y99D01*
D19*
X4500Y-10750D02*
D03*
X38000Y9500D02*
D03*
D41*
X10400Y10077D02*
D03*
Y8923D02*
D03*
X9400Y10077D02*
D03*
Y8923D02*
D03*
X15400Y10077D02*
D03*
Y8923D02*
D03*
X14400D02*
D03*
Y10077D02*
D03*
X13400Y8923D02*
D03*
Y10077D02*
D03*
X11400Y8923D02*
D03*
Y10077D02*
D03*
X12400Y8923D02*
D03*
Y10077D02*
D03*
X16400D02*
D03*
Y8923D02*
D03*
X7400D02*
D03*
Y10077D02*
D03*
X8400Y8923D02*
D03*
Y10077D02*
D03*
X20000Y-8923D02*
D03*
Y-10077D02*
D03*
X24000D02*
D03*
Y-8923D02*
D03*
X25000Y-10077D02*
D03*
Y-8923D02*
D03*
X23000Y-10077D02*
D03*
Y-8923D02*
D03*
X22000Y-10077D02*
D03*
Y-8923D02*
D03*
X21000D02*
D03*
Y-10077D02*
D03*
X19000Y10077D02*
D03*
Y8923D02*
D03*
X18000Y10077D02*
D03*
Y8923D02*
D03*
X24000Y10077D02*
D03*
Y8923D02*
D03*
X23000D02*
D03*
Y10077D02*
D03*
X22000Y8923D02*
D03*
Y10077D02*
D03*
X20000Y8923D02*
D03*
Y10077D02*
D03*
X21000Y8923D02*
D03*
Y10077D02*
D03*
X25000D02*
D03*
Y8923D02*
D03*
X17000Y-10077D02*
D03*
Y-8923D02*
D03*
X18000Y-10077D02*
D03*
Y-8923D02*
D03*
X12000Y-10077D02*
D03*
Y-8923D02*
D03*
X13000D02*
D03*
Y-10077D02*
D03*
X14000Y-8923D02*
D03*
Y-10077D02*
D03*
X16000Y-8923D02*
D03*
Y-10077D02*
D03*
X15000Y-8923D02*
D03*
Y-10077D02*
D03*
X11000D02*
D03*
Y-8923D02*
D03*
X28000Y10077D02*
D03*
Y8923D02*
D03*
X27000Y10077D02*
D03*
Y8923D02*
D03*
X33000Y10077D02*
D03*
Y8923D02*
D03*
X32000D02*
D03*
Y10077D02*
D03*
X31000Y8923D02*
D03*
Y10077D02*
D03*
X29000Y8923D02*
D03*
Y10077D02*
D03*
X30000Y8923D02*
D03*
Y10077D02*
D03*
X34000D02*
D03*
Y8923D02*
D03*
D55*
X6990Y-3780D02*
X8800Y-1970D01*
X10330D01*
X5960Y-3780D02*
X6990D01*
X9186Y-3010D02*
X10526D01*
X9186Y-2710D02*
X10536D01*
X11830Y530D02*
X12170D01*
X11730Y630D02*
X11830Y530D01*
X11980Y820D02*
Y3430D01*
X12450Y3900D01*
X13440D01*
X6820Y3960D02*
X10790D01*
X11730Y3020D01*
Y630D02*
Y3020D01*
D56*
X4350Y-8170D02*
X14247D01*
X3164Y-7754D02*
X3934D01*
X4350Y-8170D01*
X15170D02*
X15920Y-7420D01*
X16380D01*
X14247Y-8170D02*
X15170D01*
X14247D02*
X15000Y-8923D01*
Y-9500D02*
Y-8923D01*
Y-10077D02*
Y-9500D01*
X12196Y-4570D02*
Y-1910D01*
X11570Y-5040D02*
X11726D01*
X12196Y-4570D01*
X15746Y-2390D02*
Y182D01*
X16396Y832D01*
Y1338D01*
X8836Y-1610D02*
X9206Y-1240D01*
X12246D01*
X15610Y3510D02*
X15800Y3320D01*
Y3050D02*
Y3320D01*
Y2910D02*
Y3050D01*
X12255Y-635D02*
X15800Y2910D01*
X8786Y-635D02*
X12255D01*
X15746Y-2390D02*
X16346Y-2990D01*
X26662Y1002D02*
Y1500D01*
X13200Y3030D02*
Y3140D01*
X13570Y3510D01*
X12800D02*
X13570D01*
X15610D01*
X12246Y-1240D02*
X15300Y1814D01*
X12196Y-1910D02*
X15920Y1814D01*
X16396Y1338D01*
X15300Y1814D02*
X15920D01*
X11000Y-10077D02*
Y-8923D01*
X14000Y-10077D02*
Y-8923D01*
X12000Y-10077D02*
Y-8923D01*
D57*
X4050Y-6804D02*
Y-5311D01*
X4499Y-4919D02*
X5980Y-6400D01*
X4050Y-5311D02*
X4499Y-4862D01*
X5188D01*
X5700Y-4350D01*
X4871Y4490D02*
X5720D01*
X4499Y4862D02*
X4871Y4490D01*
D58*
X4047Y4410D02*
X4499Y4862D01*
D59*
X30640Y1160D02*
X30700Y1220D01*
X32750Y2570D02*
X33670Y1650D01*
X30210Y2130D02*
X30650Y2570D01*
X30160Y2130D02*
X30185Y2155D01*
X30650Y2570D02*
X32750D01*
X30180Y-920D02*
X30640Y-460D01*
Y1160D01*
D63*
X27000Y-9500D02*
D03*
X24000Y-11000D02*
D03*
Y-12000D02*
D03*
X22000Y-11000D02*
D03*
Y-12000D02*
D03*
X21000Y-11000D02*
D03*
Y-12000D02*
D03*
X20000Y-11000D02*
D03*
X23000Y-12000D02*
D03*
Y-11000D02*
D03*
X25000Y-12000D02*
D03*
Y-11000D02*
D03*
X9400Y12000D02*
D03*
Y11000D02*
D03*
X12400D02*
D03*
Y12000D02*
D03*
X14400Y11000D02*
D03*
Y12000D02*
D03*
X15400Y11000D02*
D03*
Y12000D02*
D03*
X16400Y11000D02*
D03*
X13400Y12000D02*
D03*
Y11000D02*
D03*
X11400Y12000D02*
D03*
Y11000D02*
D03*
X10400D02*
D03*
Y12000D02*
D03*
X8400D02*
D03*
Y11000D02*
D03*
X7400D02*
D03*
Y12000D02*
D03*
X28000D02*
D03*
Y11000D02*
D03*
X29000D02*
D03*
Y12000D02*
D03*
X31000Y11000D02*
D03*
Y12000D02*
D03*
X34000Y11000D02*
D03*
X33000Y12000D02*
D03*
Y11000D02*
D03*
X32000Y12000D02*
D03*
Y11000D02*
D03*
X30000Y12000D02*
D03*
Y11000D02*
D03*
X27000D02*
D03*
Y12000D02*
D03*
X19000D02*
D03*
Y11000D02*
D03*
X20000D02*
D03*
Y12000D02*
D03*
X22000Y11000D02*
D03*
Y12000D02*
D03*
X25000Y11000D02*
D03*
X24000Y12000D02*
D03*
Y11000D02*
D03*
X23000Y12000D02*
D03*
Y11000D02*
D03*
X21000Y12000D02*
D03*
Y11000D02*
D03*
X18000D02*
D03*
Y12000D02*
D03*
X17000Y-12000D02*
D03*
Y-11000D02*
D03*
X16000D02*
D03*
Y-12000D02*
D03*
X14000Y-11000D02*
D03*
Y-12000D02*
D03*
X11000Y-11000D02*
D03*
X12000Y-12000D02*
D03*
Y-11000D02*
D03*
X13000Y-12000D02*
D03*
Y-11000D02*
D03*
X15000Y-12000D02*
D03*
Y-11000D02*
D03*
X18000D02*
D03*
Y-12000D02*
D03*
X1500Y11750D02*
D03*
D64*
X565Y1299D02*
D03*
Y-1299D02*
D03*
D65*
X19000Y-0D02*
D03*
X18600Y3000D02*
D03*
X19400D02*
D03*
D66*
X2880Y-5500D02*
D03*
Y5500D02*
D03*
D67*
X20000Y-12000D02*
D03*
X16400Y12000D02*
D03*
X34000D02*
D03*
X25000D02*
D03*
X11000Y-12000D02*
D03*
D68*
X38000Y-9500D02*
D03*
X6000Y9500D02*
D03*
X35500D02*
D03*
X5500Y-9500D02*
D03*
X26000Y3500D02*
D03*
Y-7500D02*
D03*
D69*
X33359Y236D02*
D03*
Y709D02*
D03*
X32886D02*
D03*
Y236D02*
D03*
X33359Y-236D02*
D03*
Y-709D02*
D03*
X32886Y-236D02*
D03*
Y-709D02*
D03*
X32414Y709D02*
D03*
X31941D02*
D03*
X32414Y236D02*
D03*
X31941D02*
D03*
X32414Y-709D02*
D03*
Y-236D02*
D03*
X31941Y-709D02*
D03*
Y-236D02*
D03*
D70*
X10310Y-2440D02*
D03*
X10330Y-1970D02*
D03*
X13620Y-3600D02*
D03*
X29230Y3120D02*
D03*
X10890Y7020D02*
D03*
X12910Y6960D02*
D03*
X15970Y6940D02*
D03*
X14680D02*
D03*
X17150Y6670D02*
D03*
X7400Y6810D02*
D03*
X2660Y-8190D02*
D03*
X3164Y-7754D02*
D03*
X5600Y7660D02*
D03*
X3164Y-10020D02*
D03*
X2700Y-10705D02*
D03*
X3620D02*
D03*
X3000Y10000D02*
D03*
X36040Y1180D02*
D03*
X36790Y2670D02*
D03*
X36040Y2710D02*
D03*
X14920Y-5470D02*
D03*
X12450Y-5620D02*
D03*
X11150Y-5770D02*
D03*
X11510Y-6120D02*
D03*
X34690Y8060D02*
D03*
X16500Y-4250D02*
D03*
X22700Y-3130D02*
D03*
X28520Y-6450D02*
D03*
X31500Y-7000D02*
D03*
X33500D02*
D03*
X35000Y-4560D02*
D03*
X35210Y-8400D02*
D03*
X35000Y-6000D02*
D03*
X37000Y1000D02*
D03*
X38630Y9190D02*
D03*
X38500Y7000D02*
D03*
Y5500D02*
D03*
X37000Y10000D02*
D03*
Y9000D02*
D03*
Y7000D02*
D03*
Y5000D02*
D03*
Y3000D02*
D03*
Y0D02*
D03*
X36990Y-1870D02*
D03*
X37090Y-4000D02*
D03*
X37030Y-6650D02*
D03*
X37000Y-8000D02*
D03*
X31080Y-7690D02*
D03*
X28000Y-10000D02*
D03*
X27300Y-8540D02*
D03*
X25590Y-8870D02*
D03*
X26000Y-10000D02*
D03*
X12410Y-7330D02*
D03*
X15830Y-6290D02*
D03*
X12170Y-6310D02*
D03*
X14000Y-7180D02*
D03*
X12490Y-8590D02*
D03*
Y-10320D02*
D03*
X11510Y-8570D02*
D03*
X11480Y-10350D02*
D03*
X8620Y-8820D02*
D03*
X8500Y-11000D02*
D03*
X500Y-8000D02*
D03*
X2830Y-6120D02*
D03*
X2170Y-7390D02*
D03*
X1250Y-4630D02*
D03*
X3380Y6810D02*
D03*
X3100Y8500D02*
D03*
X6900Y10500D02*
D03*
X6750Y8090D02*
D03*
X17870Y6330D02*
D03*
X13910Y3900D02*
D03*
X19960Y3760D02*
D03*
X21640Y2420D02*
D03*
X22950Y-30D02*
D03*
X11760Y8130D02*
D03*
X10700Y8160D02*
D03*
X10890Y10100D02*
D03*
X9900Y8820D02*
D03*
X9890Y10080D02*
D03*
X9130Y-7330D02*
D03*
X9590Y-7090D02*
D03*
X5250Y-2260D02*
D03*
X4410Y-2250D02*
D03*
X3050Y-2590D02*
D03*
X3240Y-3490D02*
D03*
X2940Y-3060D02*
D03*
X5770Y-4880D02*
D03*
X9510Y-9560D02*
D03*
X7320Y-9580D02*
D03*
X21660Y-5580D02*
D03*
X20020Y-4280D02*
D03*
X18180Y-5670D02*
D03*
X17040Y-5820D02*
D03*
X16410Y-8000D02*
D03*
X17430Y-7960D02*
D03*
X19410Y-8010D02*
D03*
X19470Y-10260D02*
D03*
X17460Y-10040D02*
D03*
X17520Y-9010D02*
D03*
X16470Y-8980D02*
D03*
X16460Y-10020D02*
D03*
X15490Y-9990D02*
D03*
X15530Y-8970D02*
D03*
X36000Y-9500D02*
D03*
X31500D02*
D03*
X29500D02*
D03*
X35570Y-4960D02*
D03*
X34000Y-5160D02*
D03*
X32000Y-5000D02*
D03*
X30200Y-5030D02*
D03*
X16196Y-690D02*
D03*
X16380Y-7420D02*
D03*
X15470Y-7330D02*
D03*
X15000Y-9500D02*
D03*
X13846Y-6270D02*
D03*
X16010Y-4890D02*
D03*
X14200Y-5120D02*
D03*
X4050Y-6804D02*
D03*
X5980Y-6400D02*
D03*
X7966Y-3980D02*
D03*
X10900Y2400D02*
D03*
X9976Y3290D02*
D03*
X25000Y9500D02*
D03*
X24000D02*
D03*
X23000D02*
D03*
X20000D02*
D03*
X19000D02*
D03*
X30700Y1220D02*
D03*
X14400Y9500D02*
D03*
X13400D02*
D03*
X12690Y2770D02*
D03*
X11570Y-5040D02*
D03*
X13000Y-9500D02*
D03*
X12000D02*
D03*
X14000D02*
D03*
X18000D02*
D03*
Y9500D02*
D03*
X34720Y3400D02*
D03*
X32690Y2980D02*
D03*
X35200Y-1480D02*
D03*
X34270D02*
D03*
X30180Y-920D02*
D03*
X33670Y1650D02*
D03*
X31400Y-1610D02*
D03*
X34060Y2250D02*
D03*
X34380Y2880D02*
D03*
X35260Y1490D02*
D03*
Y2350D02*
D03*
X35200Y700D02*
D03*
X8846Y-290D02*
D03*
X7380Y-5580D02*
D03*
X15406Y-5430D02*
D03*
X9770Y-5420D02*
D03*
X13076Y1970D02*
D03*
X11036Y-5310D02*
D03*
X8786Y-635D02*
D03*
X16816Y-200D02*
D03*
X17176Y-336D02*
D03*
X12900Y-1920D02*
D03*
X11700Y-2970D02*
D03*
X9176Y-5260D02*
D03*
X310Y-3590D02*
D03*
X1080Y-1940D02*
D03*
X11866Y-3760D02*
D03*
X5260Y2960D02*
D03*
X8226Y-570D02*
D03*
X8866Y10D02*
D03*
X8716Y-2400D02*
D03*
X15166Y-1790D02*
D03*
X7666Y-1620D02*
D03*
X7766Y-2630D02*
D03*
X14220Y-5490D02*
D03*
X15046Y-3540D02*
D03*
X15036Y460D02*
D03*
X4516Y1820D02*
D03*
X4546Y-1100D02*
D03*
X2150Y-630D02*
D03*
X8846Y3440D02*
D03*
X11380Y610D02*
D03*
X6586Y-2160D02*
D03*
X10910Y-7060D02*
D03*
X16206Y-2130D02*
D03*
X16196Y110D02*
D03*
X11610Y-5420D02*
D03*
X16006Y1130D02*
D03*
X16340Y2700D02*
D03*
X15696Y-4240D02*
D03*
X14360Y2290D02*
D03*
X10364Y-5498D02*
D03*
X17010Y470D02*
D03*
X17030Y1170D02*
D03*
X10736Y-5380D02*
D03*
X8796Y-1000D02*
D03*
X8206Y-1020D02*
D03*
X10676Y146D02*
D03*
Y-193D02*
D03*
X7916Y-260D02*
D03*
X13176Y-5660D02*
D03*
X12526Y-3900D02*
D03*
X13986Y-3880D02*
D03*
X14696D02*
D03*
X780Y-3080D02*
D03*
X16280Y3070D02*
D03*
X17196Y-2100D02*
D03*
X14026Y-910D02*
D03*
X14196Y-1990D02*
D03*
X12856Y-2970D02*
D03*
X13106Y970D02*
D03*
X3226Y-1000D02*
D03*
X3186Y2630D02*
D03*
X11170Y3120D02*
D03*
X8566Y2890D02*
D03*
X8376Y610D02*
D03*
X5240Y-770D02*
D03*
X3786Y1005D02*
D03*
X10050Y2640D02*
D03*
X8683Y-5207D02*
D03*
X8349D02*
D03*
X10830Y-1840D02*
D03*
X6856Y-750D02*
D03*
X9220Y-3440D02*
D03*
X10506Y-3930D02*
D03*
X8456Y-1670D02*
D03*
X9876Y-4400D02*
D03*
X14916Y3110D02*
D03*
X14396Y3100D02*
D03*
X16556Y-1480D02*
D03*
X35013Y-4213D02*
D03*
X4516Y2850D02*
D03*
X8836Y-1610D02*
D03*
X10526Y-3010D02*
D03*
X10536Y-2710D02*
D03*
X10326Y-1660D02*
D03*
X11020Y-260D02*
D03*
X12800Y3510D02*
D03*
X11980Y820D02*
D03*
X31450Y1290D02*
D03*
X33500Y-9500D02*
D03*
X15400Y9500D02*
D03*
X16400D02*
D03*
X21260Y5590D02*
D03*
X21000Y9500D02*
D03*
X22000D02*
D03*
X31000Y9500D02*
D03*
X30000D02*
D03*
X28000D02*
D03*
X29000D02*
D03*
X32000D02*
D03*
X33000D02*
D03*
X34000D02*
D03*
X27000D02*
D03*
X32500Y10230D02*
D03*
X32420Y8200D02*
D03*
X31410Y7280D02*
D03*
X25620Y10220D02*
D03*
X26440Y10270D02*
D03*
X15800Y3050D02*
D03*
X16346Y-2990D02*
D03*
X5960Y-3780D02*
D03*
X5920Y-5780D02*
D03*
X9186Y-3010D02*
D03*
Y-2710D02*
D03*
X9126Y-2380D02*
D03*
X13540Y3010D02*
D03*
X21250Y1360D02*
D03*
X23680Y-3090D02*
D03*
X18090Y4980D02*
D03*
X23260Y-4430D02*
D03*
Y-3140D02*
D03*
X20520Y-6070D02*
D03*
X4760Y7380D02*
D03*
X31060Y2130D02*
D03*
X32580Y2190D02*
D03*
X33200Y3510D02*
D03*
X34650Y5020D02*
D03*
Y6520D02*
D03*
X32150Y5020D02*
D03*
Y6520D02*
D03*
X34273Y-4213D02*
D03*
X6880Y7230D02*
D03*
X12180Y530D02*
D03*
X6820Y3960D02*
D03*
X17027Y4640D02*
D03*
X17027Y4220D02*
D03*
Y3800D02*
D03*
X17800Y3380D02*
D03*
X18070Y1590D02*
D03*
X19520Y1250D02*
D03*
X19610Y500D02*
D03*
X19590Y2500D02*
D03*
X5610Y8100D02*
D03*
X4326Y-705D02*
D03*
X17020Y5010D02*
D03*
X35250Y6673D02*
D03*
X35900Y4396D02*
D03*
Y5536D02*
D03*
Y4966D02*
D03*
X32210Y3650D02*
D03*
X25000Y-9500D02*
D03*
X24000D02*
D03*
X23000D02*
D03*
X22000D02*
D03*
X21000D02*
D03*
X20000D02*
D03*
X29290Y413D02*
D03*
Y113D02*
D03*
Y-187D02*
D03*
Y-487D02*
D03*
Y-787D02*
D03*
Y-1087D02*
D03*
Y-2410D02*
D03*
Y-1810D02*
D03*
Y-1510D02*
D03*
X27780Y-3760D02*
D03*
Y-3160D02*
D03*
Y-3460D02*
D03*
X29290Y-2110D02*
D03*
X27780Y-2860D02*
D03*
X28670Y-3330D02*
D03*
Y-3630D02*
D03*
X27780Y-4060D02*
D03*
Y-4360D02*
D03*
X25280Y5440D02*
D03*
X25010Y5270D02*
D03*
X24740Y5100D02*
D03*
X23990Y2740D02*
D03*
X23780Y2520D02*
D03*
X29170Y2560D02*
D03*
Y2260D02*
D03*
X11400Y9500D02*
D03*
X12400D02*
D03*
X24620Y2520D02*
D03*
X24410Y2740D02*
D03*
X24200Y2520D02*
D03*
X29290Y1320D02*
D03*
Y1013D02*
D03*
Y713D02*
D03*
X7400Y9500D02*
D03*
X8400D02*
D03*
X9400D02*
D03*
X26662Y1002D02*
D03*
X13440Y3900D02*
D03*
X17360Y4430D02*
D03*
X17800Y3810D02*
D03*
X10420Y2210D02*
D03*
X12970Y2580D02*
D03*
X13200Y3030D02*
D03*
X15920Y1850D02*
D03*
X18430Y130D02*
D03*
X18260Y-1120D02*
D03*
X17740Y1040D02*
D03*
X19210Y-1130D02*
D03*
X20060Y-1830D02*
D03*
X21270Y-1860D02*
D03*
X23310Y-1080D02*
D03*
X24410Y-1160D02*
D03*
X26860Y-1180D02*
D03*
X26990Y0D02*
D03*
X27190Y990D02*
D03*
X27170Y2820D02*
D03*
X24930Y4110D02*
D03*
X26040Y4680D02*
D03*
X23750Y5250D02*
D03*
X23670Y3220D02*
D03*
X23510Y2020D02*
D03*
X23460Y980D02*
D03*
X20980Y190D02*
D03*
X20160Y1170D02*
D03*
X20120Y-320D02*
D03*
X20210Y2510D02*
D03*
X17590Y5840D02*
D03*
X22970Y6300D02*
D03*
X25920Y8100D02*
D03*
X25840Y7060D02*
D03*
X38500Y12000D02*
D03*
X36000D02*
D03*
X34500Y10250D02*
D03*
X34340Y7100D02*
D03*
X30130Y6590D02*
D03*
X30150Y5910D02*
D03*
X26140Y11090D02*
D03*
X500Y10500D02*
D03*
X2500D02*
D03*
X4500D02*
D03*
X7820Y8010D02*
D03*
X4910Y8710D02*
D03*
X670Y6830D02*
D03*
X840Y3530D02*
D03*
X470Y4580D02*
D03*
X2320Y4850D02*
D03*
X2250Y6670D02*
D03*
X6320Y4470D02*
D03*
X11630Y-1800D02*
D03*
X11210Y-3560D02*
D03*
X18920Y-6930D02*
D03*
X20290Y-6950D02*
D03*
X22610Y-4560D02*
D03*
X20010Y-5330D02*
D03*
X23900Y-4560D02*
D03*
X25950Y-2370D02*
D03*
X24560Y-2340D02*
D03*
X25580Y-2380D02*
D03*
X26540Y-3930D02*
D03*
X21730Y-6570D02*
D03*
X20480Y-7900D02*
D03*
X26990Y-6450D02*
D03*
X27750Y-4900D02*
D03*
X28590Y-7970D02*
D03*
X28490Y-5080D02*
D03*
X34190Y-8400D02*
D03*
X34720Y-9080D02*
D03*
X30210Y-8410D02*
D03*
X37050Y-11030D02*
D03*
X33310Y-11020D02*
D03*
X30120Y-11010D02*
D03*
X27780Y-10970D02*
D03*
X26240D02*
D03*
X24760Y1010D02*
D03*
X25550Y1040D02*
D03*
X25160Y1020D02*
D03*
X26310Y-2380D02*
D03*
X8400Y5500D02*
D03*
X6850Y5090D02*
D03*
X5690Y5050D02*
D03*
X11000Y-9500D02*
D03*
X23898Y-1040D02*
D03*
X31660Y3850D02*
D03*
X31030Y3970D02*
D03*
X32480Y3910D02*
D03*
X32950Y5130D02*
D03*
X30230Y4800D02*
D03*
X29270Y3620D02*
D03*
X30350Y2740D02*
D03*
X30210Y2130D02*
D03*
X30260Y-1370D02*
D03*
X30960Y-1700D02*
D03*
X6600Y-7800D02*
D03*
X500Y-10900D02*
D03*
X1700Y-11000D02*
D03*
X5500D02*
D03*
X7890Y4570D02*
D03*
X8950Y4940D02*
D03*
X9910Y5040D02*
D03*
X9900Y6200D02*
D03*
X8900Y6600D02*
D03*
X7900Y6000D02*
D03*
X18400Y2200D02*
D03*
X15400Y3100D02*
D03*
X500Y12000D02*
D03*
X2500D02*
D03*
X5400D02*
D03*
X6900D02*
D03*
X34500D02*
D03*
X38500Y10000D02*
D03*
X37000Y-12000D02*
D03*
X35000D02*
D03*
X33000D02*
D03*
X31000D02*
D03*
X29000D02*
D03*
X27000D02*
D03*
X500D02*
D03*
X2400Y-11800D02*
D03*
X4500Y-12000D02*
D03*
X6500D02*
D03*
X9000D02*
D03*
X10500D02*
D03*
Y-11000D02*
D03*
X5700Y-4350D02*
D03*
X5720Y4490D02*
D03*
X2570Y1050D02*
D03*
X2390Y2240D02*
D03*
X1100Y-690D02*
D03*
X960Y2570D02*
D03*
X1710Y-3550D02*
D03*
X1130Y240D02*
D03*
D71*
X4499Y4862D02*
D03*
Y-4862D02*
D03*
D72*
X26662Y1500D02*
D03*
Y500D02*
D03*
X24438Y1500D02*
D03*
Y500D02*
D03*
X26662Y-500D02*
D03*
X24438D02*
D03*
M02*
